<?xml version="1.0" encoding="utf-8"?>
<!-- Generator: Adobe Illustrator 16.0.0, SVG Export Plug-In . SVG Version: 6.00 Build 0)  -->
<!DOCTYPE svg PUBLIC "-//W3C//DTD SVG 1.1//EN" "http://www.w3.org/Graphics/SVG/1.1/DTD/svg11.dtd">
<svg version="1.1" xmlns="http://www.w3.org/2000/svg" xmlns:xlink="http://www.w3.org/1999/xlink" x="0px" y="0px" width="40px"
	 height="40px" viewBox="0 0 40 40" style="enable-background:new 0 0 40 40;" xml:space="preserve">
<style type="text/css">
<![CDATA[
	.st0{fill:#FFFFFF;}
	.st1{fill:#CC99CC;}
]]>
</style>
<g id="图层_2">
	<circle class="st1" cx="20.781" cy="19.906" r="17.719"/>
</g>
<g id="图层_1">
	<g>
		<path class="st0" d="M28.337,30.998L28.337,30.998c-1.321,0-2.731-0.766-3.863-1.381c-0.365-0.197-0.859-0.465-1.048-0.521
			c-0.105,0-0.281,0.004-0.281,0.004h-5.195c-5.008,0-9.083-3.652-9.083-8.136v-4.012c0-4.486,4.075-8.136,9.083-8.136h4.54
			c5.008,0,9.082,3.65,9.082,8.136v2.956c0,1.822-0.6,2.937-1.079,3.833c-0.322,0.6-0.556,1.031-0.556,1.547
			c0,0.871,0.132,1.652,0.247,2.342c0.181,1.064,0.335,1.984-0.195,2.678c-0.295,0.389-0.742,0.615-1.329,0.674
			C28.554,30.992,28.446,30.998,28.337,30.998z M23.476,27.213c0.514,0,1.063,0.299,1.896,0.752
			c0.896,0.486,2.123,1.152,2.966,1.152l0,0c0.045,0,0.089-0.004,0.133-0.008c0.001,0,0.003,0,0.004,0
			c0.007-0.258-0.079-0.775-0.146-1.17c-0.121-0.723-0.273-1.623-0.273-2.652c0-0.99,0.396-1.727,0.778-2.439
			c0.42-0.782,0.856-1.591,0.856-2.94v-2.956c0-3.448-3.23-6.253-7.2-6.253h-4.54c-3.971,0-7.201,2.805-7.201,6.253v4.012
			c0,3.448,3.23,6.253,7.201,6.253h5.185C23.135,27.217,23.392,27.213,23.476,27.213z"/>
	</g>
</g>
</svg>
