<?xml version="1.0" encoding="utf-8"?>
<!-- Generator: Adobe Illustrator 16.0.0, SVG Export Plug-In . SVG Version: 6.00 Build 0)  -->
<!DOCTYPE svg PUBLIC "-//W3C//DTD SVG 1.1//EN" "http://www.w3.org/Graphics/SVG/1.1/DTD/svg11.dtd">
<svg version="1.1" id="图层_1" xmlns="http://www.w3.org/2000/svg" xmlns:xlink="http://www.w3.org/1999/xlink" x="0px" y="0px"
	 width="40px" height="40px" viewBox="0 0 40 40" style="enable-background:new 0 0 40 40;" xml:space="preserve">
<style type="text/css">
<![CDATA[
	.st0{fill:#F4A6CA;}
	.st1{opacity:0.15;fill:#37353A;}
	.st2{fill:#FFFFFF;}
	.st3{fill:#CC0066;}
]]>
</style>
<circle class="st3" cx="19.781" cy="19.906" r="17.719"/>
<g>
	<g>
		<circle class="st0" cx="19.749" cy="19.758" r="12.976"/>
		<g>
			<g>
				<path class="st2" d="M26.223,18.973l-8.079-5.87c-0.296-0.216-0.689-0.25-1.013-0.081c-0.328,0.164-0.533,0.5-0.533,0.864V25.63
					c0,0.365,0.206,0.699,0.533,0.866c0.139,0.07,0.288,0.104,0.44,0.104c0.2,0,0.404-0.062,0.573-0.186l8.079-5.869
					c0.254-0.186,0.404-0.476,0.404-0.785C26.627,19.444,26.474,19.154,26.223,18.973z"/>
			</g>
		</g>
		<path class="st1" d="M6.773,19.767c0,7.171,5.809,12.986,12.977,12.986V6.781C12.582,6.781,6.773,12.595,6.773,19.767z"/>
	</g>
</g>
</svg>
