<?xml version="1.0" encoding="utf-8"?>
<!-- Generator: Adobe Illustrator 16.0.0, SVG Export Plug-In . SVG Version: 6.00 Build 0)  -->
<!DOCTYPE svg PUBLIC "-//W3C//DTD SVG 1.1//EN" "http://www.w3.org/Graphics/SVG/1.1/DTD/svg11.dtd">
<svg version="1.1" id="图层_1" xmlns="http://www.w3.org/2000/svg" xmlns:xlink="http://www.w3.org/1999/xlink" x="0px" y="0px"
	 width="80px" height="80px" viewBox="0 0 80 80" style="enable-background:new 0 0 80 80;" xml:space="preserve">
<style type="text/css">
<![CDATA[
	.st0{fill:#F25F82;}
	.st1{fill:#FFFFFF;}
]]>
</style>
<rect class="st0" width="80" height="80"/>
<g>
	<circle class="st1" cx="27.429" cy="45.598" r="7.918"/>
	<path class="st1" d="M57.088,41.93c3.608-8.171,4.732-16.348,2.69-23.235c-1.237-4.171-3.192-8.603-9.772-11.746
		c-7.943-3.795-17.462-0.43-21.258,7.515c-1.323,2.77-1.772,5.732-1.464,8.575c0.108,0.065,0.218,0.129,0.325,0.189
		c0.252,0.135,0.507,0.284,0.757,0.411c0.496,0.258,1.008,0.509,1.524,0.737l0.391,0.173l0.097,0.042
		c0.011,0.006,0.062,0.024,0.089,0.036l0.203,0.079c0.268,0.108,0.537,0.215,0.796,0.304c0.263,0.097,0.52,0.185,0.801,0.271
		l0.411,0.131l0.403,0.108c1.07,0.294,2.213,0.496,3.315,0.55l0.107,0.008l0.05,0.004l0.009,0l0.025,0.001l0.216,0.003
		c0.147,0.005,0.283,0.003,0.423,0.003c0.277,0,0.554-0.013,0.826-0.037c0.148-0.01,0.291-0.021,0.409-0.035l0.427-0.058
		c0.242-0.027,0.573-0.098,0.82-0.143c0.281-0.06,0.567-0.117,0.842-0.181c0.272-0.069,0.545-0.13,0.812-0.206
		c0.272-0.082,0.563-0.154,0.823-0.246l0.395-0.13l0.196-0.066l0.204-0.075c1.057-0.393,2.068-0.872,3.014-1.489
		c0.228-0.149,0.456-0.307,0.677-0.476c0.107-0.085,0.225-0.169,0.321-0.254c0.108-0.092,0.228-0.187,0.32-0.277
		c0.101-0.094,0.191-0.173,0.296-0.28c0.096-0.096,0.183-0.19,0.268-0.291l0.063-0.076c0.412-0.573,1.187-0.788,1.846-0.472
		c0.424,0.202,0.645,0.526,0.812,0.993l0.062,0.173l0.079,0.209l0.142,0.414c0.055,0.16,0.091,0.282,0.137,0.425l0.128,0.416
		l0.12,0.431l0.114,0.418l0.104,0.433c0.072,0.287,0.132,0.576,0.189,0.863c0.062,0.288,0.109,0.576,0.159,0.866l0.038,0.216
		l0.019,0.115l0.016,0.107l0.06,0.429c0.153,1.165,0.235,2.338,0.244,3.508L52.2,32.196l-0.034,0.878l-0.063,0.879
		c-0.03,0.289-0.053,0.574-0.089,0.865c-0.068,0.587-0.157,1.165-0.261,1.741l-0.082,0.428l-0.043,0.22l-0.046,0.212
		c-0.063,0.282-0.12,0.564-0.192,0.851c-0.271,1.14-0.618,2.258-1.012,3.35c-0.196,0.55-0.41,1.094-0.639,1.63
		c-0.223,0.533-0.47,1.063-0.722,1.592c-0.128,0.266-0.263,0.516-0.393,0.775c-0.139,0.256-0.289,0.51-0.431,0.766l-0.46,0.744
		l-0.496,0.725c-0.176,0.234-0.345,0.471-0.526,0.699c-0.186,0.227-0.362,0.455-0.56,0.676c-0.377,0.434-0.783,0.861-1.209,1.26
		c-0.852,0.803-1.776,1.51-2.771,2.117c-1.987,1.221-4.212,2.008-6.496,2.398c-1.143,0.197-2.301,0.287-3.46,0.283
		c-1.157,0-2.314-0.092-3.457-0.283c-0.149-0.025-0.3-0.055-0.448-0.084c-0.019-0.002-0.036-0.006-0.056-0.01
		c-0.015-0.002-0.029-0.006-0.044-0.008c-0.201-0.039-0.398-0.082-0.598-0.127c-0.109-0.023-0.216-0.049-0.325-0.076
		c-0.137-0.033-0.273-0.066-0.411-0.105c-0.165-0.043-0.331-0.09-0.497-0.139c-0.085-0.025-0.17-0.053-0.255-0.078
		c-0.219-0.068-0.436-0.143-0.648-0.219c-0.026-0.01-0.048-0.016-0.072-0.023c-0.146-0.055-0.294-0.107-0.441-0.16L24.753,53.9
		c-0.048-0.02-0.091-0.037-0.133-0.055c-0.318-0.109-0.636-0.232-0.947-0.383c-4.338-2.07-6.181-7.285-4.11-11.621
		c2.072-4.339,7.287-6.182,11.625-4.11c0.37,0.178,0.721,0.378,1.055,0.601c-0.706-0.683-1.53-1.266-2.464-1.713
		c-4.647-2.22-10.213-0.251-12.434,4.396c-0.826,1.729-1.072,3.585-0.816,5.35c0.578,5.107,3.687,9.076,9.147,11.801
		c5.061,2.525,11.2,2.008,14.997,0.586C48.702,55.914,53.226,50.678,57.088,41.93z M28.724,54.633
		c0.857,0.129,1.72,0.205,2.582,0.227c2.075,0.047,4.152-0.211,6.132-0.809c0.988-0.297,1.952-0.68,2.869-1.145
		c0.231-0.123,0.455-0.229,0.679-0.365c0.222-0.135,0.456-0.258,0.665-0.402c0.432-0.273,0.852-0.57,1.26-0.885
		c0.197-0.162,0.41-0.316,0.594-0.484c0.193-0.174,0.396-0.342,0.582-0.52c0.18-0.18,0.367-0.352,0.543-0.539
		c0.174-0.188,0.354-0.373,0.523-0.564c0.164-0.195,0.338-0.393,0.493-0.588l0.474-0.617l0.441-0.625l0.413-0.648l0.39-0.666
		l0.364-0.682l0.333-0.689c0.109-0.232,0.214-0.473,0.314-0.711c0.098-0.229,0.209-0.477,0.296-0.705l0.284-0.727
		c0.183-0.484,0.349-0.964,0.506-1.457c0.319-0.984,0.591-1.979,0.8-2.98c0.213-1.005,0.376-2.029,0.485-3.045
		c0.027-0.256,0.053-0.51,0.071-0.768l0.029-0.382c0.01-0.119,0.014-0.257,0.021-0.384c0.03-0.525,0.039-1.024,0.036-1.538
		c-0.006-1.026-0.067-2.051-0.19-3.07c-0.062-0.505-0.138-1.021-0.227-1.513c-0.05-0.256-0.096-0.515-0.15-0.763l-0.168-0.743
		l-0.194-0.743l-0.218-0.727l-0.244-0.729l-0.135-0.367l-0.1-0.259c-0.069-0.188-0.23-0.181-0.295-0.126
		c-0.129,0.151-0.264,0.295-0.396,0.428l-0.324,0.307l-0.346,0.301l-0.347,0.276l-0.364,0.272c-0.244,0.172-0.491,0.338-0.743,0.496
		c-1.011,0.632-2.08,1.129-3.201,1.542c-0.273,0.095-0.542,0.191-0.82,0.281c-0.287,0.086-0.564,0.174-0.861,0.256
		c-0.279,0.072-0.555,0.148-0.839,0.217c-0.292,0.063-0.57,0.131-0.873,0.19l-0.426,0.083l-0.124,0.023l-0.106,0.016l-0.213,0.034
		l-0.215,0.031l-0.119,0.017l-0.107,0.012l-0.221,0.022l-0.229,0.02c-0.277,0.026-0.602,0.042-0.894,0.045
		c-0.149,0.002-0.297,0.006-0.443,0.002l-0.22-0.002l-0.076-0.001l-0.054-0.004l-0.107-0.005c-1.188-0.047-2.343-0.23-3.507-0.521
		c-0.55-0.135-1.136-0.307-1.694-0.496c-0.545-0.183-1.098-0.387-1.653-0.62c-0.524-0.22-1.077-0.47-1.6-0.73
		c-0.055-0.027-0.109-0.055-0.165-0.083c1.135,4.409,4.138,8.303,8.566,10.418c2.775,1.325,5.741,1.775,8.588,1.464
		c0.379,2.866-0.039,5.871-1.379,8.674C40.697,51.666,34.773,54.945,28.724,54.633z M25.167,54.045
		c-0.02-0.01-0.042-0.016-0.062-0.021l-0.075-0.027C25.077,54.012,25.123,54.027,25.167,54.045z"/>
</g>
<g>
	<path class="st1" d="M7.511,67.678h1.633C9,67.936,8.871,68.193,8.757,68.451h3.48v0.43H8.585c-0.144,0.229-0.272,0.473-0.387,0.73
		h2.836c0.802,0.144,0.988,0.545,0.559,1.203c-0.401,0.401-0.888,0.889-1.461,1.461c0.974,0.859,1.704,1.446,2.191,1.762
		c-1.547,0.114-2.406-0.015-2.578-0.387c-0.201-0.172-0.401-0.358-0.602-0.559c-0.086,0.057-0.201,0.157-0.344,0.301
		c-0.172,0.114-0.287,0.215-0.344,0.301c-0.344,0.314-1.375,0.43-3.094,0.344c0.773-0.315,1.719-0.917,2.836-1.805l-0.902-0.859
		c-0.058,0.086-0.115,0.187-0.172,0.301c-0.086,0.115-0.144,0.201-0.172,0.258c-0.287,0.516-0.816,0.73-1.59,0.645
		c0.057,0.802-0.301,1.16-1.074,1.074c-0.43-0.029-0.702-0.229-0.816-0.602v0.602H2.183v-9.453h1.289v0.559
		c0.143-0.344,0.415-0.529,0.816-0.559c0.745-0.028,1.103,0.358,1.074,1.16v6.488c0.401-0.602,0.931-1.59,1.59-2.965H5.577v-0.43
		h1.547C7.238,68.193,7.367,67.936,7.511,67.678z M3.472,65.057v3.566h0.602v-3.352c0-0.372-0.101-0.572-0.301-0.602
		C3.629,64.67,3.529,64.799,3.472,65.057z M4.073,72.619V69.01H3.472v3.824c0.057,0.229,0.157,0.344,0.301,0.344
		C3.973,73.178,4.073,72.991,4.073,72.619z M12.237,67.506h-6.66v-0.387h6.66V67.506z M10.948,64.67H5.62v-0.43h3.695
		c0.401,0,0.673-0.143,0.816-0.43h2.063C11.994,64.384,11.578,64.67,10.948,64.67z M5.835,65.014h1.461
		c-0.029,0.945,0.172,1.504,0.602,1.676C6.265,66.977,5.577,66.418,5.835,65.014z M9.616,69.998h-1.59
		c-0.086,0.201-0.172,0.358-0.258,0.473h0.559c0.114,0.172,0.301,0.387,0.559,0.645c0.143,0.115,0.243,0.187,0.301,0.215
		c0.2-0.172,0.415-0.372,0.645-0.602c0.229-0.2,0.329-0.372,0.301-0.516C10.074,70.099,9.902,70.027,9.616,69.998z M7.94,65.014
		h1.461c-0.029,0.917,0.143,1.447,0.516,1.59c0.315-0.172,0.487-0.701,0.516-1.59h1.461c0.143,1.433-0.516,1.991-1.977,1.676
		C8.37,66.947,7.711,66.389,7.94,65.014z"/>
	<path class="st1" d="M13.784,64.713h1.59c-0.029,0.459-0.086,1.39-0.172,2.793c-0.086,1.977-0.144,3.381-0.172,4.211
		c0.028,1.061-0.688,1.575-2.148,1.547c0.286-0.315,0.473-1.002,0.559-2.063C13.583,69.053,13.698,66.891,13.784,64.713z
		 M19.284,73.951h-1.289c-1.433,0.028-2.12-0.573-2.063-1.805v-7.777h1.719v7.648c-0.058,1.002,0.329,1.475,1.16,1.418h0.43
		c0.974,0.086,1.618-0.63,1.934-2.148C21.261,73.148,20.63,74.037,19.284,73.951z M18.167,63.896H19.8
		c0.028,0.745,0.071,1.633,0.129,2.664c0.086,1.089,0.172,2.191,0.258,3.309c0.057,0.773,0.215,1.304,0.473,1.59
		c-1.404,0-2.091-0.501-2.063-1.504c-0.058-0.888-0.187-2.592-0.387-5.113C18.181,64.384,18.167,64.068,18.167,63.896z
		 M20.745,64.885h1.59c0,0.086,0,0.229,0,0.43c0.258,2.894,0.444,4.855,0.559,5.887c0.028,1.089,0.258,1.818,0.688,2.191
		c-1.375,0.057-2.105-0.401-2.191-1.375C21.16,69.869,20.945,67.492,20.745,64.885z"/>
	<path class="st1" d="M25.858,63.811h1.762c-0.115,0.688-0.272,1.146-0.473,1.375h0.559c0.773,0,1.16,0.33,1.16,0.988v0.902
		c0.487-0.544,0.888-1.633,1.203-3.266h1.762c-0.058,0.201-0.115,0.401-0.172,0.602c-0.058,0.229-0.115,0.444-0.172,0.645
		c0.2-0.114,0.501-0.186,0.902-0.215c1.203-0.086,1.762,0.43,1.676,1.547v5.414c0.057,1.547-0.544,2.291-1.805,2.234
		c-1.175-0.029-2.134-0.516-2.879-1.461c0.315,0.172,0.63,0.258,0.945,0.258c0.258,0.057,0.616,0.086,1.074,0.086
		c0.688,0.086,1.002-0.301,0.945-1.16v-5.457c0-0.658-0.201-0.974-0.602-0.945c-0.144,0-0.287,0.058-0.43,0.172
		c-0.058,0.115-0.101,0.244-0.129,0.387c-0.029,0.144-0.058,0.258-0.086,0.344c-0.115,0.602-0.859,0.874-2.234,0.816v5.758
		c0,0.658-0.401,0.988-1.203,0.988h-0.945c-0.516,0-0.788-0.144-0.816-0.43v0.43h-1.59v-8.637h1.203
		c0.057-0.2,0.157-0.602,0.301-1.203C25.729,64.47,25.744,64.412,25.858,63.811z M25.901,66.088v2.879h1.289v-2.75
		c0-0.458-0.158-0.688-0.473-0.688C26.345,65.501,26.073,65.688,25.901,66.088z M27.19,72.705v-3.352h-1.289v3.695
		c0.086,0.229,0.2,0.344,0.344,0.344h0.43C27.047,73.449,27.219,73.221,27.19,72.705z M29.21,67.506h1.547
		c0.372,1.862,0.859,3.051,1.461,3.566c-1.433,0.115-2.191-0.229-2.277-1.031C29.597,69.039,29.353,68.193,29.21,67.506z"/>
	<path class="st1" d="M36.558,63.854h1.848c-0.086,0.287-0.187,0.702-0.301,1.246c-0.201,0.831-0.358,1.447-0.473,1.848v6.918
		c0.372-0.43,0.659-0.932,0.859-1.504c0.487-1.719,0.874-3.48,1.16-5.285H37.89v-0.43h1.805v-2.793h1.633v2.793h3.996v0.43h-3.996
		c-0.028,0.373-0.358,2.034-0.988,4.984c-0.258,1.403-1.16,2.063-2.707,1.977h-1.676v-5.629c-0.315,0.058-0.63,0.058-0.945,0
		C35.469,68.18,35.984,66.661,36.558,63.854z M43.776,73.908h-0.559c-1.231,0.028-1.819-0.473-1.762-1.504V67.85h1.676v4.168
		c-0.028,0.916,0.2,1.36,0.688,1.332c0.659,0.114,1.16-0.587,1.504-2.105C45.495,73.077,44.979,73.965,43.776,73.908z
		 M42.058,64.326h1.59c0.258,0.945,0.645,1.59,1.16,1.934c-1.489,0.115-2.249-0.143-2.277-0.773
		C42.358,65.229,42.201,64.842,42.058,64.326z"/>
	<path class="st1" d="M49.62,67.506h1.977c-0.372,0.573-0.587,0.917-0.645,1.031h5.199v0.387h-5.5
		c-0.086,0.144-0.2,0.315-0.344,0.516c-0.172,0.229-0.286,0.401-0.344,0.516c0.286-0.2,0.745-0.314,1.375-0.344h2.449
		c0.659,0,1.074,0.029,1.246,0.086c0.229,0.058,0.372,0.187,0.43,0.387c0.058,0.201-0.2,0.502-0.773,0.902
		c-0.63,0.459-1.246,0.874-1.848,1.246c0.258,0.201,0.53,0.358,0.816,0.473c0.802,0.43,1.69,0.873,2.664,1.332
		c-1.347,0-2.277-0.043-2.793-0.129c-0.516-0.058-0.931-0.187-1.246-0.387c-0.114-0.086-0.258-0.172-0.43-0.258
		c-0.2-0.115-0.344-0.201-0.43-0.258c-0.172,0.086-0.415,0.215-0.73,0.387c-0.229,0.143-0.372,0.243-0.43,0.301
		c-0.372,0.143-0.788,0.243-1.246,0.301c-0.487,0.028-1.375,0.043-2.664,0.043c0.43-0.144,1.461-0.616,3.094-1.418
		c0.286-0.172,0.516-0.301,0.688-0.387c-0.458-0.286-0.874-0.587-1.246-0.902l-0.215,0.215c-0.286,0.545-1.175,0.76-2.664,0.645
		c0.602-0.516,1.489-1.604,2.664-3.266h-2.578v-0.387h2.879c0.114-0.2,0.229-0.4,0.344-0.602
		C49.463,67.764,49.563,67.621,49.62,67.506z M54.519,64.713h-8.164v-0.43h6.359c0.487,0.029,0.802-0.129,0.945-0.473h2.406
		C55.836,64.47,55.32,64.771,54.519,64.713z M48.159,68.236h-1.805v-1.547h1.805v0.945c0.086-0.63,0.716-0.931,1.891-0.902h4.211
		c1.261-0.057,1.833,0.244,1.719,0.902v0.129c-0.028,0.287-0.129,0.473-0.301,0.559h-1.934c0.229-0.143,0.358-0.314,0.387-0.516
		v-0.172c0.086-0.344-0.258-0.501-1.031-0.473h-3.652c-0.573-0.028-1.003,0.187-1.289,0.645V68.236z M46.999,65.057h1.848
		c0.172,0.773,0.458,1.218,0.859,1.332c-1.433,0.115-2.191,0-2.277-0.344C47.285,65.873,47.143,65.544,46.999,65.057z
		 M52.284,69.998h-1.418c-0.315,0-0.688,0.086-1.117,0.258c0.229,0.172,0.473,0.33,0.73,0.473c0.43,0.287,0.773,0.502,1.031,0.645
		c0.229-0.143,0.444-0.286,0.645-0.43c0.2-0.143,0.401-0.271,0.602-0.387c0.2-0.143,0.258-0.271,0.172-0.387
		C52.843,70.084,52.628,70.027,52.284,69.998z M49.835,65.057h1.848c0.172,0.773,0.444,1.218,0.816,1.332
		c-1.461,0.086-2.22-0.028-2.277-0.344C50.078,65.873,49.949,65.544,49.835,65.057z M53.573,65.057h1.848
		c-0.144,0.487-0.272,0.816-0.387,0.988c-0.086,0.315-0.845,0.43-2.277,0.344C53.101,66.274,53.373,65.83,53.573,65.057z"/>
	<path class="st1" d="M61.093,63.896v1.934h0.43v0.387h-0.43v4.211c-0.114,0.315-0.43,0.859-0.945,1.633
		c0.716,1.146,1.231,1.805,1.547,1.977c-1.289,0.028-2.034-0.172-2.234-0.602c-0.058-0.086-0.114-0.158-0.172-0.215l-0.215,0.344
		c-0.172,0.372-0.874,0.529-2.105,0.473c0.2-0.201,0.716-0.859,1.547-1.977c-0.372-0.544-0.702-1.088-0.988-1.633v-4.211h-0.516
		V65.83h0.516v-1.934h1.461v1.934h0.688v-1.934H61.093z M59.675,70.213v-3.996h-0.688v4.039c0.086,0.201,0.2,0.387,0.344,0.559
		c0.028-0.057,0.086-0.157,0.172-0.301C59.561,70.399,59.617,70.299,59.675,70.213z M65.39,72.018v-0.516h-4.168v-0.387h4.168
		v-0.559c-0.028-0.516-0.286-0.787-0.773-0.816h-0.945c-1.347,0.086-1.934-0.301-1.762-1.16c0.058-1.432,0.101-2.606,0.129-3.523
		h1.676c-0.086,1.49-0.129,2.621-0.129,3.395c-0.028,0.573,0.243,0.859,0.816,0.859h0.73c1.403-0.028,2.063,0.358,1.977,1.16v2.148
		c-0.058,0.888-0.602,1.375-1.633,1.461c-1.117-0.058-2.02-0.473-2.707-1.246c0.831,0.229,1.446,0.301,1.848,0.215
		C65.132,73.02,65.39,72.677,65.39,72.018z M66.593,65.1l-0.043,2.105c-0.028,0.773-0.144,1.246-0.344,1.418h-1.633
		c0.2-0.314,0.315-0.816,0.344-1.504l0.043-1.848c0.028-0.486-0.301-0.716-0.988-0.688h-2.492v-0.473h3.352
		C66.063,64.111,66.65,64.441,66.593,65.1z"/>
	<path class="st1" d="M72.094,63.896v1.934h0.43v0.387h-0.43v4.211c-0.115,0.315-0.43,0.859-0.945,1.633
		c0.715,1.146,1.23,1.805,1.547,1.977c-1.289,0.028-2.035-0.172-2.234-0.602c-0.059-0.086-0.115-0.158-0.172-0.215l-0.215,0.344
		c-0.172,0.372-0.875,0.529-2.105,0.473c0.199-0.201,0.715-0.859,1.547-1.977c-0.373-0.544-0.703-1.088-0.988-1.633v-4.211h-0.516
		V65.83h0.516v-1.934h1.461v1.934h0.688v-1.934H72.094z M70.676,70.213v-3.996h-0.688v4.039c0.086,0.201,0.199,0.387,0.344,0.559
		c0.027-0.057,0.086-0.157,0.172-0.301C70.561,70.399,70.617,70.299,70.676,70.213z M76.391,72.018v-0.516h-4.168v-0.387h4.168
		v-0.559c-0.029-0.516-0.287-0.787-0.773-0.816h-0.945c-1.348,0.086-1.934-0.301-1.762-1.16c0.057-1.432,0.1-2.606,0.129-3.523
		h1.676c-0.086,1.49-0.129,2.621-0.129,3.395c-0.029,0.573,0.242,0.859,0.816,0.859h0.73c1.402-0.028,2.063,0.358,1.977,1.16v2.148
		c-0.059,0.888-0.602,1.375-1.633,1.461c-1.117-0.058-2.02-0.473-2.707-1.246c0.83,0.229,1.445,0.301,1.848,0.215
		C76.133,73.02,76.391,72.677,76.391,72.018z M77.594,65.1l-0.043,2.105c-0.029,0.773-0.145,1.246-0.344,1.418h-1.633
		c0.199-0.314,0.314-0.816,0.344-1.504l0.043-1.848c0.027-0.486-0.301-0.716-0.988-0.688H72.48v-0.473h3.352
		C77.063,64.111,77.65,64.441,77.594,65.1z"/>
</g>
</svg>
