<?xml version="1.0" encoding="UTF-8"?>
<svg width="14px" height="13px" viewBox="0 0 14 13" version="1.1" xmlns="http://www.w3.org/2000/svg" xmlns:xlink="http://www.w3.org/1999/xlink">
    <!-- Generator: Sketch 55 (78076) - https://sketchapp.com -->
    <title>关于我们</title>
    <desc>Created with Sketch.</desc>
    <g id="Page-1" stroke="none" stroke-width="1" fill="none" fill-rule="evenodd">
        <g id="Page"></g>
        <g id="工作台-对外" transform="translate(-976.000000, -17.000000)" fill-rule="nonzero">
            <g id="导航栏" transform="translate(200.000000, 0.000000)">
                <g id="关于我们" transform="translate(776.000000, 14.000000)">
                    <g transform="translate(0.000000, 3.000000)">
                        <rect id="矩形" fill="#000000" opacity="0" x="0" y="0" width="14" height="14"></rect>
                        <path d="M9.34691033,9.84257612 L9.34691033,11.8713481 C9.34691032,11.9467085 9.28581857,12.0078003 9.21045809,12.0078003 L7.95509747,12.0078003 C7.87973698,12.0078003 7.81864524,11.9467085 7.81864523,11.8713481 L7.81864523,8.69201083 L7.8595809,8.69201083 C9.91646199,8.69201083 11.5919591,7.06072428 11.6638694,5.02144552 L13.2338889,5.02144552 C13.1724854,7.36091921 11.5365595,9.30795624 9.34691033,9.84257612 Z M7.05696882,6.91813168 C7.05696882,6.91813168 4.32533139,5.42459368 3.43143274,3.82938509 C3.20312041,3.43984418 3.08308403,2.99635499 3.08375244,2.54483733 C3.08375244,1.13937924 4.22312866,3.02492311e-06 5.62858674,3.02492311e-06 C6.13135995,-0.000773838923 6.62298914,0.148101928 7.04086745,0.427671634 C7.45874576,0.148101928 7.95037495,-0.000773838923 8.45314816,3.02492311e-06 C9.85860624,3.02492311e-06 10.9979825,1.13937924 10.9979825,2.54483733 C10.9981942,2.78068788 10.9656347,3.01542407 10.9012378,3.24231297 C10.4811014,5.03709659 7.05696882,6.91813168 7.05696882,6.91813168 Z M6.1675731,8.69105566 L6.1675731,11.8713481 C6.16757309,11.9467085 6.10648134,12.0078003 6.03112085,12.0078003 L4.77576024,12.0078003 C4.70039975,12.0078003 4.639308,11.9467085 4.639308,11.8713481 L4.639308,9.81091921 C2.51160819,9.23468138 0.935311891,7.31698158 0.875,5.02144552 L2.44515595,5.02144552 C2.51597466,7.03357028 4.14835282,8.6483461 6.1675731,8.69105566 L6.1675731,8.69105566 Z" id="形状" fill="#2AB668"></path>
                    </g>
                </g>
            </g>
        </g>
    </g>
</svg>