<?xml version="1.0" encoding="UTF-8"?>
<svg width="108px" height="24px" viewBox="0 0 108 24" version="1.1" xmlns="http://www.w3.org/2000/svg" xmlns:xlink="http://www.w3.org/1999/xlink">
    <!-- Generator: Sketch 55 (78076) - https://sketchapp.com -->
    <title>普洛斯logo</title>
    <desc>Created with Sketch.</desc>
    <g id="页面1" stroke="none" stroke-width="1" fill="none" fill-rule="evenodd">
        <g id="工作台-对内" transform="translate(-43.000000, -30.000000)" fill="#FFFFFF">
            <g id="侧边栏">
                <g id="编组-13" transform="translate(34.000000, 30.000000)">
                    <g id="普洛斯logo" transform="translate(9.000000, 0.000000)">
                        <path d="M72.522,22.9629811 C74.8230684,18.4417564 79.9275635,15.2946293 85.8745993,15.2946293 C91.8142476,15.2946293 96.4751336,18.4417564 98.7758502,22.9629811 L99.8889186,22.9629811 C98.1303127,17.5172482 92.5565277,13.5223036 85.8745993,13.5223036 C79.1856352,13.5223036 73.5467687,17.5172482 71.7881629,22.9629811 L72.522,22.9629811 Z" id="Fill-1"></path>
                        <path d="M57.1428,22.9629811 C60.7124287,15.9531831 68.8609759,11.0734827 78.0687674,11.0734827 C87.276559,11.0734827 95.1996078,15.9531831 98.7660704,22.9629811 L99.909041,22.9629811 C97.1773798,14.5150593 88.4364156,8.32739805 78.0687674,8.32739805 C67.7000638,8.32739805 58.9580443,14.5150593 56.2295492,22.9629811 L57.1428,22.9629811 Z" id="Fill-3"></path>
                        <path d="M57.1675309,22.9629811 C61.3823453,12.1337824 71.0566124,3.40759349 81.9350619,3.40759349 C92.8085863,3.40759349 102.379427,12.1337824 106.591427,22.9629811 L107.671779,22.9629811 C107.060717,20.863841 106.359948,18.9831635 105.527961,17.1411831 C100.971205,7.04089642 92.2794919,0.355098371 81.9350619,0.355098371 C69.6870879,0.355098371 59.3700977,9.90905277 56.1462801,22.9629811 L57.1675309,22.9629811 Z" id="Fill-5"></path>
                        <path d="M86.3036795,1.67892508 C86.3036795,1.67892508 101.221048,0.930312704 107.671497,22.9626645 L105.856605,22.9626645 C102.491719,12.7628208 95.0013733,5.66824104 86.2959401,5.66824104 C77.5905068,5.66824104 70.1043831,12.7628208 66.732813,22.9626645 L65.6535166,22.9626645 C68.2360182,10.6710684 76.496787,1.67470358 86.2959401,1.67470358 L86.3036795,1.67892508 Z" id="Fill-7"></path>
                        <path d="M10.0360495,14.2070306 L14.6093394,14.8096495 C14.5727531,16.1978189 14.1446228,17.3309394 13.3372612,18.1833303 C12.4940169,19.0716039 11.4119062,19.5229524 10.1194241,19.5229524 C6.7383557,19.5229524 5.09267492,16.8535583 5.09267492,11.3634997 C5.09267492,8.77677655 5.57638827,6.84192313 6.52939153,5.61311531 C7.48133941,4.38501107 8.67743062,3.78837264 10.1848573,3.78837264 C12.2618345,3.78837264 13.6267857,4.76987101 14.3588638,6.79091336 L14.4327401,6.99460065 L18.2644534,5.8625355 L18.1845967,5.63387101 C17.6941993,4.23585147 16.8720625,3.0133759 15.7442189,1.99775375 C14.2670463,0.671851466 12.3649094,-7.03583062e-05 10.0881147,-7.03583062e-05 C7.03913746,-7.03583062e-05 4.23641433,1.14747362 2.53761303,3.41054853 C0.853938762,5.65321954 0.000140716612,8.42779935 0.000140716612,11.6551349 C0.000140716612,14.7044638 0.763528339,17.4287375 2.26919609,19.7491544 C3.79491596,22.1012326 6.52939153,23.2945094 9.61812117,23.2945094 C12.234043,23.2945094 14.2311635,22.2690371 15.5626945,20.2430697 L16.6683752,22.9529199 L18.8223948,22.9529199 L18.8223948,11.1647375 L10.0360495,11.1647375 L10.0360495,14.2070306 Z" id="Fill-9"></path>
                        <polygon id="Fill-11" points="27.0924508 0.340112052 22.4280469 0.340112052 22.4280469 22.9529199 35.8112521 22.9529199 36.5500143 18.8746007 27.0924508 18.8746007"></polygon>
                        <path d="M54.2082254,2.36738111 C52.9192612,1.02213029 50.9277694,0.340006515 48.2886293,0.340006515 L39.4470528,0.340006515 L39.4470528,22.9528143 L44.1853329,22.9528143 L44.1853329,14.1742085 L48.7424404,14.1742085 C50.8707792,14.1742085 52.6543622,13.520228 54.043587,12.2302085 C55.4384404,10.9356156 56.1465967,9.22379805 56.1465967,7.14400651 C56.1465967,5.31609772 55.4943752,3.7094658 54.2082254,2.36738111 L54.2082254,2.36738111 Z M44.1853329,4.1122671 L47.5751961,4.1122671 C49.0696065,4.1122671 50.1077433,4.41515961 50.6586489,5.01214984 C51.2236261,5.62250814 51.4997824,6.33594137 51.4997824,7.19255375 C51.4997824,8.13957655 51.2042775,8.8769316 50.5981407,9.44261238 C49.9962254,10.0037199 49.0998606,10.2890228 47.9315609,10.2890228 L44.1853329,10.2890228 L44.1853329,4.1122671 Z" id="Fill-13"></path>
                    </g>
                </g>
            </g>
        </g>
    </g>
</svg>