<?xml version="1.0" encoding="UTF-8"?>
<svg width="12px" height="12px" viewBox="0 0 12 12" version="1.1" xmlns="http://www.w3.org/2000/svg" xmlns:xlink="http://www.w3.org/1999/xlink">
    <!-- Generator: Sketch 54.1 (76490) - https://sketchapp.com -->
    <title>资产汇总</title>
    <desc>Created with Sketch.</desc>
    <g id="Page-1" stroke="none" stroke-width="1" fill="none" fill-rule="evenodd">
        <g id="存量资产导入" transform="translate(-23.000000, -79.000000)" fill-rule="nonzero">
            <g id="资产汇总" transform="translate(22.000000, 78.000000)">
                <g id="编组">
                    <rect id="矩形" fill="#000000" opacity="0" x="0" y="0" width="14" height="14"></rect>
                    <path d="M12.5312383,10.0827271 L7.46876172,10.0827271 L7.46876172,12.0624766 L11.4765619,12.0624766 C11.7354519,12.0624766 11.9453236,12.2723483 11.9453236,12.5312383 C11.9453236,12.7901282 11.7354519,13 11.4765619,13 L2.3359334,13 C2.07704345,13 1.86717168,12.7901282 1.86717168,12.5312383 C1.86717168,12.2723483 2.07704345,12.0624766 2.3359334,12.0624766 L6.53123828,12.0624766 L6.53123828,10.0827271 L1.46876172,10.0827271 C1.34443838,10.0827271 1.225207,10.0333398 1.13729713,9.94542994 C1.04938725,9.85752006 1,9.73828869 1,9.61396535 L1,1.46876172 C1,1.34443838 1.04938725,1.225207 1.13729713,1.13729713 C1.225207,1.04938725 1.34443838,1 1.46876172,1 L12.5312383,1 C12.7901282,1 13,1.20987177 13,1.46876172 L13,9.61396535 C13,9.8728553 12.7901282,10.0827271 12.5312383,10.0827271 Z M12,2 L2,2 L2,9 L12,9 L12,2 Z M4.99991966,5.42898523 L4.99991966,7.56334116 C5.00315315,7.71840725 4.90858252,7.86289631 4.75257739,7.94124128 C4.59657227,8.01958624 4.40342773,8.01958624 4.24742261,7.94124128 C4.09141748,7.86289631 3.99684685,7.71840725 4.00008034,7.56334116 L4.00008034,5.42898523 C4.00008033,5.19211683 4.2238403,5.0000758 4.49992,5 C4.77606219,5 4.99991966,5.19206323 4.99991966,5.42898523 Z M7.5,3 C7.63260824,3 7.7597852,3.04300083 7.85355339,3.11954279 C7.94732158,3.19608475 8,3.29989793 8,3.40814461 L8,7.59185539 C8,7.81726744 7.77614237,8 7.5,8 C7.22385763,8 7,7.81726744 7,7.59185539 L7,3.40814461 C7,3.18271818 7.224,3 7.5,3 L7.5,3 Z M10.5,4 C10.77616,4 11,4.18961839 11,4.42339078 L11,7.57674466 C11,7.81050213 10.7761424,8 10.5,8 C10.2238576,8 10,7.81050213 10,7.57674466 L10,4.42339078 C9.99999999,4.18961139 10.2238317,4.00007479 10.5,4 L10.5,4 Z" id="形状" fill="#FFFFFF"></path>
                </g>
            </g>
        </g>
    </g>
</svg>