<?xml version="1.0" encoding="UTF-8"?>
<svg width="12px" height="13px" viewBox="0 0 12 13" version="1.1" xmlns="http://www.w3.org/2000/svg" xmlns:xlink="http://www.w3.org/1999/xlink">
    <!-- Generator: Sketch 54.1 (76490) - https://sketchapp.com -->
    <title>审核汇总</title>
    <desc>Created with Sketch.</desc>
    <g id="Page-1" stroke="none" stroke-width="1" fill="none" fill-rule="evenodd">
        <g id="存量资产导入" transform="translate(-23.000000, -114.000000)" fill="#FFFFFF" fill-rule="nonzero">
            <g id="审核汇总" transform="translate(22.000000, 113.000000)">
                <g id="编组">
                    <path d="M11.3387032,9.05142538 L9.60668533,9.05142538 C9.50709431,8.98166574 9.41327668,8.90173281 9.32811913,8.81307993 C8.97449882,8.44684181 8.9528486,8.13292342 8.96006534,8.01520402 L8.96150869,7.93381778 C8.96150869,7.8960313 9.01779927,7.72889883 9.15924739,7.4861934 C9.21265127,7.39463387 9.26894185,7.30452767 9.32811913,7.21587479 C9.45657712,7.0196758 9.5965819,6.82783678 9.74091672,6.64471772 C10.2460886,6.03868083 10.5232114,5.26696478 10.5232114,4.47344885 C10.5232114,2.61609838 9.03656279,1.0901062 7.13855991,1 L6.88020058,1 C4.9735376,1.0901062 3.47822886,2.61609838 3.47822886,4.47344885 C3.47967221,5.27132476 3.75968176,6.04594746 4.26629698,6.65634433 L4.29227725,6.68977082 C4.43083868,6.86707658 4.56218336,7.05019564 4.68775466,7.23767468 C4.94034059,7.62425936 5.04281832,7.88295137 5.03993162,7.9294578 L5.03993162,8.01229737 C5.04714836,8.12856344 5.02694149,8.43666853 4.69064136,8.79709335 L4.67043448,8.81743991 C4.59105033,8.90027949 4.49867604,8.98021241 4.39331163,9.0528787 L2.66706717,9.0528787 C1.51383196,9.05142538 1,9.50631638 1,10.5265511 L1,12.7966462 C1,13.1178312 1.12412795,13.420123 1.35073361,13.6482951 C1.57733928,13.8735606 1.87611236,14 2.19364896,14 L11.8092347,13.9796534 C12.4674015,13.9767468 12.999997,13.4404695 12.999997,12.7777529 L12.999997,10.5265511 C13.0014403,9.50631638 12.4890517,9.04997205 11.3387032,9.05142538 Z M2,12.6937322 L2,10.4700855 C2,10.2008547 2.03384572,10.0740741 2.12551121,10.0014245 C2.22422789,9.92450142 2.4047384,9.89316239 2.76575941,9.89316239 L4.71188831,9.89316239 L4.81624595,9.82478632 C5.00803836,9.7037037 5.18572839,9.55982906 5.34508532,9.3974359 C5.90636017,8.81339031 5.96417995,8.24501425 5.94866732,7.95441595 C5.95994923,7.65669516 5.81328445,7.2991453 5.4621351,6.75925926 C5.31358487,6.53370613 5.15500589,6.31505892 4.98688478,6.1039886 C4.62445353,5.66239316 4.42560993,5.10683761 4.42419969,4.53276353 C4.42419969,3.17948718 5.51431392,2.06695157 6.90480891,2 L7.11352419,2 C8.49555775,2.06695157 9.57721055,3.17806268 9.57721055,4.53133903 C9.57721055,5.10683761 9.37554647,5.66381766 9.01029474,6.10541311 C8.84952757,6.30911681 8.69581159,6.52136752 8.55337752,6.73789174 C8.48709632,6.83903134 8.42363559,6.94301994 8.36299535,7.04843305 C8.13735721,7.44159544 8.04428148,7.71225071 8.05274291,7.95441595 C8.03723029,8.24358974 8.09505006,8.81196581 8.65491468,9.3960114 C8.81427161,9.55982906 8.99196164,9.7037037 9.18375405,9.82621083 L9.29093217,9.89458689 L11.2441123,9.89458689 C11.935129,9.89458689 12,9.9957265 12,10.468661 L12,12.6737892 C12,12.7549858 11.9689748,12.8319088 11.911155,12.8903134 C11.8547455,12.9472934 11.7771823,12.980057 11.6967988,12.980057 L2.301791,13 C2.22140742,13 2.14384431,12.968661 2.08743478,12.9102564 C2.03243548,12.8547009 2.00141024,12.7763533 2,12.6937322 L2,12.6937322 Z" id="形状"></path>
                    <polygon id="路径" points="4 11 10 11 10 12 4 12"></polygon>
                </g>
            </g>
        </g>
    </g>
</svg>