<?xml version="1.0" encoding="UTF-8"?>
<svg width="14px" height="14px" viewBox="0 0 14 14" version="1.1" xmlns="http://www.w3.org/2000/svg" xmlns:xlink="http://www.w3.org/1999/xlink">
    <!-- Generator: Sketch 54.1 (76490) - https://sketchapp.com -->
    <title>项目分配</title>
    <desc>Created with Sketch.</desc>
    <g id="Page-1" stroke="none" stroke-width="1" fill="none" fill-rule="evenodd">
        <g id="存量资产导入" transform="translate(-22.000000, -222.000000)" fill-rule="nonzero">
            <g id="项目分配" transform="translate(22.000000, 222.000000)">
                <g id="编组">
                    <rect id="矩形" fill="#000000" opacity="0" x="0" y="0" width="14" height="14"></rect>
                    <path d="M12.2158203,0.909179688 L3.69824219,0.909179688 C3.21576172,0.909179688 2.82324219,1.30169922 2.82324219,1.78417969 L2.82324219,2.82324219 L1.78417969,2.82324219 C1.30169922,2.82324219 0.909179688,3.21576172 0.909179688,3.69824219 L0.909179688,12.2158203 C0.909179688,12.6983008 1.30169922,13.0908203 1.78417969,13.0908203 L10.3017578,13.0908203 C10.7842383,13.0908203 11.1767578,12.6983008 11.1767578,12.2158203 L11.1767578,11.1767578 L12.2158203,11.1767578 C12.6983008,11.1767578 13.0908203,10.7842383 13.0908203,10.3017578 L13.0908203,1.78417969 C13.0908203,1.30169922 12.6983008,0.909179688 12.2158203,0.909179688 Z M10.3017578,3.69824219 L10.3018945,5.81054688 L1.78417969,5.81054688 L1.78417969,3.69824219 L10.3017578,3.69824219 Z M10.3017578,12.2158203 L1.78417969,12.2158203 L1.78417969,6.68554688 L10.3019492,6.68554688 L10.3023047,12.2158203 C10.3023047,12.2158203 10.302127,12.2158203 10.3017578,12.2158203 Z M12.2158203,10.3017578 L11.1767578,10.3017578 L11.1767578,3.69824219 C11.1767578,3.21576172 10.7842383,2.82324219 10.3017578,2.82324219 L3.69824219,2.82324219 L3.69824219,1.78417969 L12.2158203,1.78417969 L12.2158203,10.3017578 Z" id="形状" fill="#FFFFFF"></path>
                </g>
            </g>
        </g>
    </g>
</svg>