<?xml version="1.0" encoding="UTF-8"?>
<svg width="14px" height="14px" viewBox="0 0 14 14" version="1.1" xmlns="http://www.w3.org/2000/svg" xmlns:xlink="http://www.w3.org/1999/xlink">
    <!-- Generator: Sketch 54.1 (76490) - https://sketchapp.com -->
    <title>展示</title>
    <desc>Created with Sketch.</desc>
    <g id="Page-1" stroke="none" stroke-width="1" fill="none" fill-rule="evenodd">
        <g id="存量资产导入" transform="translate(-22.000000, -294.000000)" fill-rule="nonzero">
            <g id="展示" transform="translate(22.000000, 294.000000)">
                <g id="编组-2">
                    <rect id="矩形" fill="#000000" opacity="0" x="0" y="0" width="14" height="14"></rect>
                    <path d="M12.36,9.61333334 C12.1533333,9.61333334 11.985,9.44500001 11.985,9.23833333 L11.985,1.71833334 L2.03166667,1.71833334 L2.03166667,9.23833333 C2.03166667,9.44499999 1.86333334,9.61333332 1.65666667,9.61333334 C1.45000001,9.61333336 1.28166668,9.44500001 1.28166666,9.23833333 L1.28166666,1.34333334 C1.28166666,1.13666668 1.44999999,0.968333348 1.65666667,0.96833333 L12.36,0.96833333 C12.5666667,0.96833333 12.735,1.13666666 12.735,1.34333334 L12.735,9.23833333 C12.735,9.44499999 12.5666667,9.61333332 12.36,9.61333334 L12.36,9.61333334 Z M13.375,10.8033333 L0.624999994,10.8033333 C0.418333328,10.8033333 0.25,10.635 0.25,10.4283333 C0.25,10.2216667 0.418333328,10.0533333 0.624999994,10.0533333 L13.375,10.0533333 C13.5816667,10.0533333 13.75,10.2216667 13.75,10.4283333 C13.75,10.635 13.5816667,10.8033333 13.375,10.8033333 Z M4.175,9.06833333 C3.96833334,9.06833333 3.80000001,8.9 3.80000001,8.69333334 L3.80000001,6.425 C3.80000001,6.21833334 3.96833334,6.05000001 4.175,6.05000001 C4.38166667,6.05000001 4.55,6.21833334 4.55,6.425 L4.55,8.69333334 C4.55,8.9 4.38166667,9.06833333 4.175,9.06833333 L4.175,9.06833333 Z M7.00833333,9.06833333 C6.80166667,9.06833333 6.63333334,8.9 6.63333334,8.69333334 L6.63333334,3.02166667 C6.63333334,2.815 6.80166667,2.64666667 7.00833333,2.64666667 C7.215,2.64666667 7.38333333,2.815 7.38333333,3.02166667 L7.38333333,8.69333334 C7.38333333,8.9 7.215,9.06833333 7.00833333,9.06833333 L7.00833333,9.06833333 Z M9.84166666,9.06833333 C9.635,9.06833333 9.46666667,8.9 9.46666667,8.69333334 L9.46666667,5.09166667 C9.46666667,4.885 9.635,4.71666667 9.84166666,4.71666667 C10.0483333,4.71666667 10.2166667,4.885 10.2166667,5.09166667 L10.2166667,8.69333334 C10.2166667,8.9 10.0483333,9.06833333 9.84166666,9.06833333 L9.84166666,9.06833333 Z M3.93666666,13.75 C3.86666666,13.75 3.795,13.73 3.73166666,13.6883333 C3.55833333,13.575 3.51,13.3416667 3.62333333,13.1683333 L5.55333334,10.225 C5.66666666,10.0516667 5.9,10.0033333 6.07333333,10.1166667 C6.24666667,10.23 6.29499999,10.4633333 6.18166667,10.6366667 L4.25000001,13.58 C4.17833334,13.69 4.05833334,13.75 3.93666666,13.75 L3.93666666,13.75 Z M10.0716667,13.75 C9.95000001,13.75 9.83000001,13.69 9.75833334,13.58 L7.82833333,10.6366667 C7.71500001,10.4633333 7.76333333,10.2316667 7.93666667,10.1166667 C8.11000001,10.0033333 8.34166667,10.0516667 8.45666666,10.225 L10.3866667,13.1683333 C10.5,13.3416667 10.4516667,13.5733333 10.2783333,13.6883333 C10.2133333,13.73 10.1416667,13.75 10.0716667,13.75 L10.0716667,13.75 Z M7,1.71333333 C6.79333333,1.71333333 6.62500001,1.545 6.62500001,1.33833333 L6.62500001,0.624999994 C6.62500001,0.418333328 6.79333333,0.25 7,0.25 C7.20666667,0.25 7.37499999,0.418333328 7.37499999,0.624999994 L7.37499999,1.33833333 C7.37499999,1.545 7.20666667,1.71333333 7,1.71333333 L7,1.71333333 Z M7,13.75 C6.79333333,13.75 6.62500001,13.5816667 6.62500001,13.375 L6.62500001,10.4416667 C6.62500001,10.235 6.79333333,10.0666667 7,10.0666667 C7.20666667,10.0666666 7.37499999,10.235 7.37499999,10.4416667 L7.37499999,13.375 C7.37499999,13.5816667 7.20666667,13.75 7,13.75 Z" id="形状" fill="#FFFFFF"></path>
                </g>
            </g>
        </g>
    </g>
</svg>