<?xml version="1.0" encoding="UTF-8"?>
<svg width="14px" height="14px" viewBox="0 0 14 14" version="1.1" xmlns="http://www.w3.org/2000/svg" xmlns:xlink="http://www.w3.org/1999/xlink">
    <!-- Generator: Sketch 54.1 (76490) - https://sketchapp.com -->
    <title>存量资产导入</title>
    <desc>Created with Sketch.</desc>
    <g id="Page-1" stroke="none" stroke-width="1" fill="none" fill-rule="evenodd">
        <g id="存量资产导入" transform="translate(-22.000000, -150.000000)" fill-rule="nonzero">
            <g transform="translate(22.000000, 150.000000)" id="编组">
                <g>
                    <rect id="矩形" fill="#000000" opacity="0" x="0" y="0" width="14" height="14"></rect>
                    <path d="M7.217,13.804 L1.246,13.804 C1.05,13.804 0.896,13.65 0.896,13.454 L0.896,3.255 C0.896,3.059 1.05,2.905 1.246,2.905 L12.852,2.905 C13.048,2.905 13.202,3.059 13.202,3.255 L13.202,7.707 C13.202,7.903 13.048,8.057 12.852,8.057 C12.656,8.057 12.502,7.903 12.502,7.707 L12.502,3.605 L1.596,3.605 L1.596,13.104 L7.217,13.104 C7.413,13.104 7.567,13.258 7.567,13.454 C7.567,13.65 7.413,13.804 7.217,13.804 Z" id="路径" fill="#FFFFFF"></path>
                    <path d="M12.852,3.605 L1.246,3.605 C1.113,3.605 0.994,3.535 0.938,3.416 C0.882,3.297 0.889,3.164 0.959,3.052 L2.73,0.504 C2.793,0.406 2.905,0.35 3.017,0.35 L10.969,0.35 C11.081,0.35 11.186,0.406 11.249,0.49 L13.132,3.045 C13.209,3.15 13.223,3.29 13.16,3.409 C13.097,3.528 12.985,3.605 12.852,3.605 Z M1.911,2.905 L12.159,2.905 L10.794,1.05 L3.199,1.05 L1.911,2.905 Z M9.205,6.531 L4.431,6.531 C4.235,6.531 4.081,6.377 4.081,6.181 C4.081,5.985 4.235,5.831 4.431,5.831 L9.205,5.831 C9.401,5.831 9.555,5.985 9.555,6.181 C9.555,6.377 9.401,6.531 9.205,6.531 Z M12.817,10.164 L10.927,10.164 C10.731,10.164 10.577,10.01 10.577,9.814 C10.577,9.618 10.731,9.464 10.927,9.464 L12.817,9.464 C13.013,9.464 13.167,9.618 13.167,9.814 C13.167,10.01 13.013,10.164 12.817,10.164 Z M12.817,11.97 L10.101,11.97 C9.905,11.97 9.751,11.816 9.751,11.62 C9.751,11.424 9.905,11.27 10.101,11.27 L12.817,11.27 C13.013,11.27 13.167,11.424 13.167,11.62 C13.167,11.816 13.013,11.97 12.817,11.97 Z M12.817,13.783 L9.114,13.783 C8.918,13.783 8.764,13.629 8.764,13.433 C8.764,13.237 8.918,13.083 9.114,13.083 L12.817,13.083 C13.013,13.083 13.167,13.237 13.167,13.433 C13.167,13.629 13.013,13.783 12.817,13.783 Z" id="形状" fill="#FFFFFF"></path>
                </g>
            </g>
        </g>
    </g>
</svg>