<?xml version="1.0" encoding="UTF-8"?>
<svg width="14px" height="12px" viewBox="0 0 14 12" version="1.1" xmlns="http://www.w3.org/2000/svg" xmlns:xlink="http://www.w3.org/1999/xlink">
    <!-- Generator: Sketch 54.1 (76490) - https://sketchapp.com -->
    <title>类型配置</title>
    <desc>Created with Sketch.</desc>
    <g id="Page-1" stroke="none" stroke-width="1" fill="none" fill-rule="evenodd">
        <g id="存量资产导入" transform="translate(-22.000000, -187.000000)" fill-rule="nonzero">
            <g id="类型配置" transform="translate(22.000000, 186.000000)">
                <g id="编组">
                    <rect id="矩形" fill="#000000" opacity="0" x="0" y="0" width="14" height="14"></rect>
                    <path d="M6.88271543,5.09596287 L12.7851298,5.09596287 C12.9906051,5.09596287 13.1578947,5.26238135 13.1578947,5.46678665 C13.1578947,5.67119195 12.9906051,5.83761043 12.7851298,5.83761043 L6.88271543,5.83761043 C6.67724013,5.83761043 6.5099505,5.67119195 6.5099505,5.46678665 C6.5099505,5.26238135 6.67724013,5.09596287 6.88271543,5.09596287 Z M6.88271543,8.05893531 L12.7851298,8.05893531 C12.9906051,8.05893531 13.1578947,8.22535379 13.1578947,8.42975909 C13.1578947,8.63416439 12.9906051,8.80058287 12.7851298,8.80058287 L6.88271543,8.80058287 C6.67724013,8.80058287 6.5099505,8.63416439 6.5099505,8.42975909 C6.5099505,8.22354489 6.67724013,8.05893531 6.88271543,8.05893531 Z M6.88271543,11.0200988 L12.7851298,11.0200988 C12.9906051,11.0200988 13.1578947,11.1865173 13.1578947,11.3909226 C13.1578947,11.5953279 12.9906051,11.7617464 12.7851298,11.7617464 L6.88271543,11.7617464 C6.67724013,11.7617464 6.5099505,11.5953279 6.5099505,11.3909226 C6.5099505,11.1865173 6.67724013,11.0200988 6.88271543,11.0200988 Z M4.96433983,6.23556766 L1.24214567,6.23556766 C1.02030508,6.23556766 0.842105263,6.0564869 0.842105263,5.83761043 L0.842105263,2.13479933 C0.842105263,1.91592286 1.02030508,1.73684211 1.24214567,1.73684211 L4.96433983,1.73684211 C5.18618042,1.73684211 5.36438024,1.91592286 5.36438024,2.13479933 L5.36438024,5.83580153 C5.36438024,6.0564869 5.18618042,6.23556766 4.96433983,6.23556766 L4.96433983,6.23556766 Z M1.64218608,5.4396532 L4.56429942,5.4396532 L4.56429942,2.53275656 L1.64218608,2.53275656 L1.64218608,5.4396532 Z M4.96433983,12.1578947 L1.24214567,12.1578947 C1.02030508,12.1578947 0.842105263,11.978814 0.842105263,11.7599375 L0.842105263,8.05893531 C0.842105263,7.84005883 1.02030508,7.66097808 1.24214567,7.66097808 L4.96433983,7.66097808 C5.18618042,7.66097808 5.36438024,7.84005883 5.36438024,8.05893531 L5.36438024,11.7617464 C5.36438024,11.9806229 5.18618042,12.1578947 4.96433983,12.1578947 L4.96433983,12.1578947 Z M1.64218608,11.3619803 L4.56429942,11.3619803 L4.56429942,8.45689254 L1.64218608,8.45689254 L1.64218608,11.3619803 Z M6.88271543,2.13479933 L12.7851298,2.13479933 C12.9906051,2.13479933 13.1578947,2.30121781 13.1578947,2.50562311 C13.1578947,2.71002841 12.9906051,2.87644689 12.7851298,2.87644689 L6.88271543,2.87644689 C6.67724013,2.87644689 6.5099505,2.71002841 6.5099505,2.50562311 C6.5099505,2.30121781 6.67724013,2.13479933 6.88271543,2.13479933 Z" id="形状" fill="#FFFFFF"></path>
                </g>
            </g>
        </g>
    </g>
</svg>