<?xml version="1.0" encoding="UTF-8"?>
<svg width="14px" height="13px" viewBox="0 0 14 13" version="1.1" xmlns="http://www.w3.org/2000/svg" xmlns:xlink="http://www.w3.org/1999/xlink">
    <!-- Generator: Sketch 55 (78076) - https://sketchapp.com -->
    <title>关注我们</title>
    <desc>Created with Sketch.</desc>
    <g id="Page-1" stroke="none" stroke-width="1" fill="none" fill-rule="evenodd">
        <g id="Page"></g>
        <g id="工作台-对外" transform="translate(-1073.000000, -17.000000)" fill-rule="nonzero">
            <g id="导航栏" transform="translate(200.000000, 0.000000)">
                <g id="关注我们" transform="translate(873.000000, 14.000000)">
                    <g transform="translate(0.000000, 3.000000)">
                        <rect id="矩形" fill="#000000" opacity="0" x="0" y="0" width="14" height="14"></rect>
                        <path d="M6.5849207,11.2411156 L3.72877981,12.7427586 C3.51459091,12.8554004 3.25502058,12.8366404 3.05925508,12.6943697 C2.86348959,12.5520991 2.76549844,12.3110049 2.80650086,12.0725015 L3.35217728,8.89219637 C3.38752833,8.68604389 3.31919455,8.47569467 3.16943766,8.32967613 L0.858655354,6.07737051 C0.685290766,5.90852409 0.622847556,5.65588074 0.697591722,5.42571189 C0.772335888,5.19554303 0.971297874,5.02778742 1.21078667,4.99300945 L4.40412191,4.52900972 C4.61115779,4.49894466 4.79014143,4.368926 4.88274083,4.18132772 L6.31097018,1.28768547 C6.41804194,1.0707172 6.63900934,0.933353336 6.88095891,0.933353336 C7.12290847,0.933353336 7.34387588,1.0707172 7.45094763,1.28768547 L8.87885917,4.18132772 C8.97145857,4.368926 9.15044221,4.49894466 9.35747809,4.52900972 L12.5508133,4.99300945 C12.7903021,5.02778742 12.9892641,5.19554303 13.0640083,5.42571189 C13.1387524,5.65588074 13.0763092,5.90852409 12.9029446,6.07737051 L10.5924802,8.32967613 C10.4426078,8.47563243 10.3741524,8.68599024 10.4094227,8.89219637 L10.9550991,12.0725015 C10.9961016,12.3110049 10.8981104,12.5520991 10.7023449,12.6943697 C10.5065794,12.8366404 10.2470091,12.8554004 10.0328202,12.7427586 L7.1766793,11.2411156 C6.99145511,11.1436951 6.77014489,11.1436951 6.5849207,11.2411156 Z M6.95929859,3.73576084 C6.87689001,3.70633989 6.78599696,3.71219837 6.7080472,3.75195516 C6.63009745,3.79171194 6.5719885,3.86184908 6.54741937,3.94583196 C6.47178105,4.2042099 6.41934272,4.36311392 6.39042218,4.42222621 C6.27029074,4.66566718 6.04146895,4.93071909 5.90004438,5.09915735 C5.72620337,5.3063682 5.53806102,5.43539825 5.33561729,5.48688316 C5.26103758,5.50585416 5.19859671,5.55670569 5.16491827,5.62589958 C5.13123983,5.69509347 5.12974175,5.77560742 5.16082286,5.84600626 L5.19292147,5.91973771 C5.26213179,6.07655213 5.44322993,6.1502287 5.60225824,6.08626914 C5.89654848,5.96804455 6.11011549,5.83011586 6.24264144,5.67248307 C6.35895918,5.53360096 6.72412063,5.23072988 6.97296433,4.79660408 C7.01364375,4.72541509 7.09055331,4.50866999 7.20273954,4.14605103 C7.25321695,3.98346607 7.16661454,3.80998097 7.00633417,3.75260466 L6.95929859,3.73576084 Z M4.17974943,6.75175919 C4.35006225,6.7517592 4.5074378,6.66089839 4.59259421,6.51340316 C4.67775063,6.36590793 4.67775063,6.18418631 4.59259421,6.03669108 C4.5074378,5.88919585 4.35006225,5.79833504 4.17974943,5.79833505 C3.91646862,5.79833505 3.70303736,6.01176631 3.70303736,6.27504712 C3.70303736,6.53832792 3.91646862,6.75175919 4.17974943,6.75175919 L4.17974943,6.75175919 Z" id="形状" fill="#FF902A"></path>
                    </g>
                </g>
            </g>
        </g>
    </g>
</svg>