<?xml version="1.0" encoding="UTF-8"?>
<svg width="13px" height="14px" viewBox="0 0 13 14" version="1.1" xmlns="http://www.w3.org/2000/svg" xmlns:xlink="http://www.w3.org/1999/xlink">
    <!-- Generator: Sketch 55 (78076) - https://sketchapp.com -->
    <title>资产管理</title>
    <desc>Created with Sketch.</desc>
    <g id="页面1" stroke="none" stroke-width="1" fill="none" fill-rule="evenodd">
        <g id="工作台-上线动态列表备份" transform="translate(-3.000000, -251.000000)" fill-rule="nonzero">
            <g id="资产管理" transform="translate(2.000000, 251.000000)">
                <rect id="矩形" fill="#000000" opacity="0" x="0" y="0" width="14" height="14"></rect>
                <path d="M6.74322326,6.85344074 C9.86610092,6.85344074 12.4864465,5.45353007 12.4864465,3.67313085 C12.4864466,1.89273163 9.93789121,0.5 6.74322326,0.5 C3.54855532,0.5 1,1.93580582 1,3.67313085 C1,5.41045588 3.5916295,6.85344073 6.74322326,6.85344074 L6.74322326,6.85344074 Z M7.89186793,12.0797739 C8.11313754,12.5195966 8.4324303,12.9027479 8.82514171,13.1997025 C8.3074398,13.3095201 7.78161269,13.3767491 7.25293434,13.4007153 L6.22633317,13.4007153 C3.31164737,13.2571347 1.04307418,11.9146563 1.04307418,10.2419425 L1.04307418,8.97125431 C1.04307418,10.7444745 3.57727144,12.1372061 6.74322326,12.1443852 C7.12702832,12.1449396 7.51054616,12.1233667 7.89186793,12.0797739 Z M6.74322326,9.01432849 C3.63470368,9.01432849 1.14358058,7.67902908 1,5.96324114 L1,4.54179337 C1.04307418,6.28629744 3.57727143,7.7292823 6.74322326,7.72210326 C9.9091751,7.71492422 12.4433724,6.31501355 12.4864465,4.54179337 L12.4864465,5.97759919 C12.407774,6.63143373 12.0588944,7.22244629 11.5244566,7.60723879 C11.2597596,7.53592848 10.9873156,7.49735233 10.7132263,7.49237433 C9.63527197,7.48739204 8.62783266,8.02757397 8.03544851,8.92818015 C7.60682521,8.98279559 7.17530327,9.01156371 6.74322326,9.01432849 Z M7.54727452,9.91170712 L7.63342288,9.9547813 C7.57260675,10.1894572 7.53888462,10.4303296 7.53291647,10.6726842 C7.53745695,10.8486668 7.55666762,11.0239642 7.5903487,11.1967533 L6.17607997,11.1967533 C3.28293126,11.0388147 1.04307418,9.70351528 1.04307418,8.03798054 L1.04307418,6.76729238 C1.04307418,8.39693199 3.15370872,9.69633626 5.93917202,9.91170712 L7.54727452,9.91170712 Z M12.4361933,6.76729238 L12.4361933,7.96619025 C12.3372003,7.90414032 12.2340576,7.84897097 12.1274951,7.80107258 C12.3265172,7.49280431 12.4335958,7.13421521 12.4361933,6.76729238 Z M10.7491215,8.10977083 C12.1538509,8.10976526 13.2937198,9.24642328 13.2976768,10.6511471 C13.3005823,11.6825899 12.6814923,12.6140866 11.7293961,13.0108175 C10.7772999,13.4075485 9.67994541,13.1912805 8.9495744,12.4629669 C8.21920339,11.7346532 7.99984078,10.6379132 8.39388438,9.68470164 C8.78792797,8.73149013 9.71767467,8.10977492 10.7491215,8.10977083 Z M12.0915999,10.1486151 C12.1486679,10.0913903 12.1642419,10.004763 12.1306791,9.93124443 C12.0971163,9.85772589 12.0214611,9.81274668 11.9408403,9.81837975 L9.55022364,9.81837975 C9.47092388,9.81594293 9.39814473,9.86207773 9.36651092,9.93483549 C9.33487711,10.0075933 9.35077576,10.0922836 9.40664306,10.1486151 L10.3327378,11.1680372 L10.3327378,11.842866 L11.1655052,12.101311 L11.1655052,11.1752162 L12.0915999,10.1486151 Z" id="形状" fill="#FFFFFF"></path>
            </g>
        </g>
    </g>
</svg>