<?xml version="1.0" standalone="no"?><!DOCTYPE svg PUBLIC "-//W3C//DTD SVG 1.1//EN" "http://www.w3.org/Graphics/SVG/1.1/DTD/svg11.dtd"><svg t="1590644484467" class="icon" viewBox="0 0 1024 1024" version="1.1" xmlns="http://www.w3.org/2000/svg" p-id="1900" xmlns:xlink="http://www.w3.org/1999/xlink" width="32" height="32"><defs><style type="text/css"></style></defs><path d="M919.3 430.5c-4.5-23.9-18.8-39.2-36.2-38.8h-3.6C819.7 391.7 771 343 771 283.2c0-19.7 9.4-41.3 9.4-41.5 9.2-20.8 2.1-46.3-16.5-59.3l-1-0.7-104.3-57.9-1.1-0.5c-6.2-2.7-13-4-20.2-4-14.8 0-29.4 5.9-39 15.8-12.7 13.1-52.9 47.3-85.3 47.3-32.7 0-73.1-34.8-85.9-48.2-9.6-10.1-24.3-16.1-39.3-16.1-7.1 0-13.7 1.3-19.8 3.9l-1.1 0.5-108 59.3-1.1 0.7c-18.7 13-25.8 38.5-16.6 59.3 0.1 0.2 9.5 21.8 9.5 41.5 0 59.8-48.7 108.5-108.5 108.5h-3.6c-17.4-0.4-31.7 14.9-36.2 38.8-0.4 1.9-8.7 46.6-8.7 81.8 0 35.2 8.4 79.9 8.7 81.8 4.5 23.6 18.4 38.8 35.5 38.8h4.3c59.8 0 108.5 48.7 108.5 108.5 0 19.7-9.4 41.3-9.4 41.5-9.2 20.8-2.1 46.3 16.5 59.3l1 0.7 102.4 57 1.1 0.5c6.2 2.7 12.9 4.1 20.1 4.1 15 0 29.7-6.2 39.2-16.5 12-13 53.8-50.3 87.2-50.3 33.7 0 74.8 37 87.8 51.2 9.5 10.5 24.3 16.8 39.4 16.8 7 0 13.6-1.3 19.7-3.9l1.1-0.5 106.1-58.6 1-0.7c18.7-13 25.8-38.5 16.6-59.3-0.1-0.2-9.5-21.8-9.5-41.5 0-59.8 48.7-108.5 108.5-108.5h3.6c17.4 0.4 31.7-14.9 36.2-38.8 0.4-1.9 8.7-46.6 8.7-81.8 0-35.1-8.4-79.8-8.7-81.7zM509.1 686.2c-96.2 0-174.4-78.3-174.4-174.4 0-96.2 78.3-174.4 174.4-174.4 96.2 0 174.4 78.3 174.4 174.4 0 96.1-78.2 174.4-174.4 174.4z" fill="" p-id="1901"></path><path d="M509.1 397.3c-63.1 0-114.4 51.3-114.4 114.4 0 63.1 51.3 114.4 114.4 114.4 63.1 0 114.4-51.3 114.4-114.4 0-63-51.3-114.4-114.4-114.4z" fill="" p-id="1902"></path></svg>