<?xml version="1.0" encoding="UTF-8"?>
<svg width="13px" height="13px" viewBox="0 0 13 13" version="1.1" xmlns="http://www.w3.org/2000/svg" xmlns:xlink="http://www.w3.org/1999/xlink">
    <!-- Generator: Sketch 55 (78076) - https://sketchapp.com -->
    <title>合同管理</title>
    <desc>Created with Sketch.</desc>
    <g id="页面1" stroke="none" stroke-width="1" fill="none" fill-rule="evenodd">
        <g id="工作台-上线动态列表备份" transform="translate(-3.000000, -275.000000)" fill-rule="nonzero">
            <g id="合同管理" transform="translate(2.000000, 275.000000)">
                <rect id="矩形" fill="#000000" opacity="0" x="0" y="0" width="14" height="14"></rect>
                <path d="M6.7426577,10.66 C6.7426577,10.1573333 7.18804534,9.75 7.73767265,9.75 L8.54316094,9.75 C9.12121724,9.47266667 9.15912257,8.72733333 9.14016991,8.346 C8.51473194,7.904 8.13567862,7.21933333 8.13567862,6.49133333 C8.13567862,5.2 9.2823149,4.22933333 10.7037648,4.22933333 C10.7795755,4.22933333 10.8648625,4.22933333 10.9406731,4.238 L10.9406731,1.482 C10.9406731,1.02266667 10.5331908,0.65 10.0309452,0.65 L1.90972795,0.65 C1.40748231,0.65 1,1.02266667 1,1.482 L1,11.6306667 C1,12.09 1.40748231,12.4626667 1.90972795,12.4626667 L6.7426577,12.4626667 L6.7426577,10.66 Z M3.14917389,2.63466667 L8.02000897,2.63466667 C8.25691729,2.63466667 8.44644395,2.808 8.44644395,3.02466667 C8.44644395,3.24133333 8.25691729,3.41466667 8.02000897,3.41466667 L3.14917389,3.41466667 C2.91226557,3.41466667 2.72273891,3.24133333 2.72273891,3.02466667 C2.72273891,2.808 2.91226557,2.63466667 3.14917389,2.63466667 Z M5.20553812,7.42733333 L3.14917389,7.42733333 C2.91226557,7.42733333 2.72273891,7.254 2.72273891,7.02866667 C2.72273891,6.812 2.91226557,6.63866667 3.14917389,6.63 L5.20553812,6.63 C5.44244644,6.63 5.63197309,6.80333333 5.63197309,7.02866667 C5.63197309,7.24533333 5.44244644,7.42733333 5.20553812,7.42733333 Z M6.31426906,5.41666667 L3.14917389,5.41666667 C2.91226557,5.41666667 2.72273891,5.24333333 2.72273891,5.02666667 C2.72273891,4.81 2.91226557,4.63666667 3.14917389,4.63666667 L6.31426906,4.63666667 C6.55117738,4.63666667 6.74070404,4.81 6.74070404,5.02666667 C6.74070404,5.24333333 6.55117738,5.41666667 6.31426906,5.41666667 Z M7.58566775,12.5965009 C7.4781759,12.5965009 7.4,12.5160673 7.4,12.4266967 L7.4,10.8090889 C7.4,10.7107812 7.48794788,10.6392848 7.58566775,10.6392848 L8.43583062,10.6392848 L8.50423453,10.6124736 C9.99934853,10.0583759 9.82345277,8.33352333 9.77459283,7.99391505 L9.74527687,7.81517385 L9.57915309,7.72580326 C9.09055375,7.45769146 8.78762215,6.97509023 8.78762215,6.46567782 C8.78762215,5.65240537 9.51074919,5 10.390228,5 L10.5074919,5 C11.2013029,5.0446853 11.7973941,5.50941241 11.9537459,6.1350066 C12.1003257,6.73378961 11.8364821,7.35044674 11.2892508,7.69005502 L11.132899,7.77942561 L11.113355,7.94922975 C11.0449511,8.44076804 10.9276873,10.07625 12.3739414,10.6124736 L12.4521173,10.6392848 L13.2143322,10.6392848 C13.3218241,10.6392848 13.4,10.7197183 13.4,10.8090889 L13.4,12.4088226 C13.4,12.5786268 13.3315961,12.5965009 13.2436482,12.5965009 L7.58566775,12.5965009 Z" id="形状" fill="#FFFFFF"></path>
            </g>
        </g>
    </g>
</svg>