<?xml version="1.0" encoding="UTF-8"?>
<svg width="14px" height="13px" viewBox="0 0 14 13" version="1.1" xmlns="http://www.w3.org/2000/svg" xmlns:xlink="http://www.w3.org/1999/xlink">
    <!-- Generator: Sketch 55 (78076) - https://sketchapp.com -->
    <title>融资产品配置</title>
    <desc>Created with Sketch.</desc>
    <g id="页面1" stroke="none" stroke-width="1" fill="none" fill-rule="evenodd">
        <g id="工作台-上线动态列表备份" transform="translate(-2.000000, -204.000000)" fill-rule="nonzero">
            <g id="融资产品配置" transform="translate(2.000000, 203.000000)">
                <rect id="矩形" fill="#000000" opacity="0" x="0" y="0" width="14" height="14"></rect>
                <path d="M9.92581704,5.2700663 C10.6817524,5.2700663 11.2948034,4.65991157 11.2948034,3.90719432 C11.2948034,3.15447708 10.6820742,2.54432235 9.92581704,2.54432235 C9.16988168,2.54432235 8.55683065,3.15447708 8.55683065,3.90719432 C8.55683065,4.65991157 9.16988168,5.2700663 9.92581704,5.2700663 Z M9.92581704,2.94175963 C10.4613115,2.94175963 10.8954353,3.37395256 10.8954353,3.90719432 C10.8954353,4.44043609 10.4613115,4.87262902 9.92581704,4.87262902 C9.39032259,4.87262902 8.95619879,4.44043609 8.95619879,3.90719432 C8.95619879,3.37395256 9.39032259,2.94175963 9.92581704,2.94175963 Z M13.8329313,7.82557195 C13.8329313,7.82557195 13.3054821,7.28621576 12.4356254,7.57005357 C12.4356254,7.57005357 9.59789106,8.3082893 8.72803441,8.81932606 C8.72803441,8.81932606 9.11807002,9.31234138 9.10970293,9.94695379 C9.10745024,10.1233065 9.06851105,10.3778595 9.01090678,10.5075495 C8.94107367,10.6649154 8.80205108,10.8782765 8.49987002,11.0626745 C8.49987002,11.0626745 6.43223071,12.4162139 3.96522325,10.3527582 C3.96522325,10.3527582 3.88541398,10.1596712 4.05082512,10.2391587 C4.05082512,10.2391587 5.34547304,10.7788367 6.84575856,10.8071561 C6.84575856,10.8071561 7.83243282,10.8641168 8.15778432,10.5233183 C8.15778432,10.5233183 8.63342182,10.0702076 8.16164605,9.52924238 C7.92221824,9.2544153 7.90033507,9.29174544 7.61038285,9.25473712 C7.42308852,9.23092307 7.18172983,9.19166205 6.96000167,9.16044633 C6.51525809,9.09801488 5.49833353,8.52165038 5.04908459,7.99613208 C5.04908459,7.99613208 4.57151623,7.42105481 3.45193379,7.37149582 C3.45193379,7.37149582 2.79736907,7.31968417 2.23870419,7.46610842 C2.07618935,7.50858756 1.70642787,7.64503566 1.51205368,7.71068522 C1.15291197,7.83200818 0.579765577,8.05824171 0.00114838679,8.42221059 C0.00114838679,8.42221059 -0.0702937752,11.6309937 0.913805988,12.0567504 C0.913805988,12.0567504 3.2237694,12.2839494 3.73705885,12.4825071 C3.73705885,12.4825071 6.73151547,13.6893005 7.35904802,13.6751408 C7.35904802,13.6751408 7.82953653,13.7317796 8.49987002,13.2777035 C8.49987002,13.2777035 11.5940882,10.849957 13.0058756,9.41596471 C13.0058756,9.41596471 13.6334081,8.83380758 13.8615725,8.53581007 C14.0897369,8.23716894 14.004135,8.03861121 13.8329313,7.82557195 Z M6.16158716,6.63293829 C6.16158716,7.38565555 6.77431638,7.99581027 7.53057355,7.99581027 C8.28683073,7.99581027 8.89955995,7.38565553 8.89955995,6.63293829 C8.89955995,5.88022103 8.28683073,5.27006631 7.53057355,5.27006631 C6.77431638,5.27006631 6.16158716,5.88022103 6.16158716,6.63293829 Z M7.53025174,5.6675036 C8.06574619,5.6675036 8.49987,6.09969653 8.49987,6.63293829 C8.49987,7.16618005 8.06574619,7.59837299 7.53025174,7.59837299 C6.99475729,7.59837299 6.56063349,7.16618005 6.56063349,6.63293829 C6.56063349,6.09969653 6.99475729,5.6675036 7.53025174,5.6675036 Z M5.8761403,3.90719432 C6.63207566,3.90719432 7.24512669,3.29703959 7.24512669,2.54432235 C7.24512669,1.7916051 6.63239747,1.18112855 5.8761403,1.18112855 C5.11988312,1.18112855 4.5071539,1.79128328 4.5071539,2.54400052 C4.5071539,3.29671777 5.12020493,3.90719432 5.8761403,3.90719432 Z" id="形状" fill="#FFFFFF"></path>
            </g>
        </g>
    </g>
</svg>