<?xml version="1.0" encoding="utf-8"?>
<!-- Generator: Adobe Illustrator 21.0.0, SVG Export Plug-In . SVG Version: 6.00 Build 0)  -->
<svg version="1.0" id="图层_1" xmlns="http://www.w3.org/2000/svg" xmlns:xlink="http://www.w3.org/1999/xlink" x="0px" y="0px"
	 viewBox="0 0 75 28" style="enable-background:new 0 0 75 28;" xml:space="preserve">
<style type="text/css">
	.st0{fill:#00437C;}
	.st1{fill:#231815;}
</style>
<title>编组 2</title>
<desc>Created with Sketch.</desc>
<g>
	<g>
		<path class="st0" d="M15.4,25.6c0.1,0,0.1,0,0.2,0c0,0,0,0,0,0.1c-0.3,0.2-0.7,0.4-0.9,0.7h-0.1c0,0,0,0,0,0.1
			c0.5-0.1,1.6-0.9,1.9-1.3c0.1,0,0.1,0,0.2,0c0,0,0,0.1-0.1,0.2c-0.1,0-0.1,0.2-0.1,0.2c0.2,0,0.3,0,0.3-0.1c0-0.1,0-0.2,0.1-0.3
			c0-0.1,0.1-0.1,0.1-0.2c0.2-0.2,0.3-0.1,0.4-0.2c0.2-0.1,0.6-0.5,0.8-0.6c0.3-0.2,0.2,0,0.4-0.2c0.5-0.4,0.9-0.8,0.9-0.8
			c0.2-0.1,0.2,0,0.4-0.2c0,0,0.2-0.3,0.4-0.4c0.3-0.2,0.5-0.2,0.8-0.4c0.1-0.1,0.1-0.1,0.2-0.2c0.1,0,0.1-0.1,0.2-0.1
			c0,0,0.1,0,0.1-0.1c0,0,0.2-0.1,0.3-0.2c0,0,0.1,0,0.1,0c0.1,0,0.1,0,0.2-0.1c0.1-0.1,0.2-0.1,0.3-0.2c0,0,0.2-0.1,0.2-0.1
			c0.1,0,0.2-0.1,0.3-0.1c0,0,0.1,0,0.3-0.1c0.2,0,0.2-0.1,0.2-0.1l-0.1,0c0,0,0,0-0.1,0.1c-0.1,0-0.1,0-0.1,0c0,0-0.2,0-0.2,0
			C22.9,21,23,21,22.9,21c-0.1,0.1-0.2,0.1-0.2,0.1c0,0-0.2,0.1-0.3,0.1c-0.1,0-0.1,0.1-0.2,0.1c-0.1,0.1-0.2,0.1-0.3,0.2
			c-0.1,0-0.1,0.1-0.2,0.1c-0.4,0.2-0.9,0.6-1,0.5c0,0,0,0-0.1,0c0.2-0.3,0.5-0.4,0.8-0.5c0.5-0.3,1.9-1.3,2.6-1.2
			c0.2,0,0.4,0,0.5,0.1c0.1,0,0.2,0,0.3,0c0.1,0,0,0.1,0,0.1c-0.1,0-0.2-0.1-0.3-0.1c-0.2,0-0.5,0.1-0.6,0c-0.1,0-0.1,0-0.2,0.1
			c0,0.1,0,0.2,0.1,0.3c0.1,0,0.4-0.1,0.5,0c0,0,0,0,0,0.1c0.2,0.3-1.5,1-2.2,1.5c-0.2,0.1-0.4,0.2-0.5,0.4c0,0-0.2,0.1-0.2,0.2
			c0.4-0.2,0.9-0.5,1.2-0.7c0.2-0.1,0.4-0.1,0.5-0.2c0.2-0.1,0.3-0.2,0.4-0.3c0.2-0.1,0.5,0,0.7-0.1c0,0,0.2-0.1,0.2,0
			c0,0,0,0.1-0.1,0.2c-0.1,0.1-0.2,0.2-0.3,0.3c-0.1,0.1-0.2,0.1-0.2,0.1c-0.1,0-0.3,0.1-0.3,0.1c0,0-0.2,0.2-0.3,0.2
			c0.4-0.1,0.9-0.3,1-0.3c0.1,0,0.2-0.1,0.3-0.2c0.2-0.1,0.3-0.2,0.4-0.3c0.3-0.1,0.4-0.1,0.7-0.2c0.1,0,0.3-0.2,0.3-0.2
			c0.1,0,0.7,0.1,1.1,0.1c0,0.1-0.1,0.1-0.1,0.1c0,0.1,0,0.1,0,0.2c0,0.1-0.1,0.2-0.2,0.2c-0.1,0.1,0.1,0.1,0,0.1
			c-0.2,0.1-0.6,0.3-0.9,0.3c0.2,0.1,1.1-0.3,1.3-0.4c0.5-0.3,0.8-0.7,1.2-1.1c0.1-0.1,0.1-0.2,0.2-0.3c0.1,0,0.1,0,0.2-0.1
			c0.1-0.1,0.2-0.2,0.4-0.3c0.1-0.3,0.1-0.7-0.1-0.8c-0.3-0.3-1.7-0.7-2.2-0.8c-0.2,0-0.4,0-0.4,0c-0.4,0.1-0.9,0.1-1.1,0
			c-0.3-0.1-0.4,0.2-0.6,0.1c-1-0.1-2.7,0.7-3.5,1.3c-0.1,0.1-0.2,0.1-0.2,0.2c-0.1,0.1-0.3,0-0.3,0.1c-0.1,0.1-0.3,0.3-0.5,0.4
			c-0.6,0.4-1.2,0.8-1.8,1.2c-0.2,0.1-0.1,0.2-0.2,0.3c-0.1,0-0.1,0-0.1,0c-0.2,0.1-0.3,0.2-0.4,0.3c-0.5,0.3-0.8,0.6-1.3,1
			c-0.6,0.5-2,1.5-2.7,1.7c-0.1,0-0.3,0-0.4,0c-0.1-0.1-0.2-0.1-0.3-0.1c0-0.1,0-0.2,0-0.2c-0.1-0.1-0.1-0.2-0.1-0.3
			c0,0,0-0.1,0-0.1c0-0.1-0.1-0.2,0-0.2c0-0.1,0.1-0.3,0.1-0.3c0,0,0-0.2,0-0.2s-0.1,0.3-0.2,0.4c0,0,0,0,0,0.1c0-0.1,0-0.1,0-0.2
			c0,0,0-0.2,0.1-0.4c0.3-0.8,0.6-1.4,0.7-1.5c0,0-0.4,0.5-0.8,1.4c-0.1,0.1-0.2,0.4-0.2,0.4c0,0,0,0-0.1,0c0.2-1.6,1.4-2.6,2.2-3.7
			c0.3-0.4,0.8-1.1,0.8-1.5c0,0-0.2,0.4-0.3,0.5c0,0,0,0-0.1,0c0.1-0.5,0.3-1.1,0-1.7c-0.2-0.3-0.3-0.3-0.6-0.4
			c-0.1-0.1-0.1-0.1-0.1-0.1c0.9,0.2,1.1,0.8,1,1.8c0.1-0.3,0.1-0.4,0.1-0.6c0-0.3-0.1-0.7-0.2-0.8c-0.7-0.7-2.3-0.6-3.1-0.3
			c-0.2,0.1-0.5,0.2-0.8,0.3c-0.2,0.1-0.4,0.1-0.6,0.2c-0.1,0.1-0.3,0.2-0.4,0.2c-0.3,0.2-0.5,0.3-0.8,0.5c-0.5,0.3-1.1,0.8-1.6,1.1
			c-0.4,0.3-0.6,0.5-0.6,0.5c-0.3,0.2-0.6,0.5-0.9,0.7c-0.4,0.3-0.8,0.5-1.2,0.6c-0.5,0.1-0.7,0.1-1-0.2c-0.1-0.2-0.1-0.4-0.1-0.6
			c0-0.9,0.5-1.6,0.8-2.3c0.1-0.1,0-0.3,0.1-0.4c0,0,0,0,0-0.1c-0.3,0.1-0.4,0.4-0.4,0.4c0,0,0,0-0.1,0c0-0.2,0.1-0.4,0.3-0.5
			c0.1-0.1,0.1-0.3,0.2-0.4c0-0.1,0.1-0.1,0.2-0.1c0-0.1,0.1-0.2,0.1-0.3c0.1-0.1,0.2-0.2,0.4-0.3c0.1-0.1,0.1-0.2,0.2-0.3
			c0.1-0.1,0.1-0.1,0.2-0.1c0.1,0,0.1-0.1,0.2-0.2c0.2-0.1,0.3-0.2,0.5-0.3c0-0.1,0.1-0.1,0.1-0.2c0.1-0.1,0.3-0.1,0.4-0.2
			c0.4-0.3,0.8-0.5,1.4-0.7c0.3-0.1,0.5-0.3,0.6-0.4c0.1,0,0.2,0,0.4,0c0.1,0,0.2-0.1,0.4-0.2c0.3-0.1,0.7-0.2,0.8-0.3
			c0,0,0,0,0.1,0c0,0.1,0.1,0.1,0,0.1c-0.1,0.1-0.3,0.2-0.5,0.3c-0.1,0.1-0.3,0.1-0.4,0.2c-0.1,0-0.2,0-0.3,0.1
			c-0.4,0.2-0.7,0.3-0.8,0.5c-0.1,0,0,0-0.1-0.1c-0.2,0.1-0.4,0.2-0.7,0.4c-0.1,0.1-0.1,0.1-0.2,0.2c-0.3,0.2-0.6,0.4-0.8,0.7
			c0,0-0.1,0.2-0.1,0.2c0.2-0.2,0.5-0.5,0.8-0.6c0.2-0.1,0.4,0,0.6-0.2C9,15.3,9.3,15,9.6,14.8c0.2-0.1,0.4-0.1,0.7-0.2
			c0.2-0.1,0.2-0.2,0.3-0.3c0.6-0.3,1.4-0.4,2.1-0.7c0.2-0.1,0.4-0.2,0.6-0.2c0.2-0.1,0.6,0,0.8-0.1c0.3-0.1,0.6-0.2,0.6-0.2
			c0.1,0,0.1,0.2,0.5,0.2c0.2,0,0.4-0.3,0.6-0.4c1-0.3,2.1-0.5,2.7-1.6c0.1-0.1,0.1-2.1-0.1-2.4c0-0.1,0-0.1,0-0.2c0,0,0,0,0.1,0
			c0.1,0.3,0.3,0.5,0.3,0.8c0.1,0.6,0.1,0.9,0,1c0.1-0.4,0.1-0.7,0.1-0.9c0-0.1,0-0.1,0-0.1c0,0,0,0,0-0.1c0-0.1,0.1,0.1,0.1,0.1
			c0,0,0,0,0,0c0,0.1,0.1,0.2,0.1,0.4c0,0,0.1-0.3-0.2-0.9c0,0,0-0.1,0-0.1c0,0,0,0,0.1,0c0,0,0.1,0.1,0.1,0.1
			c0.3,0.3,0.3,1,0.2,1.5v0c-0.1,0.2-0.2,0.6-0.5,0.9c0,0,0.8-0.4,0.9-1.2c0,0,0,0.1,0,0.1C19.6,9.9,19.1,9.3,19,9
			c-0.1-0.4,0-0.5-0.2-0.7c-0.6-0.7-2.4-1.7-3.6-1.9c0.1-0.2,0.2-0.3,0.4-0.4c0-0.2-0.1-0.2-0.1-0.4c0.2-0.2,0.5-0.5,0.6-0.7
			c0.1-0.1,0.2-0.3,0.3-0.4c0.3-0.1,0.4-0.1,0.6-0.1c0.3-0.2,0.5-0.4,0.7-0.5c0.3,0,0.6-0.1,0.9-0.2c0.1-0.1,0.2-0.3,0.4-0.3
			c0.1,0,0.2,0,0.3,0c0.2-0.1,0.5-0.2,0.7-0.2c0.2,0,0.3-0.1,0.5-0.1c0.1-0.1,0.2-0.2,0.4-0.2c0.6,0,1.1-0.1,1.6-0.2
			c0.6-0.3,1.3-0.5,1.9-0.8c0.7-0.4,1.7-1,2.2-1.3c0-0.1,0-0.1,0.1-0.2c-0.1,0,0,0-0.1-0.1c-0.5,0.1-1.1,0.5-1.7,0.8
			c-0.1,0.1-0.2,0-0.3,0.1c-0.2,0.1-0.5,0.3-0.7,0.4c-0.1,0-0.2,0.1-0.4,0.1c-0.2,0.1-0.4,0.2-0.6,0.3c-0.2,0-0.4-0.1-0.6-0.1
			c-0.2,0-1.6,0-1.8,0.1c0,0-0.2,0.1-0.2,0.1c-0.2,0.1-0.4,0-0.5,0.1c-0.1,0-0.1,0-0.1,0c0,0,0,0,0-0.1c0,0,0,0,0.1,0
			c0-0.1,0.2-0.1,0.4-0.2c0.1,0,0.2,0,0.2,0c0.1,0,0.3-0.1,0.4-0.1c0.1,0,0-0.1,0.1-0.1c0.1,0,0.8-0.1,1-0.1c0,0-0.3,0-0.7,0
			c-0.4,0-0.4,0-0.5,0.1c0,0,0,0,0,0c0,0,0,0,0-0.1c0.3-0.1,1-0.2,1.4-0.2c-0.3-0.1-1.2,0-1.5,0c-0.5,0.1-1,0.2-1.4,0.3
			c-0.5,0.1-1,0.3-1.5,0.4c-0.6,0.1-0.6-0.4-1.5,0.1c-0.5,0.3-0.7,0.7-1,1c-0.2,0.2-0.3,0.4-0.6,0.4c-0.3,0.1-0.4,0.1-0.8,0.1
			c-0.3,0-0.4-0.3-0.5-0.4c-0.3-0.2-0.6-0.2-0.9-0.4C12.2,3,12,2.7,11.7,2.6c-0.2,0-0.6,0-0.8,0.1c-0.3,0-0.7-0.1-1-0.1
			c-0.1,0-0.3,0.1-0.3,0.2c-0.1,0.3,0,0.6-0.1,0.9c-0.2,0.2-0.6,0-0.9,0c-0.3,0-0.7,0-1,0.1C7.3,3.9,7.3,4,7.1,4.2
			c0,0.1-0.2,0.4-0.1,0.5c0.1,0,0.1,0,0.2,0.1c0-0.1,0-0.2,0-0.3c0,0,0.5-0.3,1.1,0c0.1,0.1,0.2,0.1,0.3,0.2c0,0,0.1,0.2,0,0.3
			C8.5,5.1,8.3,5.2,8.2,5.3C8,5.3,7.8,5.4,7.6,5.3c-0.3,0-0.2-0.2-0.4-0.2C7,5,6.9,5.1,6.7,5C6.4,4.9,6.2,4.8,5.9,4.8
			c-0.1,0-0.5,0.1-0.6,0.1C5.1,5,5,5.2,4.9,5.5c-0.5,0.1-2.2-0.1-2.3,0c-0.1,0-0.3,0-0.4,0C1.8,5.3,1.7,5,1.4,4.8
			c-0.1-0.1-0.4-0.1-0.6,0C0.6,4.9,0.4,5,0.4,5.1C0.3,5.2,0.2,5.4,0.2,5.6C0.1,5.9,0,6.1,0,6.4C0,6.6,0,7,0.1,7.2
			c0.1,0.2,0,0.4,0.1,0.5C0.4,8.1,0.8,8.3,1,8.7c0.1,0,0.2,0,0.2,0c0.1,0,0.1,0,0.2,0c0.3,0,0.3,0.1,0.4,0.1c0.2,0,0.3-0.1,0.7-0.1
			C2.6,8.4,2.7,8.2,3,8.2c0.4-0.2,0.9,0,1.3-0.1C4.9,8,5.4,7.8,5.8,7.6C6.2,7.4,7.4,8,7.6,8.1c0.1,0,0.1,0,0.2,0C8,8,8,7.6,8.4,7.4
			c0.1-0.1,0.2,0,0.3,0c0,0.1,0,0.2,0.1,0.3c0.1,0,0.2,0,0.2,0c0,0,0,0.1,0,0.1C9,8.1,8.5,8.5,8.1,8.7C7.9,8.9,7.7,8.8,7.5,8.9
			C7.2,9,7,9.2,6.8,9.3c-0.1,0-0.3,0-0.4,0.1C6.2,9.5,6.2,9.7,6,9.8C5.8,9.9,5.7,9.9,5.6,9.9C5.4,9.9,5.3,10,5,10.1c0,0-0.1,0-0.1,0
			C5.1,10,5.3,9.8,5.3,9.6c0-0.2,0-0.4,0-0.5C5.1,8.8,4.8,9,4.8,8.5C4.7,8.6,4.6,8.7,4.5,8.8c-0.1-0.1-0.1-0.1,0-0.2
			c-0.1,0-0.3,0.3-0.3,0.3c-0.1-0.1,0-0.1,0-0.2C4,8.7,3.9,8.9,3.8,9C3.7,9.1,3.6,9.4,3.7,9.6c0,0.3,0.2,0.6,0.6,0.6
			c0,0.2-0.1,0.2-0.2,0.2c-0.1,0-0.1-0.1-0.2-0.1c-0.1,0-0.3,0.1-0.3,0.1C3.4,10.4,3.2,10,3,9.9c-0.1,0.2-0.3,0.2-0.5,0.3
			c-0.1,0.1-0.1,0.1-0.2,0.3c-0.1,0.2-0.1,0.3-0.2,0.6c0,0.1-0.1,0.2-0.2,0.3c-0.2,0.3-0.2,0.5-0.1,1c0,0.3,0.5,0.8,0.7,1
			c-0.1,0,0,0-0.1,0.1c0.2,0.3,0.5,0.5,0.7,0.5c0.1,0,0.1,0,0.2,0c0.1,0,0.2-0.1,0.2-0.1c0.2,0,0.2,0.1,0.3,0.1C4,14.1,4,14,4.1,14
			c0.1,0,0.2,0,0.3-0.1c0.1,0,0.1-0.1,0.2-0.1c0.1,0,0.2,0,0.3,0c0.3-0.2,0.6-0.5,0.7-0.7c0.1-0.1,0.1-0.2,0.1-0.3c0,0,0.1,0,0.1,0
			c0-0.2,0-0.5,0.1-0.6c0.1,0,0,0,0.2-0.1c0-0.1,0-0.1,0-0.2c0-0.1,0.3-0.1,0.5-0.3c0.2-0.1,0.3-0.2,0.5-0.3c0,0,0.2,0,0.3,0
			c0,0,0.9-0.9,0.9-0.9c0.1-0.1,0.1-0.3,0.2-0.3C8.7,10,8.8,10,8.9,10c0.2-0.1,1-0.4,1.3-0.5c0.2,0,0.5,0,0.6,0
			c0.1,0,0.1,0.1,0.1,0.2c0.3,0,0.5-0.2,0.6-0.4c0.2,0,0.3,0,0.4,0c0.3,0.1,0.3,0.3,0.6,0.3c0.1-0.1,0.1-0.1,0.2-0.1
			c0-0.1,0-0.1,0-0.2c0,0,0.1-0.1,0.2-0.1c0.6-0.1,1.2,0.1,1.6,0.5c0.2,0.1,0.3,0.5,0.6,0.6c-0.1,0.4-0.3,1-0.6,1.2
			c-0.6,0.4-1,0.4-1.6,0.6c-0.5,0.2-1,0.4-1.5,0.6c-0.4,0.2-0.9,0.3-1.3,0.5c-0.9,0.4-1.8,0.9-2.7,1.3c-0.6,0.3-1.4,0.7-2.2,1.2
			c-0.3,0.2-0.7,0.4-1.1,0.7c-0.5,0.4-1,0.8-1.4,1.2c-0.5,0.5-0.9,1.1-1.1,1.8c-0.1,0.2-0.2,0.5-0.2,0.8c0,0.1,0,0.2,0,0.3
			c0,0.1-0.1,0.1-0.1,0.2c-0.1,0.3-0.1,0.6-0.1,0.9c0,0.3,0.2,0.8,0.3,1c0.1,0.2,0.3,0.3,0.5,0.5c0.2,0.3,0.3,0.5,0.6,0.7
			C3.2,24,3.6,24,4.2,24.1c0.1,0,0.5,0,0.8-0.1c0.2-0.1,0.7-0.4,1.1-0.6c0.2-0.1,0.4-0.2,0.5-0.2c0.1-0.1,0.1-0.3,0.3-0.4
			c0.1-0.1,0.3-0.2,0.4-0.2c0.2-0.2,0.3-0.4,0.6-0.6c0.3-0.2,0.5-0.3,0.8-0.6c0.3-0.3,0.5-0.5,0.7-0.7c0.3-0.2,0.5-0.4,0.7-0.7
			c0,0.1,0,0.1,0,0.2c0.2-0.3,0.4-0.2,0.6-0.3c0.2-0.1,0.3-0.2,0.5-0.3c0.2-0.1,0.3-0.3,0.4-0.4c0.2-0.1,0.4-0.1,0.5-0.3
			c0-0.1,0.1-0.2,0.2-0.3c0.1-0.1,0.3-0.1,0.5-0.1c0.2-0.1,0.3-0.3,0.5-0.2c0.7,0.1,1.2,1.2,0.8,1.9c-0.4,0.6-0.7,1.3-1.1,1.9
			c-0.3,0.4-0.7,0.9-0.9,1.3c-0.2,0.3-0.3,0.7-0.5,1c-0.1,0.1-0.2,0.3-0.3,0.6c-0.1,0.1,0,0.2,0,0.4c0,0.1-0.1,0.1-0.1,0.2
			c-0.1,0.2-0.1,0.5,0,0.6c0,0.1,0.2,0.3,0.2,0.4c0,0.1,0,0.2,0,0.3c0.1,0.2,0.2,0.2,0.3,0.4c0.3,0.2,0.4,0,0.6-0.1
			c0,0,0.2-0.1,0.3,0c0.1,0.1,0.1,0.1,0.2,0.1c0.1,0,0.1,0,0.2,0c0.1,0,0.2-0.1,0.2-0.1s0,0,0.1,0c0.1,0,0.1,0,0.2-0.1
			c0.1-0.1,0.1-0.1,0.2-0.1c0.1,0,0.1,0,0.2,0c0.1,0,0,0.1,0.1,0c0.1,0,0.2-0.1,0.3-0.2c0.1-0.1,0.2-0.2,0.2-0.2
			c0,0,0.1-0.1,0.1-0.1c0,0-0.1,0-0.1,0c0,0,0-0.1,0-0.1c0,0,0,0,0,0s-0.1,0-0.1,0c0,0.1-0.2,0.2-0.3,0.2c-0.1,0-0.1,0-0.1,0
			c0,0,0,0.1-0.1,0.1c0,0-0.2,0.1-0.2,0.1s-0.2,0-0.3,0.1c0,0-0.2,0.1-0.2,0.1c-0.1,0,0-0.1,0.1-0.2c0.2-0.1,0.5-0.2,0.6-0.3
			c0.1-0.1,0.2-0.1,0.2-0.1s0.1-0.1,0.1-0.1c0-0.1,0.1,0,0.2-0.1c0.1-0.1,0.2-0.1,0.2-0.1c0.1,0,0.4-0.2,0.5-0.2
			C15.2,25.8,15.3,25.7,15.4,25.6z M14.5,26.3 M18.5,8.2c0,0.1,0,0.1,0,0.1c0,0-0.1,0-0.2,0c0-0.1,0-0.1,0-0.2
			c-0.2-0.1-0.2-0.2-0.4-0.4c0,0,0,0,0-0.1C18.2,7.8,18.3,8,18.5,8.2z M18,8.9C18,8.9,18,8.9,18,8.9C18,8.9,18,8.9,18,8.9
			C18,9,18.1,9,17.9,9c0-0.1,0-0.1,0-0.2C17.9,8.9,18,8.9,18,8.9z M11.5,2.7c0.1,0,0.1,0,0.1,0.1C11.5,2.7,11.6,2.7,11.5,2.7z
			 M9.3,20.5c-0.3,0.3-0.6,0.6-0.8,0.7c-0.2,0.2-0.4,0.3-0.6,0.5c-0.4,0.4-0.7,0.5-1.2,0.8c-0.3,0.2-0.5,0.4-0.8,0.6
			c-0.4,0.3-1.1,0.5-1.8,0.6c0,0.1,0.1,0.2,0.1,0.2c-0.1,0-0.2,0-0.3,0c-0.2-0.1-0.3-0.1-0.4-0.2c-0.1,0-0.2,0-0.3-0.1
			c-0.2-0.1-0.3-0.2-0.5-0.4c0-0.1,0-0.2,0-0.3c0,0,0.1,0,0.2,0c0.1,0.1,0.3,0.2,0.4,0.3c0,0,0.2,0.1,0.2,0.1
			c-0.1-0.1-0.2-0.2-0.2-0.3c0.4,0.2,0.6,0.4,1.4,0.2c-0.1,0-0.5,0-0.6,0c-0.1-0.1-0.1-0.1-0.1-0.1c-0.1,0-0.1,0-0.3,0
			c-0.1,0-0.3-0.1-0.5-0.3l0-0.1c0.1,0,0.3,0.1,0.4,0.1c0.1,0,0.2,0,0.4,0.1c0.3,0.1,0.7,0,0.9,0c0,0,0,0,0-0.1c0,0,0,0,0.1,0
			c-0.1,0-0.2,0-0.3-0.1c0-0.1,0-0.1,0-0.2c0.1,0,0.3,0,0.5,0c0.1,0,0.2-0.1,0.3-0.2c0.6-0.2,1.2-0.7,1.5-0.9c0-0.1,0-0.1,0-0.2
			c0.1,0,0.1,0,0.2,0c0,0,0,0.1,0,0.1c-0.6,0.5-0.6,0.5-0.7,0.6c0,0,0.4-0.2,0.7-0.5c0.1-0.1,0.2-0.2,0.3-0.3
			c0.2-0.2,0.4-0.3,0.5-0.3c0.3-0.2,0.5-0.3,0.7-0.4c0.1-0.1,0.4-0.3,0.5-0.3c0.1-0.2,0.1-0.3,0.3-0.4c0,0,0.2,0,0.4,0
			C10,20,9.6,20.2,9.3,20.5z M10,19.8c0,0-0.1,0.1-0.2,0c0,0,0,0-0.1,0c0,0,0,0,0-0.1c0.1-0.1,0.3-0.2,0.4-0.3c0.1,0,0.1,0,0.2,0
			c0,0,0,0,0,0.1C10.2,19.6,10.2,19.7,10,19.8z M10.6,19.4C10.6,19.4,10.6,19.4,10.6,19.4c-0.1-0.2,0.3-0.3,0.4-0.6
			c0.1,0,0.3,0,0.4,0c0,0,0,0,0,0.1C11.1,19.1,10.9,19.2,10.6,19.4z M15,18.3c0,0.2,0.1,0.4,0,0.5c0,0,0,0.1,0,0.1c0,0,0,0-0.1,0
			c0-0.3,0-0.5-0.1-0.7C14.9,18.3,14.9,18.3,15,18.3C15,18.4,15,18.3,15,18.3z M14,17.5c-0.1,0-0.1,0.1-0.2,0.2
			c-0.1,0-0.1-0.1-0.2-0.2c0,0,0,0,0-0.1c0.8,0,1,0.2,1.3,0.6c0,0.1,0,0.1,0,0.2c0,0,0,0-0.1,0c0-0.1,0,0-0.1-0.2
			c-0.1,0-0.1,0-0.2,0c0-0.1,0-0.1,0-0.2c-0.1,0-0.2,0-0.3-0.1C14.2,17.6,14,17.7,14,17.5z M14.4,20.4
			C14.5,20.4,14.5,20.4,14.4,20.4C14.5,20.4,14.5,20.4,14.4,20.4c0,0.2-0.1,0.3-0.2,0.4c0,0,0,0,0,0.1c0,0,0,0-0.1,0
			C14.2,20.6,14.4,20.7,14.4,20.4z M18.7,10.7C18.7,10.8,18.7,10.8,18.7,10.7C18.7,10.8,18.7,10.8,18.7,10.7z M16.3,25.8
			C16.3,25.9,16.2,25.9,16.3,25.8c-0.1,0.1-0.1,0.1-0.2,0.1c-0.1,0-0.1,0.1-0.2,0.2c-0.1,0.1-0.5,0.3-0.5,0.3l0-0.1
			c0,0,0.2-0.2,0.3-0.2c0,0,0.1-0.1,0.1-0.1c0,0,0.1-0.1,0.1-0.1c0,0,0.1-0.1,0.1-0.1c0,0,0.1,0,0.1,0
			C16.1,25.8,16.2,25.8,16.3,25.8C16.2,25.8,16.2,25.8,16.3,25.8z M13.9,27.3c-0.2,0.1-0.6,0.3-0.8,0.3c-0.1,0,0,0,0,0l0,0
			c0,0,0.1,0,0.2-0.1c0,0,0.2,0,0.2,0s0,0,0.1-0.1c0.1,0,0.1,0,0.4-0.2c0.4-0.2,0.8-0.5,0.8-0.5C14.5,27,14.1,27.2,13.9,27.3z
			 M12.1,27.4c0,0,0.1,0.1,0.2,0.1c0.1,0,0.4,0,0.4,0c0.1,0,0.1,0,0.1,0s-0.3,0.1-0.5,0.1C12.3,27.6,12.1,27.6,12.1,27.4
			C12,27.4,12.1,27.4,12.1,27.4z"/>
		<g>
			<path class="st1" d="M24.9,17.1h-1.3l1.7-6.3h1.7c0.5,0,1.1,0,1.4,0c0.2,0,0.5,0.1,0.7,0.2c0.1,0.1,0.2,0.1,0.3,0.2
				c0.1,0.1,0.3,0.3,0.2,1c0,0.3-0.1,0.6-0.2,0.9c0,0.1-0.3,0.6-0.5,0.9c-0.3,0.3-0.6,0.5-0.8,0.5c-0.3,0.1-0.7,0.2-1.2,0.2h-1.4
				L24.9,17.1z M26.4,12l-0.5,1.8h1c0.4,0,0.6,0,0.8-0.1c0.3-0.1,0.6-0.5,0.7-0.8c0.1-0.2,0.1-0.5,0-0.7C28.2,12.1,28.1,12,28,12
				c-0.1,0-0.4,0-0.8,0H26.4z M40,17.1h-1.4l0.3-4.5l-2.2,4.5l-1.3,0l0.3-6.3h1l-0.2,4.6l2.2-4.6H40l-0.3,4.5l2.2-4.5h1.2L40,17.1z
				 M46.5,17.1h-4.7l1.7-6.3h4.7L47.9,12h-3.5l-0.4,1.4h3.1l-0.3,1.1h-3.1l-0.5,1.7h3.5L46.5,17.1z M67.4,17.1H66l-1.3-4.6l-1.3,4.6
				h-1.2l1.7-6.3h1.4l1.3,4.4l1.3-4.4h1.2L67.4,17.1z M33.8,14.1c-0.3,1-1,1.8-1.8,1.9c-0.1,0-0.5,0-0.5,0c-0.9,0-1.3-0.9-0.9-2
				l0.1-0.2c0.3-0.9,0.9-1.6,1.5-1.9c0,0,0.3-0.1,0.3-0.1c0.1,0,0.2,0,0.2,0c1.2,0,1.4,0.9,1.1,2L33.8,14.1z M32.1,17.1
				c1.4-0.3,2.5-1.4,3-2.8l0.1-0.3c0.5-1.7,0-3.1-2.1-3.1c0,0-0.2,0-0.4,0c-0.1,0-0.6,0.1-0.6,0.1c-1.1,0.3-2.2,1.5-2.6,2.8
				l-0.1,0.3c-0.4,1.5,0.1,2.7,1.4,2.9C30.8,17.1,31.3,17.2,32.1,17.1z M61.5,14.1c-0.3,1-1,1.8-1.8,1.9c-0.1,0-0.5,0-0.5,0
				c-0.9,0-1.3-0.9-0.9-2l0.1-0.2c0.3-0.9,0.9-1.6,1.5-1.9c0,0,0.3-0.1,0.3-0.1c0.1,0,0.2,0,0.2,0c1.2,0,1.4,0.9,1.1,2L61.5,14.1z
				 M59.8,17.1c1.4-0.3,2.5-1.4,3-2.8l0.1-0.3c0.5-1.7,0-3.1-2.1-3.1c0,0-0.2,0-0.4,0c-0.1,0-0.6,0.1-0.6,0.1
				c-1.1,0.3-2.2,1.5-2.5,2.8l-0.1,0.3c-0.4,1.5,0.1,2.7,1.4,2.9C58.5,17.1,59,17.2,59.8,17.1z M53.8,16l1.4-5.2H54l-1.8,6.2h4.4
				L57,16H53.8z M52.7,11.1c-0.2-0.1-0.4-0.1-0.6-0.2l0,0H52c-0.1,0-0.2,0-0.2,0h-3.2l-1.8,6.2h1.3l0.7-2.4h1.7
				c0.3,0,0.4,0.1,0.5,0.2c0.1,0.2,0,0.5,0,0.5l-0.5,1.7h1.3c0,0,0.5-1.7,0.6-2c0-0.3,0.1-0.5,0-0.6c-0.1-0.2-0.4-0.4-0.4-0.4
				l0.4-0.2c0.6-0.3,0.9-1.1,1-1.5C53.4,12,53.2,11.3,52.7,11.1z M49.6,12h1.9c0.2,0.1,0.5,0.2,0.5,0.5c0,0,0.1,0.6-0.4,1
				c-0.2,0.1-0.4,0.2-0.7,0.2h-1.7L49.6,12z M69.7,13.9c0.3-0.9,1-1.6,1.7-1.8c0,0,0.3-0.1,0.4-0.1c0.1,0,0.2,0,0.2,0
				c0.8,0,1.2,0.3,1.2,1h1.3c0.1-1.2-0.5-2.1-2.2-2.1c0,0-0.2,0-0.4,0c-0.2,0-0.6,0.1-0.7,0.1c-1.2,0.3-2.3,1.4-2.7,2.8l-0.1,0.3
				c-0.5,1.5,0.1,2.7,1.5,2.9c0,0,0.4,0.1,1.2,0c0.7-0.1,1.2-0.6,1.6-1l-0.4,1h1l0.9-3.4l0,0l0,0l-2.6,0l-0.3,1h1.5
				c-0.3,0.6-0.8,1.1-1.3,1.2c-0.3,0.1-0.9,0.1-0.9,0.1c-1-0.1-1.4-0.9-1.1-2L69.7,13.9z"/>
		</g>
	</g>
	<g>
		<g>
			<polygon class="st1" points="51.5,23.2 50.7,23.2 50.7,24.1 49.8,24.1 49.8,22.9 51.9,22.9 51.9,22.2 49.8,22.2 49.8,21.2 
				51.6,21.2 51.6,20.5 47.2,20.5 47.2,21.2 49,21.2 49,22.2 46.9,22.2 46.9,22.9 49,22.9 49,24.1 46.1,24.1 46.1,24.8 52.7,24.8 
				52.7,24.1 51.5,24.1 			"/>
			<path class="st1" d="M52.7,20c0-0.3-0.2-0.6-0.6-0.6v0l0,0l0,0l0,0l0,0h0l-2.3,0v-0.7H49v0.7l-2.9,0v1.4h0.7V20h5.1h0
				c0,0,0.1,0,0.1,0.1c0,0,0,0,0,0v0.8h0.7L52.7,20C52.7,20,52.7,20,52.7,20z"/>
		</g>
		<g>
			<path class="st1" d="M58.9,20.1V19h-0.7v1.1h-1.3c0.1-0.6,0.1-1.2,0.1-1.4h-0.7c0,0.2-0.1,0.8-0.1,1.4h-2.4v0.6h2.3
				c0,0.2,0,0.4-0.1,0.6c-0.1,0.8-0.5,1.4-0.5,1.4c-0.7,1.1-2,1.8-2,1.8l0.7,0.5c1.8-1.2,2.2-2.6,2.4-3.3c0.1-0.2,0.1-0.6,0.2-1h3.4
				v-0.6H58.9z"/>
			<path class="st1" d="M59.9,23.5c0,0,0,0.2-0.2,0.4c-0.1,0.1-0.2,0.2-0.3,0.3c-0.1,0-0.3,0-0.4,0.1c-0.3,0-0.9,0-1,0
				c-0.2,0-0.3-0.1-0.3-0.2v-0.3c1.3-1,1.8-2.2,1.8-2.2l-0.6-0.4c-0.6,1-0.9,1.4-1.2,1.8l0-1.9h-0.7v2.4c-0.6,0.4-1.5,0.7-1.5,0.7
				l0.5,0.5c0.4-0.1,0.6-0.3,1-0.5c0,0,0,0.1,0,0.1l0,0l0,0c0,0.3,0.2,0.5,0.5,0.5v0c0.2,0,0.9,0,1.2,0c0.4,0,0.8,0,0.8,0
				c0.6-0.1,0.8-0.9,0.8-0.9L59.9,23.5z"/>
		</g>
	</g>
	<g>
		<path class="st1" d="M62.6,20.9h0.6v-0.6h-0.6v-1.6h-0.7v1.6h-0.7v0.6h0.7v3c-0.2,0.1-0.4,0.1-0.6,0.1l0,0l0.2,0.6l0,0
			c0.1,0,0.3-0.1,0.6-0.1c0.5-0.1,0.9-0.2,1.2-0.3l0,0v-0.6l-0.7,0.2V20.9z"/>
		<path class="st1" d="M64.3,24.3c0-0.1-0.1-0.1-0.1-0.2v-2.8l0.9-0.3v2.9h0.7v-3.1l0.7-0.3c0,0,0.1,0,0.1,0c0.1,0,0.1,0,0.1,0.1
			v1.8c0,0.2-0.1,0.2-0.2,0.2h-0.6l0.2,0.6h0.6c0.2,0,0.4-0.1,0.5-0.2c0.1-0.1,0.2-0.3,0.2-0.6v-2c0-0.6-0.3-0.8-0.9-0.6L65.8,20
			v-1.3h-0.7v1.5l-0.9,0.3v-1.3h-0.7v1.5L63.1,21v0.6l0.4-0.1v2.6c0,0.6,0.3,0.9,0.9,0.9h3.1l0.2-0.6h-3.1
			C64.4,24.3,64.4,24.3,64.3,24.3z"/>
	</g>
	<g>
		<path class="st1" d="M73,21.3c0.1-0.3,0.3-0.7,0.4-1.1l0,0h-0.7l0,0c-0.2,0.4-0.3,0.8-0.5,1.1H71c-0.2-0.3-0.3-0.7-0.5-1.1l0,0
			h-0.8l0,0c0.2,0.5,0.3,0.8,0.4,1.1h-0.7c-0.4,0-0.7,0.2-0.7,0.7v0.5c0,0.4,0,0.8-0.1,1.1c-0.1,0.3-0.2,0.7-0.4,1.2l0,0l0.7,0.2
			l0,0c0.4-0.8,0.5-1.7,0.5-2.5v-0.3c0-0.2,0.1-0.2,0.3-0.2h4.8v-0.6H73z"/>
		<path class="st1" d="M74.4,19.4h-2.3C72,19.2,72,19,71.9,18.7l0,0h-0.7l0,0c0.1,0.2,0.1,0.5,0.2,0.7h-2.5V20h5.6V19.4z"/>
	</g>
</g>
</svg>
