<?xml version="1.0" encoding="UTF-8"?>
<svg width="75px" height="28px" viewBox="0 0 75 28" version="1.1" xmlns="http://www.w3.org/2000/svg" xmlns:xlink="http://www.w3.org/1999/xlink">
    <!-- Generator: Sketch 54.1 (76490) - https://sketchapp.com -->
    <title>编组 2</title>
    <desc>Created with Sketch.</desc>
    <defs>
        <polygon id="path-1" points="0.000173390691 0.381020455 29.3849617 0.381020455 29.3849617 27.6818182 0.000173390691 27.6818182"></polygon>
    </defs>
    <g id="Page-1" stroke="none" stroke-width="1" fill="none" fill-rule="evenodd">
        <g id="资产汇总-展开" transform="translate(-34.000000, -5.000000)">
            <g id="编组-2" transform="translate(34.000000, 5.000000)">
                <g id="编组">
                    <g>
                        <g transform="translate(0.000000, 0.278334)">
                            <mask id="mask-2" fill="white">
                                <use xlink:href="#path-1"></use>
                            </mask>
                            <g id="Clip-2"></g>
                            <path d="M12.1082895,27.4769068 C12.1082895,27.4769068 12.18,27.5494068 12.2786842,27.5592932 C12.38,27.5685205 12.6622368,27.5863159 12.7168421,27.5777477 C12.7707895,27.5685205 12.8346053,27.5592932 12.8346053,27.5592932 C12.8346053,27.5592932 12.4990789,27.7062705 12.38,27.6785886 C12.2615789,27.6502477 12.0701316,27.6317932 12.0438158,27.514475 C12.0168421,27.3945205 12.1082895,27.4769068 12.1082895,27.4769068 M13.9365789,27.3127932 C13.7734211,27.3760659 13.3181579,27.5777477 13.1819737,27.5777477 C13.0457895,27.5777477 13.1451316,27.5316114 13.1451316,27.5316114 L13.1819737,27.4947023 C13.1819737,27.4947023 13.3267105,27.4505432 13.3721053,27.4380205 C13.4188158,27.4320886 13.5273684,27.4050659 13.5273684,27.4050659 C13.5273684,27.4050659 13.5372368,27.3562932 13.6089474,27.3127932 C13.6813158,27.2666568 13.6721053,27.3226795 14.0280263,27.1585659 C14.3832895,26.9931341 14.7918421,26.6365659 14.7918421,26.6365659 C14.5372368,27.0096114 14.1003947,27.2475432 13.9365789,27.3127932 M16.2589474,25.8805886 C16.2628947,25.9214523 16.2010526,25.9300205 16.2010526,25.9300205 C16.2010526,25.9300205 16.1517105,25.9372705 16.0543421,25.9596795 C15.9596053,25.9814295 15.9385526,26.0835886 15.8490789,26.1613614 C15.7582895,26.2411114 15.3096053,26.4276341 15.3096053,26.4276341 L15.3497368,26.3702932 C15.3497368,26.3702932 15.5615789,26.1962932 15.6017105,26.1962932 C15.6411842,26.1962932 15.7240789,26.1218159 15.7477632,26.1125886 C15.7701316,26.1000659 15.8326316,26.0269068 15.8714474,25.9814295 C15.9096053,25.9372705 15.9438158,25.8581795 15.9707895,25.8456568 C15.9997368,25.8351114 16.0490789,25.8133614 16.0675,25.8133614 C16.0846053,25.8133614 16.1846053,25.7955659 16.1846053,25.7955659 C16.1846053,25.7955659 16.2523684,25.8403841 16.2589474,25.8805886 M18.7385526,10.7247932 C18.7306579,10.7531341 18.7240789,10.781475 18.7148684,10.810475 C18.7148684,10.810475 18.7273684,10.7874068 18.7385526,10.7247932 M14.4346053,20.4542932 C14.4701316,20.4542932 14.4977632,20.3765205 14.5339474,20.3745432 C14.4859211,20.431225 14.5385526,20.4542932 14.4826316,20.4997705 C14.4326316,20.6698159 14.3372368,20.7409977 14.2240789,20.8523841 C14.2240789,20.8708386 14.2240789,20.8866568 14.2253947,20.9031341 C14.2076316,20.9031341 14.1911842,20.9051114 14.1727632,20.9051114 C14.2240789,20.6401568 14.3648684,20.6803614 14.4346053,20.4542932 M13.9727632,17.4864068 C13.8971053,17.5338614 13.8247368,17.5832932 13.7661842,17.6459068 C13.6846053,17.6089977 13.6431579,17.5404523 13.6043421,17.4396114 L13.6043421,17.3868841 C14.4477632,17.3611795 14.6253947,17.5944977 14.9227632,17.9998386 C14.9227632,18.053225 14.9240789,18.1072705 14.9253947,18.1586795 C14.9069737,18.1586795 14.8898684,18.1593386 14.8727632,18.1593386 C14.8477632,18.0921114 14.8378947,18.1230886 14.8175,17.9794068 C14.7642105,17.9794068 14.7128947,17.951725 14.6609211,17.951725 C14.6589474,17.8989977 14.6589474,17.8462705 14.6589474,17.7935432 C14.5773684,17.784975 14.4556579,17.8218841 14.3530263,17.6630432 C14.1878947,17.5971341 14.0523684,17.7454295 13.9727632,17.4864068 M15.0326316,18.3682705 C15.0589474,18.6167477 15.1372368,18.734725 15.0076316,18.9047705 C15.0089474,18.9397023 14.9872368,18.9654068 14.9885526,19.0003386 L14.9359211,19.0003386 C14.9286842,18.6899068 14.9260526,18.4928386 14.8221053,18.3175205 C14.8747368,18.3175205 14.9260526,18.3168614 14.98,18.3162023 C15.0273684,18.372225 14.9753947,18.3208159 15.0326316,18.3682705 M10.5885526,19.4241341 C10.5707895,19.4241341 10.5609211,19.4076568 10.5438158,19.4076568 C10.5201316,19.2020205 10.8457895,19.1097477 10.9773684,18.8599523 C11.1168421,18.8573159 11.2286842,18.8368841 11.3681579,18.836225 L11.3681579,18.8896114 C11.1346053,19.089975 10.8576316,19.1993841 10.5885526,19.4241341 M10.0142105,19.8255205 C9.99447368,19.8670432 9.94513158,19.9013159 9.86092105,19.8360659 C9.84447368,19.8360659 9.82539474,19.8011341 9.80763158,19.8011341 L9.80763158,19.7490659 C9.94710526,19.6759068 10.0694737,19.5941795 10.1707895,19.481475 C10.2227632,19.481475 10.2753947,19.4808159 10.3273684,19.4801568 L10.3273684,19.5315659 C10.2227632,19.6574523 10.2161842,19.7503841 10.0142105,19.8255205 M9.32276316,20.5281114 C9.03460526,20.8029523 8.68921053,21.0896568 8.54381579,21.199725 C8.31289474,21.3743841 8.10894737,21.5193841 7.90894737,21.6933841 C7.49578947,22.0532477 7.18263158,22.1442023 6.74118421,22.4737477 C6.45105263,22.6925659 6.20039474,22.9239068 5.89578947,23.1249295 C5.47473684,23.4030659 4.81947368,23.6732932 4.1425,23.715475 C4.18855263,23.7774295 4.24842105,23.8901341 4.24842105,23.9237477 C4.16157895,23.8934295 4.05894737,23.9092477 3.98394737,23.8868386 C3.81157895,23.831475 3.69118421,23.7530432 3.56815789,23.7207477 C3.46486842,23.6963614 3.37276316,23.6989977 3.28789474,23.6660432 C3.13,23.6087023 2.9925,23.4959977 2.82539474,23.3114523 C2.82407895,23.2231341 2.82407895,23.135475 2.82276316,23.0478159 C2.85763158,23.0142023 2.93,23.0432023 2.98065789,23.0636341 C3.12868421,23.1249295 3.25302632,23.2607023 3.35039474,23.3575886 C3.38657895,23.3569295 3.51815789,23.4215205 3.55236842,23.4202023 C3.47210526,23.3654977 3.3425,23.2613614 3.34776316,23.1479977 C3.76157895,23.3246341 3.91552632,23.5362023 4.77605263,23.3654977 C4.63921053,23.316725 4.27407895,23.3760432 4.18855263,23.3463841 C4.13723684,23.2699295 4.1175,23.2672932 4.08526316,23.2211568 C3.99973684,23.2402705 3.96289474,23.2686114 3.82078947,23.2448841 C3.68131579,23.2086341 3.47802632,23.1189977 3.34710526,22.9891568 L3.34447368,22.8830432 C3.48197368,22.9127023 3.60105263,22.9779523 3.73855263,23.0142023 C3.84776316,23.0458386 3.96618421,23.0458386 4.13394737,23.0834068 C4.42078947,23.1486568 4.88197368,23.0511114 5.02407895,23.0735205 C5.02407895,23.0563841 5.02407895,23.0385886 5.02342105,23.0201341 C5.04118421,23.0188159 5.06026316,23.0188159 5.07671053,23.0188159 C5.02342105,22.9838841 4.85631579,22.9766341 4.80302632,22.9390659 C4.76289474,22.8830432 4.78855263,22.8863386 4.76947368,22.7756114 C4.89447368,22.8085659 5.06026316,22.7894523 5.24315789,22.7347477 C5.35039474,22.7037705 5.41092105,22.6286341 5.52605263,22.5759068 C6.08789474,22.3280886 6.76815789,21.9214295 7.05236842,21.6802023 C7.09118421,21.6228614 7.08328947,21.6294523 7.10236842,21.5213614 C7.15565789,21.5200432 7.20763158,21.5193841 7.25960526,21.518725 C7.25105263,21.5437705 7.22671053,21.5892477 7.22671053,21.5892477 C6.62342105,22.1409068 6.65565789,22.1217932 6.55039474,22.1718841 C6.55039474,22.1718841 6.97539474,22.0097477 7.29644737,21.7026114 C7.42407895,21.6011114 7.49710526,21.5009295 7.59513158,21.4192023 C7.79118421,21.2550886 7.9675,21.1469977 8.05236842,21.0962477 C8.33394737,20.931475 8.57802632,20.8365659 8.77078947,20.7093614 C8.8425,20.6104977 9.13394737,20.4252932 9.23723684,20.3870659 C9.38065789,20.2183386 9.29447368,20.0891568 9.49513158,19.9639295 C9.50236842,19.9560205 9.73328947,19.9975432 9.86092105,19.9593159 C10.0043421,20.068725 9.60631579,20.2552477 9.32276316,20.5281114 M11.5339474,2.675975 C11.6253947,2.70629318 11.5852632,2.68586136 11.6392105,2.72540682 C11.5477632,2.69377045 11.5885526,2.71617955 11.5339474,2.675975 M18.0063158,8.85627045 L18.0063158,8.910975 C18.0247368,8.90833864 18.0438158,8.90833864 18.0602632,8.90833864 C17.9852632,9.041475 18.0740789,8.97029318 17.9056579,9.01577045 C17.9036842,8.96304318 17.9023684,8.910975 17.9023684,8.85758864 C17.9385526,8.85758864 17.9721053,8.85758864 18.0063158,8.85627045 M18.4714474,8.16620227 C18.4694737,8.23474773 18.4734211,8.27165682 18.4661842,8.27429318 C18.4556579,8.27956591 18.4003947,8.28945227 18.3148684,8.27429318 C18.3135526,8.20377045 18.2918421,8.13588409 18.2918421,8.06470227 C18.1168421,7.98692955 18.0707895,7.82281591 17.9405263,7.700225 L17.9405263,7.64683864 C18.1832895,7.79117955 18.2635526,8.00208864 18.4714474,8.16620227 M15.3852632,25.6795659 C15.4385526,25.6782477 15.4911842,25.6782477 15.5438158,25.6782477 L15.5438158,25.730975 C15.2096053,25.9280432 14.8668421,26.1000659 14.6622368,26.4263159 L14.6089474,26.4263159 C14.6089474,26.4441114 14.6096053,26.4612477 14.6096053,26.4790432 C15.0813158,26.3637023 16.2602632,25.527975 16.4806579,25.1938159 C16.5773684,25.1641568 16.6161842,25.1641568 16.6385526,25.2432477 C16.6332895,25.2498386 16.6122368,25.3368386 16.5655263,25.4198841 C16.4207895,25.4357023 16.4313158,25.6110205 16.4313158,25.6162932 C16.6096053,25.6031114 16.7128947,25.5958614 16.7563158,25.5266568 C16.8017105,25.4515205 16.7846053,25.3150886 16.8076316,25.2208386 C16.8247368,25.1496568 16.8681579,25.0738614 16.9306579,24.9855432 C17.0839474,24.7640886 17.1931579,24.8708614 17.3661842,24.759475 C17.5760526,24.6276568 17.9464474,24.2677932 18.1471053,24.1188386 C18.4109211,23.9217705 18.3832895,24.1003841 18.5628947,23.9553841 C19.0971053,23.5190659 19.4471053,23.2027023 19.5102632,23.1559068 C19.6971053,23.0142023 19.7464474,23.1084523 19.9365789,22.9812477 C19.98,22.9522477 20.1786842,22.7057477 20.3688158,22.5930432 C20.6984211,22.3966341 20.8806579,22.4229977 21.1615789,22.1850659 C21.2536842,22.1079523 21.3036842,22.0532477 21.3517105,22.0097477 C21.4056579,21.9734977 21.4615789,21.9372477 21.5128947,21.9042932 C21.5503947,21.8864977 21.5931579,21.8680432 21.6523684,21.8476114 C21.6523684,21.8752932 21.8536842,21.7599523 21.9319737,21.6643841 C21.9563158,21.6551568 21.9944737,21.6439523 22.0681579,21.6413159 C22.1806579,21.6353841 22.1247368,21.6353841 22.2648684,21.5464068 C22.4023684,21.4547932 22.4872368,21.4159068 22.5326316,21.3704295 C22.5773684,21.3269295 22.7017105,21.2926568 22.7635526,21.2471795 C22.8253947,21.2017023 23.0089474,21.105475 23.0319737,21.1002023 C23.0556579,21.0942705 23.155,21.0731795 23.3181579,21.0375886 C23.4806579,21.0059523 23.4701316,20.9031341 23.4701316,20.9031341 L23.4142105,20.9090659 C23.4142105,20.9090659 23.4030263,20.9374068 23.3286842,20.9710205 C23.2569737,21.0059523 23.2628947,20.9776114 23.2234211,20.9591568 C23.1846053,20.9433386 23.0438158,20.9374068 23.0438158,20.9374068 C22.9484211,20.9874977 22.9819737,21.0000205 22.8971053,21.0665886 C22.8135526,21.134475 22.6951316,21.1964295 22.6503947,21.2129068 C22.6069737,21.2293841 22.4661842,21.264975 22.3655263,21.3038614 C22.2648684,21.3427477 22.2365789,21.366475 22.1517105,21.4271114 C22.0681579,21.4890659 21.9444737,21.5582705 21.8780263,21.5852932 C21.8260526,21.6077023 21.7405263,21.6689977 21.7017105,21.6986568 C21.305,21.8904523 20.7655263,22.2793159 20.6918421,22.2450432 L20.6392105,22.2450432 C20.8234211,21.9708614 21.1885526,21.8930886 21.4707895,21.7085432 C21.9326316,21.4047023 23.3865789,20.394975 24.0957895,20.4859295 C24.2780263,20.489225 24.4668421,20.4582477 24.6010526,20.5650205 C24.6530263,20.5986341 24.8346053,20.5696341 24.8951316,20.605225 C24.9642105,20.6480659 24.9043421,20.7205659 24.8602632,20.7291341 C24.7602632,20.7495659 24.6727632,20.6698159 24.5260526,20.6599295 C24.2905263,20.6441114 23.9786842,20.7245205 23.9207895,20.6249977 C23.8003947,20.6434523 23.7911842,20.6507023 23.7115789,20.6797023 C23.6773684,20.7508841 23.6971053,20.8780886 23.7767105,20.9433386 C23.905,20.9571795 24.1438158,20.8761114 24.2925,20.9874977 C24.3352632,21.0204523 24.3063158,20.989475 24.2931579,21.0415432 C24.4898684,21.3467023 22.7964474,22.0459977 22.0444737,22.5660205 C21.8701316,22.6846568 21.6767105,22.7927477 21.5911842,22.917975 C21.5740789,22.917975 21.4332895,23.0603386 21.4332895,23.0781341 C21.8701316,22.903475 22.3675,22.5732705 22.6839474,22.3913614 C22.8484211,22.2951341 23.0490789,22.2476795 23.1846053,22.1804523 C23.3767105,22.0835659 23.4839474,21.9767932 23.5944737,21.9234068 C23.8122368,21.8179523 24.1030263,21.8766114 24.3102632,21.8331114 C24.3102632,21.8331114 24.5240789,21.7817023 24.5576316,21.8047705 C24.5911842,21.8271795 24.5971053,21.8825432 24.4951316,21.9570205 C24.3944737,22.0288614 24.305,22.1540886 24.2214474,22.2160432 C24.1372368,22.2773386 24.0694737,22.2793159 24.0694737,22.2793159 C23.9786842,22.3274295 23.8122368,22.3472023 23.7339474,22.4164068 C23.6984211,22.4164068 23.5030263,22.5831568 23.4681579,22.5831568 C23.8234211,22.4460659 24.3885526,22.3274295 24.4714474,22.2911795 C24.5609211,22.2503159 24.6503947,22.1573841 24.7260526,22.0974068 C24.8813158,21.9767932 24.9997368,21.8799068 25.0905263,21.8331114 C25.3635526,21.6914068 25.5260526,21.7316114 25.8214474,21.6011114 C25.8872368,21.5721114 26.1142105,21.4271114 26.1688158,21.4106341 C26.3096053,21.3651568 26.8839474,21.5352023 27.2444737,21.5378386 C27.2115789,21.6294523 27.1832895,21.5964977 27.1832895,21.6037477 C27.1865789,21.6788841 27.2148684,21.7474295 27.1786842,21.823225 C27.1431579,21.9042932 27.03,21.9906341 26.9707895,22.0604977 C26.9082895,22.134975 27.0359211,22.1198159 26.9517105,22.1804523 C26.7602632,22.3149068 26.3372368,22.482975 26.0872368,22.5086795 C26.3339474,22.642475 27.2260526,22.2259295 27.4359211,22.1072932 C27.9142105,21.8331114 28.2655263,21.3776795 28.6214474,21.0263841 C28.7096053,20.9380659 28.7161842,20.8286568 28.8135526,20.7416568 C28.8681579,20.6942023 28.9378947,20.7159523 28.9957895,20.6684977 C29.1161842,20.5729295 29.2017105,20.4944977 29.3523684,20.4028841 C29.4043421,20.1517705 29.4089474,19.7418159 29.2543421,19.5566114 C28.9865789,19.2771568 27.5668421,18.879725 27.0148684,18.7373614 C26.8556579,18.6964977 26.6503947,18.7301114 26.5714474,18.749225 C26.1609211,18.8500659 25.6984211,18.8210659 25.4293421,18.7544977 C25.1339474,18.6819977 25.0582895,18.9054295 24.8438158,18.8764295 C23.8892105,18.7472477 22.18,19.5803386 21.3865789,20.133975 C21.3332895,20.2058159 21.1911842,20.2743614 21.1405263,20.344225 C21.0471053,20.4055205 20.8681579,20.3844295 20.7925,20.4641795 C20.6951316,20.5729295 20.5089474,20.7218841 20.3326316,20.8451341 C19.7675,21.2399295 19.1510526,21.6380205 18.58,22.0506114 C18.4175,22.1679295 18.4523684,22.2134068 18.3326316,22.3808159 C18.28,22.3617023 18.2622368,22.3893841 18.2102632,22.3735659 C18.0523684,22.482975 17.8990789,22.6095205 17.7734211,22.6952023 C17.3161842,23.012225 16.9615789,23.3226568 16.5069737,23.6614295 C15.8846053,24.1221341 14.5056579,25.1569068 13.8076316,25.4126341 C13.6892105,25.4449295 13.5418421,25.4370205 13.4444737,25.4291114 C13.3675,25.3552932 13.2214474,25.295975 13.1892105,25.2808159 C13.1596053,25.2056795 13.1819737,25.1015432 13.1398684,25.0343159 C13.0714474,24.9163386 12.9898684,24.8359295 13.0392105,24.686975 C13.0530263,24.6421568 13.0615789,24.592725 13.055,24.5512023 C13.0425,24.4490432 12.9938158,24.3936795 13.0425,24.3376568 C13.0905263,24.2829523 13.1517105,24.0839068 13.1517105,24.0575432 C13.1517105,24.0305205 13.1925,23.838725 13.1925,23.838725 C13.1925,23.838725 13.0767105,24.0984068 13.0089474,24.2625205 C12.9984211,24.2869068 12.9898684,24.3106341 12.9819737,24.3343614 C12.9773684,24.2691114 12.9734211,24.2045205 12.9721053,24.1412477 C12.9734211,24.1386114 13.0023684,23.9487932 13.0688158,23.7504068 C13.3392105,22.9456568 13.6398684,22.3860886 13.7451316,22.2325205 C13.7451316,22.2325205 13.3536842,22.7242023 12.98,23.6851568 C12.9175,23.802475 12.7964474,24.0450205 12.7977632,24.0812705 C12.7793421,24.0812705 12.7615789,24.0812705 12.7451316,24.0819295 C12.9596053,22.526475 14.1898684,21.4778614 14.9530263,20.4219977 C15.2444737,20.0206114 15.7451316,19.307475 15.7207895,18.9390432 C15.7207895,18.9390432 15.5273684,19.3760205 15.4661842,19.416225 C15.4477632,19.416225 15.43,19.4168841 15.4122368,19.4168841 C15.5484211,18.9238841 15.7596053,18.3623386 15.3773684,17.6854523 C15.1582895,17.4158841 15.0280263,17.3941341 14.8175,17.2399068 C14.7003947,17.1700432 14.7017105,17.1094068 14.7017105,17.1094068 C15.6109211,17.3539295 15.8096053,17.8910886 15.7451316,18.930475 C15.8109211,18.6220205 15.8392105,18.5224977 15.8839474,18.3682705 C15.8905263,18.0308159 15.8023684,17.668975 15.6510526,17.5187023 C14.9931579,16.7778841 13.3911842,16.8879523 12.5260526,17.2511114 C12.3306579,17.335475 12.0253947,17.4508159 11.7431579,17.5450659 C11.5214474,17.6202023 11.3247368,17.6630432 11.1339474,17.7638841 C10.9984211,17.835725 10.8701316,17.9306341 10.7780263,18.0018159 C10.505,18.2107477 10.2668421,18.2674295 9.94052632,18.4770205 C9.41552632,18.8124977 8.8175,19.271225 8.38526316,19.6007705 C8.02671053,19.872975 7.81421053,20.090475 7.76618421,20.1451795 C7.47144737,20.3705886 7.17144737,20.6375205 6.88460526,20.8392023 C6.52671053,21.0916341 6.06552632,21.3434068 5.68592105,21.4323841 C5.23328947,21.5068614 4.94578947,21.562225 4.68657895,21.1825886 C4.63657895,20.9670659 4.58394737,20.764725 4.57736842,20.576225 C4.53789474,19.6297705 5.03394737,18.930475 5.40960526,18.2740205 C5.48789474,18.1362705 5.44973684,18.0235659 5.53789474,17.9088841 C5.53592105,17.8910886 5.53592105,17.8732932 5.53592105,17.8568159 C5.27539474,17.9088841 5.12276316,18.2469977 5.12342105,18.2825886 L5.07013158,18.2825886 C5.08789474,18.0446568 5.205,17.9022932 5.33460526,17.7454295 C5.42210526,17.6412932 5.47802632,17.4864068 5.56947368,17.3842477 C5.61552632,17.3288841 5.69710526,17.3222932 5.73723684,17.2741795 C5.77144737,17.1667477 5.80763158,17.0975432 5.84052632,16.9920886 C5.96092105,16.9031114 6.08197368,16.7798614 6.20302632,16.690225 C6.28789474,16.5748841 6.32276316,16.4786568 6.43460526,16.3685886 C6.49315789,16.3125659 6.56092105,16.2947705 6.63328947,16.2446795 C6.69513158,16.2011795 6.7425,16.1115432 6.81092105,16.0673841 C6.97407895,15.9573159 7.16092105,15.892725 7.29315789,15.7813386 C7.31684211,15.7193841 7.34381579,15.6930205 7.39052632,15.5730659 C7.52144737,15.4854068 7.69052632,15.4834295 7.81421053,15.4063159 C8.23986842,15.1341114 8.65105263,14.921225 9.16618421,14.7057023 C9.47671053,14.5752023 9.64315789,14.3616568 9.75171053,14.319475 C9.87342105,14.3168386 9.98394737,14.2739977 10.1056579,14.2733386 C10.1852632,14.2463159 10.3339474,14.1448159 10.5096053,14.072975 C10.8188158,13.9484068 11.1964474,13.8244977 11.3036842,13.7309068 L11.3576316,13.7309068 C11.3898684,13.7915432 11.4352632,13.8258159 11.3846053,13.8805205 C11.2826316,13.9853159 11.0846053,14.0413386 10.8714474,14.1342705 C10.7359211,14.1942477 10.5911842,14.2779523 10.4418421,14.3392477 C10.3536842,14.3761568 10.2622368,14.3867023 10.1753947,14.4222932 C9.80105263,14.5831114 9.45763158,14.7452477 9.32605263,14.913975 C9.18263158,14.8790432 9.28131579,14.950225 9.26092105,14.812475 C9.08263158,14.8691568 8.83065789,15.0042705 8.57078947,15.174975 C8.48460526,15.2303386 8.43855263,15.319975 8.35302632,15.3812705 C8.08657895,15.573725 7.70697368,15.7800205 7.50697368,16.0937477 C7.49052632,16.0937477 7.37736842,16.2822477 7.37736842,16.3000432 C7.58065789,16.1286795 7.90236842,15.8090205 8.13131579,15.7180659 C8.37276316,15.6224977 8.56947368,15.6864295 8.75828947,15.5532932 C9.03197368,15.3555659 9.32473684,15.0128386 9.64184211,14.8572932 C9.88131579,14.7393159 10.0865789,14.7966568 10.3207895,14.6912023 C10.5161842,14.602225 10.4846053,14.4657932 10.5911842,14.4084523 C11.2398684,14.0604523 11.9911842,13.9668614 12.7194737,13.7131114 C12.8859211,13.6544523 13.1069737,13.5206568 13.2747368,13.4692477 C13.5207895,13.3947705 13.8826316,13.4257477 14.1003947,13.3862023 C14.4142105,13.3328159 14.6957895,13.2115432 14.705,13.2141795 C14.8221053,13.2425205 14.8102632,13.4356341 15.18,13.3664295 C15.3964474,13.326225 15.5484211,13.0441341 15.7530263,12.9907477 C16.7484211,12.7290886 17.8332895,12.4872023 18.4582895,11.4313386 C18.5543421,11.339725 18.6076316,9.36706591 18.3240789,9.063225 C18.3240789,9.01115682 18.3240789,8.95777045 18.3221053,8.90438409 L18.3753947,8.90438409 C18.5036842,9.15615682 18.6286842,9.39145227 18.7030263,9.69595227 C18.7826316,10.3009977 18.7609211,10.5949523 18.7385526,10.7247932 C18.8346053,10.346475 18.8188158,9.99913409 18.7977632,9.79745227 C18.7990789,9.74670227 18.7977632,9.70320227 18.8043421,9.68936136 C18.8043421,9.66958864 18.8043421,9.65377045 18.8030263,9.63663409 C18.8319737,9.53249773 18.8964474,9.74670227 18.8964474,9.74670227 L18.9036842,9.74670227 C18.9418421,9.85742955 18.9661842,9.98727045 18.9707895,10.1388614 C18.9707895,10.1388614 19.0885526,9.84688409 18.7990789,9.27677045 C18.7990789,9.23854318 18.7977632,9.200975 18.7977632,9.16274773 L18.8503947,9.16274773 C18.8503947,9.179225 18.905,9.26292955 18.9293421,9.29192955 C19.1839474,9.59774773 19.2175,10.2680432 19.0892105,10.7623614 L19.0892105,10.7649977 C19.0207895,11.0095205 18.8536842,11.3298386 18.5418421,11.6692705 C18.5418421,11.6692705 19.305,11.2184523 19.4523684,10.4901568 C19.4536842,10.4875205 19.4438158,10.5778159 19.4438158,10.5751795 C19.5694737,9.88577045 19.1418421,9.31895227 19.0043421,8.94986136 C18.8734211,8.59724773 18.9786842,8.48520227 18.7786842,8.22552045 C18.2076316,7.48470227 16.3734211,6.47892955 15.1964474,6.36490682 C15.2589474,6.17377045 15.4063158,6.03931591 15.5576316,5.94045227 C15.5082895,5.77963409 15.4694737,5.78556591 15.4490789,5.57333864 C15.6510526,5.36374773 15.9069737,5.11856591 16.0694737,4.88195227 C16.1385526,4.78045227 16.2556579,4.55504318 16.3405263,4.47133864 C16.6010526,4.39554318 16.7234211,4.40608864 16.9865789,4.33358864 C17.2780263,4.15695227 17.4694737,3.93154318 17.6767105,3.857725 C17.9898684,3.81686136 18.3148684,3.74633864 18.5721053,3.69163409 C18.7036842,3.61715682 18.7931579,3.43986136 18.9885526,3.40163409 C19.0938158,3.41745227 19.1977632,3.40229318 19.3036842,3.41877045 C19.505,3.36867955 19.7642105,3.24213409 19.9543421,3.18149773 C20.1267105,3.15974773 20.2780263,3.10767955 20.4523684,3.08988409 C20.5925,3.02002045 20.6359211,2.89742955 20.8536842,2.85195227 C21.43,2.81042955 21.9148684,2.73727045 22.4905263,2.69508864 C23.105,2.41431591 23.7813158,2.20406591 24.3694737,1.88111136 C25.1175,1.472475 26.1115789,0.843043182 26.6056579,0.590611364 C26.6240789,0.538543182 26.6405263,0.485156818 26.6582895,0.431770455 C26.6003947,0.384975 26.6517105,0.437043182 26.6036842,0.381020455 C26.0681579,0.458793182 25.5286842,0.917520455 24.9372368,1.189725 C24.7892105,1.25958864 24.7431579,1.21345227 24.6168421,1.29649773 C24.4457895,1.40986136 24.1556579,1.64383864 23.9477632,1.73083864 C23.8253947,1.747975 23.7063158,1.80465682 23.5846053,1.82508864 C23.4030263,1.90483864 23.1530263,2.06499773 22.9563158,2.11113409 C22.7543421,2.15595227 22.5096053,2.030725 22.3747368,2.00567955 C22.2221053,1.97667955 20.7878947,2.00765682 20.5740789,2.088725 C20.5352632,2.10454318 20.4155263,2.18495227 20.3878947,2.19615682 C20.2319737,2.25942955 19.9997368,2.21724773 19.8892105,2.28579318 C19.8359211,2.28711136 19.8135526,2.255475 19.7596053,2.25613409 L19.7596053,2.20406591 C19.7767105,2.20340682 19.7944737,2.20340682 19.8109211,2.20340682 C19.8536842,2.146725 20.0122368,2.05906591 20.1865789,1.97074773 C20.2780263,1.95690682 20.3813158,1.94240682 20.4273684,1.93054318 C20.5214474,1.90813409 20.7332895,1.878475 20.8280263,1.86727045 C20.9221053,1.85606591 20.8694737,1.79411136 20.9530263,1.76115682 C21.0372368,1.73083864 21.7326316,1.64581591 21.9543421,1.63592955 C21.9543421,1.63592955 21.6806579,1.62340682 21.2694737,1.64581591 C20.9115789,1.66361136 20.8648684,1.689975 20.7339474,1.69656591 C20.7688158,1.675475 20.7786842,1.66295227 20.7497368,1.66361136 C20.7471053,1.64713409 20.7471053,1.62999773 20.7471053,1.61154318 C21.0826316,1.48565682 21.7931579,1.44083864 22.1727632,1.399975 C21.8694737,1.32945227 20.9510526,1.40129318 20.6457895,1.436225 C20.1418421,1.49092955 19.6793421,1.64581591 19.2063158,1.78290682 C18.7082895,1.92856591 18.1997368,2.05774773 17.7135526,2.17704318 C17.0938158,2.32731591 17.0701316,1.82508864 16.2069737,2.30029318 C15.7464474,2.55404318 15.5003947,3.00552045 15.1931579,3.34627045 C15.0365789,3.51961136 14.8536842,3.71338409 14.6286842,3.79049773 C14.28,3.91770227 14.2069737,3.92824773 13.8280263,3.89661136 C13.5714474,3.87420227 13.4701316,3.63824773 13.3128947,3.53674773 C13.0365789,3.35945227 12.7069737,3.30408864 12.4313158,3.13733864 C12.1760526,2.98311136 11.9694737,2.67465682 11.6589474,2.59754318 C11.5036842,2.55140682 11.0846053,2.64170227 10.8240789,2.661475 C10.4925,2.66674773 10.1069737,2.54086136 9.87210526,2.57908864 C9.72276316,2.610725 9.57671053,2.63774773 9.56026316,2.80186136 C9.49842105,3.09977045 9.5175,3.39899773 9.42868421,3.66395227 C9.25039474,3.91308864 8.82868421,3.70349773 8.51355263,3.64879318 C8.17144737,3.61320227 7.83394737,3.603975 7.55302632,3.741725 C7.32210526,3.85508864 7.25302632,3.97504318 7.10236842,4.15365682 C7.05434211,4.21099773 6.88460526,4.51813409 6.99776316,4.67895227 C7.05434211,4.71849773 7.07210526,4.71849773 7.18065789,4.73827045 C7.18855263,4.60117955 7.13921053,4.56690682 7.2175,4.473975 C7.26421053,4.45156591 7.75302632,4.20242955 8.27539474,4.43508864 C8.39842105,4.52208864 8.49907895,4.57349773 8.62210526,4.65786136 C8.63657895,4.68092955 8.70368421,4.82065682 8.62013158,4.95642955 C8.53,5.09681591 8.28789474,5.23654318 8.20960526,5.26883864 C8.0425,5.33408864 7.78263158,5.35649773 7.56618421,5.30442955 C7.26092105,5.26224773 7.34513158,5.14558864 7.18723684,5.08627045 C7.0175,5.024975 6.90697368,5.08758864 6.73460526,5.03024773 C6.40105263,4.91952045 6.19710526,4.763975 5.86026316,4.78770227 C5.76421053,4.792975 5.34381579,4.87206591 5.28197368,4.89908864 C5.05236842,4.99992955 4.99513158,5.19831591 4.855,5.44217955 C4.38526316,5.51995227 2.70039474,5.33408864 2.59184211,5.41581591 C2.46881579,5.41515682 2.2925,5.46524773 2.19513158,5.43558864 C1.80171053,5.31563409 1.6675,4.96302045 1.44447368,4.80681591 C1.35105263,4.74090682 1.08460526,4.75342955 0.831315789,4.83713409 C0.636578947,4.90238409 0.441842105,5.03024773 0.396447368,5.07967955 C0.274078947,5.22006591 0.238552632,5.41186136 0.174078947,5.60431591 C0.0813157895,5.87981591 0.00565789474,6.07292955 0.000394736842,6.38138409 C-0.00355263158,6.63579318 0.0457894737,7.00488409 0.108947368,7.24017955 C0.166184211,7.44977045 0.0721052632,7.62245227 0.161578947,7.77536136 C0.360263158,8.11874773 0.788552632,8.32833864 1.01815789,8.65063409 C1.09776316,8.642725 1.17407895,8.63942955 1.24644737,8.63283864 C1.32605263,8.61108864 1.33789474,8.58538409 1.40763158,8.584725 C1.66223684,8.57879318 1.66552632,8.72049773 1.79842105,8.72774773 C2.01092105,8.74224773 2.05171053,8.64008864 2.48460526,8.62954318 C2.60960526,8.38040682 2.71552632,8.22090682 2.95171053,8.15170227 C3.34776316,7.98824773 3.89578947,8.11742955 4.26026316,8.08249773 C4.86684211,8.02515682 5.43526316,7.81820227 5.79776316,7.627725 C6.21421053,7.40495227 7.38394737,7.97506591 7.56486842,8.14577045 C7.63328947,8.18070227 7.69052632,8.19388409 7.73723684,8.16752045 C8.00631579,7.98824773 7.98065789,7.64354318 8.44776316,7.39836136 C8.56618421,7.34629318 8.60631579,7.352225 8.70894737,7.446475 C8.72802632,7.55127045 8.73921053,7.61520227 8.79973684,7.76481591 C8.93131579,7.76811136 8.96684211,7.75163409 9.02802632,7.81161136 C9.07013158,7.84456591 9.05894737,7.87356591 9.04842105,7.924975 C8.96684211,8.07392955 8.52013158,8.50233864 8.07342105,8.74027045 C7.8675,8.85165682 7.68723684,8.83188409 7.48,8.90306591 C7.24776316,8.98017955 6.99513158,9.20492955 6.77736842,9.30181591 C6.66618421,9.35124773 6.51355263,9.33806591 6.4175,9.37629318 C6.19052632,9.46329318 6.19381579,9.708475 6.01223684,9.79679318 C5.77934211,9.86138409 5.73131579,9.86006591 5.55631579,9.86138409 C5.38328947,9.87324773 5.34578947,9.99056591 5.01947368,10.0729523 C4.98526316,10.0742705 4.94907895,10.0742705 4.91355263,10.0742705 C5.08986842,10.0096795 5.27013158,9.75461136 5.27539474,9.59642955 C5.32013158,9.36508864 5.30894737,9.23129318 5.26552632,9.12649773 C5.13197368,8.81342955 4.80039474,8.98874773 4.78855263,8.52145227 C4.69447368,8.58538409 4.56289474,8.70336136 4.50171053,8.79958864 C4.43723684,8.744225 4.44184211,8.65195227 4.48986842,8.57286136 C4.39052632,8.55704318 4.21552632,8.88131591 4.21552632,8.89977045 C4.155,8.79299773 4.19052632,8.77783864 4.21552632,8.66183864 C4.04118421,8.72511136 3.88921053,8.89977045 3.78855263,9.04740682 C3.73131579,9.11858864 3.63986842,9.35124773 3.67013158,9.57665682 C3.70697368,9.83963409 3.87473684,10.1803841 4.28657895,10.1882932 C4.32802632,10.3458159 4.20763158,10.3491114 4.07539474,10.4183159 C3.98657895,10.4585205 4.00171053,10.368225 3.87078947,10.3504295 C3.74052632,10.3326341 3.60960526,10.4143614 3.555,10.4064523 C3.35302632,10.3814068 3.21026316,9.99649773 3.00828947,9.89104318 C2.88592105,10.078225 2.69710526,10.0900886 2.5425,10.2383841 C2.44052632,10.2970432 2.39644737,10.3273614 2.38921053,10.5099295 C2.33131579,10.6964523 2.30434211,10.7729068 2.19513158,11.0853159 C2.15697368,11.1940659 2.07473684,11.259975 1.99842105,11.4313386 C1.84447368,11.7582477 1.84776316,11.9507023 1.85105263,12.4806114 C1.87210526,12.7930205 2.30236842,13.2721795 2.5675,13.4942932 C2.505,13.5424068 2.53131579,13.5160432 2.45434211,13.5483386 C2.62539474,13.8857932 2.99842105,14.072975 3.13,14.0960432 C3.19184211,14.116475 3.22407895,14.1217477 3.28,14.116475 C3.36157895,14.1118614 3.44644737,14.0564977 3.53,14.0485886 C3.69447368,14.0347477 3.77605263,14.1276795 3.85302632,14.116475 C3.95960526,14.1065886 3.95697368,14.0525432 4.11355263,13.9905886 C4.20302632,13.9543386 4.31486842,13.9668614 4.42671053,13.9194068 C4.49578947,13.8897477 4.52934211,13.8561341 4.60171053,13.8185659 C4.67802632,13.7816568 4.79644737,13.8343841 4.87473684,13.7915432 C5.17407895,13.6280886 5.43526316,13.2748159 5.54315789,13.1054295 C5.61289474,12.9966795 5.63131579,12.9222023 5.65105263,12.7877477 C5.65105263,12.7772023 5.71618421,12.7686341 5.71815789,12.7561114 C5.74513158,12.535975 5.69710526,12.260475 5.77934211,12.1161341 C5.83526316,12.0752705 5.82671053,12.0825205 5.93723684,12.0607705 C5.955,11.9533386 5.94842105,11.9599295 5.98657895,11.9039068 C6.02671053,11.8524977 6.2675,11.7641795 6.48921053,11.6363159 C6.71026316,11.5091114 6.78657895,11.4722023 6.99381579,11.3410432 C7.02210526,11.3206114 7.20302632,11.3094068 7.32473684,11.3074295 C7.35763158,11.2916114 8.22934211,10.4341341 8.26684211,10.3794295 C8.36486842,10.2383841 8.34973684,10.1237023 8.49907895,10.0432932 C8.65236842,10.0090205 8.79381579,9.99056591 8.95039474,9.97079318 C9.16618421,9.90158864 9.99447368,9.58654318 10.2563158,9.48042955 C10.4477632,9.47252045 10.7188158,9.45142955 10.8332895,9.52854318 C10.9023684,9.57731591 10.9155263,9.59049773 10.9372368,9.70188409 C11.2076316,9.65574773 11.4096053,9.47317955 11.5642105,9.30642955 C11.7293421,9.30445227 11.8806579,9.29192955 11.9944737,9.33279318 C12.2602632,9.43165682 12.3003947,9.63663409 12.6155263,9.60961136 C12.6984211,9.53052045 12.7030263,9.53842955 12.8589474,9.51602045 C12.8530263,9.411225 12.8497368,9.36706591 12.8589474,9.28336136 C12.8628947,9.25502045 13.0063158,9.15615682 13.0734211,9.14824773 C13.6957895,9.07245227 14.2425,9.29654318 14.6734211,9.62345227 C14.8701316,9.77042955 15.0175,10.0973386 15.2398684,10.2443159 C15.1517105,10.6681114 14.9819737,11.2448159 14.6846053,11.4787932 C14.1234211,11.9184068 13.7247368,11.8749068 13.1003947,12.0779068 C12.5885526,12.2439977 12.0734211,12.4733614 11.6056579,12.673725 C11.1786842,12.8569523 10.7188158,12.9643841 10.2852632,13.137725 C9.35631579,13.5061568 8.45105263,13.9905886 7.58065789,14.420975 C6.98592105,14.7169068 6.21289474,15.1683841 5.43065789,15.6692932 C5.08921053,15.8887705 4.705,16.0963841 4.37276316,16.3554068 C3.87144737,16.7436114 3.41092105,17.1502705 3.01157895,17.5846114 C2.51223684,18.1277023 2.14842105,18.7228614 1.87342105,19.3839295 C1.78723684,19.5915432 1.69973684,19.851225 1.62342105,20.1366114 C1.60171053,20.2242705 1.60763158,20.3600432 1.58723684,20.4542932 C1.56684211,20.5492023 1.52802632,20.6032477 1.50105263,20.7014523 C1.41618421,21.0217705 1.35434211,21.264975 1.38197368,21.5971568 C1.41223684,21.9306568 1.56223684,22.3564295 1.67671053,22.5904068 C1.79052632,22.8296568 2.01881579,22.917975 2.16815789,23.1044977 C2.40171053,23.3971341 2.45434211,23.5895886 2.77934211,23.7846795 C3.19315789,24.034475 3.57407895,24.0219523 4.22868421,24.1122477 C4.34513158,24.128725 4.70368421,24.0733614 4.98526316,23.969225 C5.20434211,23.8868386 5.71026316,23.6001341 6.08657895,23.3997705 C6.30434211,23.2837705 6.44644737,23.2409295 6.54710526,23.1592023 C6.66421053,23.062975 6.68,22.8771114 6.81092105,22.7828614 C6.94973684,22.7274977 7.08131579,22.6273159 7.22078947,22.5732705 C7.43065789,22.4124523 7.47144737,22.2134068 7.8675,21.9662477 C8.18723684,21.7672023 8.37078947,21.6248386 8.67342105,21.395475 C8.94513158,21.0685659 9.18263158,20.9117023 9.33592105,20.7264977 C9.61289474,20.5169068 9.87671053,20.293475 10.0734211,20.0094068 C10.1122368,20.0654295 10.0931579,20.1029977 10.1148684,20.2130659 C10.3464474,19.9593159 10.5293421,19.9876568 10.7628947,19.8907705 C10.9194737,19.8255205 11.0911842,19.7161114 11.2201316,19.6258159 C11.3707895,19.5243159 11.4898684,19.3555886 11.6365789,19.2540886 C11.7931579,19.1459977 12.0115789,19.1051341 12.1563158,18.9845205 C12.1905263,18.8948841 12.2918421,18.8124977 12.3247368,18.7261568 C12.4431579,18.6411341 12.6543421,18.633225 12.8346053,18.5778614 C13.0582895,18.5093159 13.1635526,18.3208159 13.3536842,18.335975 C14.0201316,18.4493386 14.5405263,19.5388159 14.1128947,20.2756795 C13.7569737,20.8853386 13.4201316,21.5299295 13.0346053,22.1316795 C12.7707895,22.5436114 12.3806579,22.9858614 12.1201316,23.4202023 C11.9135526,23.766225 11.8346053,24.0970886 11.6490789,24.4628841 C11.5951316,24.5703159 11.4142105,24.8056114 11.3161842,25.0376114 C11.2609211,25.1621795 11.3372368,25.2287477 11.2780263,25.3928614 C11.2378947,25.5095205 11.1951316,25.527975 11.1707895,25.6327705 C11.1115789,25.8693841 11.0905263,26.0901795 11.1471053,26.2589068 C11.1760526,26.3459068 11.3260526,26.5699977 11.3609211,26.6774295 C11.3615789,26.7664068 11.3642105,26.8520886 11.3642105,26.9410659 C11.4365789,27.0972705 11.6109211,27.1658159 11.6839474,27.3562932 C12.0253947,27.521725 12.1003947,27.3226795 12.2530263,27.238975 C12.2530263,27.238975 12.4892105,27.1394523 12.5819737,27.238975 C12.6701316,27.3391568 12.7168421,27.3391568 12.8168421,27.3127932 C12.9175,27.2844523 12.9346053,27.2844523 13.0089474,27.2844523 C13.0813158,27.2844523 13.1990789,27.2119523 13.1990789,27.2119523 C13.1990789,27.2119523 13.2253947,27.1757023 13.3082895,27.1658159 C13.3911842,27.1585659 13.4365789,27.1289068 13.5372368,27.0755205 C13.6365789,27.0201568 13.6543421,26.9825886 13.7451316,26.9661114 C13.8365789,26.9469977 13.8188158,26.9278841 13.9181579,26.9469977 C14.0181579,26.9661114 13.9642105,27.0023614 14.0543421,26.9661114 C14.1471053,26.9278841 14.2273684,26.8461568 14.3280263,26.7907932 C14.4280263,26.7367477 14.5010526,26.6181114 14.5280263,26.6095432 C14.555,26.5989977 14.6556579,26.5449523 14.6109211,26.5449523 C14.5642105,26.5449523 14.5464474,26.5620886 14.5194737,26.5363841 C14.4911842,26.5087023 14.4911842,26.4717932 14.4911842,26.4441114 L14.4911842,26.4170886 C14.4911842,26.4170886 14.4280263,26.397975 14.4010526,26.4625659 C14.3734211,26.528475 14.1819737,26.6721568 14.1273684,26.6721568 C14.0727632,26.6721568 14.0181579,26.6721568 13.9819737,26.709725 C13.9451316,26.7466341 13.9365789,26.7907932 13.8905263,26.7907932 C13.8464474,26.7907932 13.6556579,26.883725 13.6556579,26.883725 C13.6556579,26.883725 13.4082895,26.9114068 13.3721053,26.9371114 C13.3359211,26.9661114 13.2089474,27.0478386 13.155,27.0023614 C13.0990789,26.9555659 13.1273684,26.8995432 13.2905263,26.8461568 C13.4543421,26.7907932 13.7536842,26.6181114 13.8536842,26.5620886 C13.9563158,26.5087023 14.1003947,26.4803614 14.1003947,26.4803614 C14.1003947,26.4803614 14.1819737,26.4263159 14.2010526,26.3623841 C14.2188158,26.2977932 14.3181579,26.3432705 14.3931579,26.2714295 C14.4648684,26.1982705 14.555,26.1244523 14.6286842,26.1244523 C14.7003947,26.1244523 15.0109211,25.970225 15.0925,25.8950886 C15.1740789,25.8219295 15.3326316,25.7006568 15.3852632,25.6795659" id="Fill-1" fill="#00437C" mask="url(#mask-2)"></path>
                        </g>
                        <path d="M69.7563158,14.1427727 C70.0398684,13.2477273 70.7569737,12.54975 71.4556579,12.3276364 C71.5036842,12.3111591 71.7286842,12.2676591 71.8175,12.2590909 C71.9418421,12.24525 72.0635526,12.2353636 72.0635526,12.2353636 C72.8826316,12.2353636 73.2260526,12.5299773 73.2839474,13.2220227 L74.5707895,13.2220227 C74.6234211,12.0145682 74.0760526,11.1557727 72.3418421,11.1557727 C72.3418421,11.1557727 72.1260526,11.1715909 71.9109211,11.1913636 C71.7510526,11.2078409 71.3214474,11.2987955 71.2378947,11.3218636 C70.0161842,11.6619545 68.9451316,12.7751591 68.5194737,14.1269545 L68.4109211,14.4723182 C67.9471053,15.95 68.4971053,17.1765682 69.905,17.3986818 C69.905,17.3986818 70.2635526,17.4896364 71.1240789,17.4243864 C71.7885526,17.3017955 72.3392105,16.8714091 72.7431579,16.4535455 L72.3628947,17.4751364 L73.4043421,17.4751364 L74.3253947,14.1071818 L74.2911842,14.1117955 L74.2951316,14.0972955 L71.7030263,14.1164091 L71.4043421,15.1122955 L72.905,15.1122955 C72.5786842,15.6942727 72.1082895,16.1681591 71.5997368,16.3401818 C71.3365789,16.4304773 70.7471053,16.3968636 70.7471053,16.3968636 C69.7707895,16.3190909 69.3464474,15.4517273 69.6865789,14.3714773 L69.7563158,14.1427727 Z M49.5707895,12.2366818 L51.4352632,12.2366818 C51.6622368,12.2900682 51.9043421,12.41925 51.9247368,12.7323182 C51.9247368,12.7323182 51.9793421,13.3314318 51.5056579,13.7071136 C51.3411842,13.8343182 51.0813158,13.9068182 50.8109211,13.9470227 L49.0911842,13.9470227 L49.5707895,12.2366818 Z M52.73,11.3521818 C52.5082895,11.2454091 52.2813158,11.2019091 52.0977632,11.1860909 L52.1003947,11.1801591 L52.0221053,11.1801591 C51.9109211,11.1729091 51.8253947,11.1762045 51.7760526,11.1801591 L48.5694737,11.1801591 L46.8175,17.4145 L48.1148684,17.4145 L48.7918421,15.0061818 L50.4464474,15.0061818 C50.7135526,15.0061818 50.8438158,15.1109773 50.9089474,15.2401591 C50.9951316,15.4135 50.9076316,15.7582045 50.9076316,15.7582045 L50.3905263,17.4421818 L51.7030263,17.4421818 C51.7030263,17.4421818 52.2352632,15.7338182 52.2846053,15.4299773 C52.3319737,15.1274545 52.3425,14.9527955 52.2846053,14.8242727 C52.1786842,14.5955682 51.9122368,14.4452955 51.9122368,14.4452955 L52.2655263,14.2561364 C52.9030263,13.9120909 53.1740789,13.2029091 53.2688158,12.7323182 C53.3648684,12.2610682 53.2128947,11.5822045 52.73,11.3521818 L52.73,11.3521818 Z M53.8161842,16.3105227 L55.2622368,11.1458864 L53.9793421,11.1458864 L52.2286842,17.3973636 L56.6681579,17.3973636 L56.9839474,16.3105227 L53.8161842,16.3105227 Z M59.7997368,17.4145 C61.2043421,17.14625 62.3273684,16.0567727 62.7675,14.5606364 L62.8688158,14.2159318 C63.3714474,12.50625 62.8622368,11.1445682 60.8109211,11.1445682 C60.8109211,11.1445682 60.6096053,11.1597273 60.4063158,11.1801591 C60.2589474,11.194 59.8543421,11.2895682 59.7773684,11.3113182 C58.6306579,11.65075 57.6227632,12.7652727 57.2273684,14.1216818 L57.1260526,14.4657273 C56.6911842,15.9467045 57.2030263,17.1765682 58.5267105,17.3986818 C58.5267105,17.3986818 58.9971053,17.4790909 59.7997368,17.4145 L59.7997368,17.4145 Z M61.5563158,14.4354091 C61.2668421,15.4253636 60.53,16.2465909 59.7977632,16.37775 C59.7293421,16.3882955 59.3155263,16.3948864 59.3155263,16.3948864 C58.3951316,16.39225 58.0589474,15.4879773 58.3773684,14.4050909 L58.4444737,14.1770455 C58.7082895,13.2787045 59.3253947,12.5431591 59.9826316,12.3170909 C60.0253947,12.3012727 60.2365789,12.2590909 60.3201316,12.2492045 C60.4352632,12.2366818 60.5490789,12.2248182 60.5490789,12.2248182 C61.7036842,12.2248182 61.9425,13.1238182 61.6260526,14.2060455 L61.5563158,14.4354091 Z M32.0760526,17.4145 C33.48,17.14625 34.6023684,16.0567727 35.0398684,14.5606364 L35.1431579,14.2159318 C35.6464474,12.50625 35.1385526,11.1445682 33.0885526,11.1445682 C33.0885526,11.1445682 32.8865789,11.1597273 32.6832895,11.1801591 C32.5352632,11.194 32.1319737,11.2895682 32.0563158,11.3113182 C30.9063158,11.65075 29.8984211,12.7652727 29.5017105,14.1216818 L29.4003947,14.4657273 C28.9642105,15.9467045 29.4793421,17.1765682 30.8003947,17.3986818 C30.8003947,17.3986818 31.2714474,17.4790909 32.0760526,17.4145 L32.0760526,17.4145 Z M33.8326316,14.4354091 C33.5418421,15.4253636 32.8056579,16.2465909 32.0740789,16.37775 C32.005,16.3882955 31.5925,16.3948864 31.5925,16.3948864 C30.6714474,16.39225 30.3346053,15.4879773 30.6523684,14.4050909 L30.7207895,14.1770455 C30.9832895,13.2787045 31.6010526,12.5431591 32.2582895,12.3170909 C32.3017105,12.3012727 32.5128947,12.2590909 32.5977632,12.2492045 C32.7122368,12.2366818 32.8260526,12.2248182 32.8260526,12.2248182 C33.98,12.2248182 34.2194737,13.1238182 33.9010526,14.2060455 L33.8326316,14.4354091 Z M67.4247368,17.4355909 L66.0523684,17.4355909 L64.7852632,12.8371136 L63.4859211,17.4355909 L62.2977632,17.4355909 L64.005,11.1597273 L65.4286842,11.1597273 L66.6944737,15.5571818 L67.9451316,11.1597273 L69.1517105,11.1597273 L67.4247368,17.4355909 Z M46.5135526,17.4355909 L41.7714474,17.4355909 L43.5168421,11.1597273 L48.23,11.1597273 L47.9444737,12.2584318 L44.4609211,12.2584318 L44.0760526,13.6451591 L47.1852632,13.6451591 L46.8918421,14.7010227 L43.7852632,14.7010227 L43.3188158,16.3882955 L46.7944737,16.3882955 L46.5135526,17.4355909 Z M39.9859211,17.4309773 L38.5938158,17.4309773 L38.9332895,12.8931364 L36.7135526,17.4309773 L35.3681579,17.458 L35.6806579,11.1597273 L36.6642105,11.1597273 L36.4675,15.7924773 L38.6306579,11.1597273 L40.0418421,11.1597273 L39.7280263,15.6263864 L41.8839474,11.1597273 L43.0819737,11.1597273 L39.9859211,17.4309773 Z M26.3622368,12.2656818 L25.8168421,14.0972955 L26.855,14.0972955 C27.2477632,14.0972955 27.4582895,14.0696136 27.6260526,14.0406136 C27.9385526,13.9885455 28.255,13.5107045 28.33,13.2246591 C28.3957895,12.9768409 28.3977632,12.6756364 28.3234211,12.5385455 C28.2438158,12.3849773 28.1155263,12.3157727 27.9721053,12.2762273 C27.8286842,12.2366818 27.5431579,12.2656818 27.1628947,12.2656818 L26.3622368,12.2656818 Z M24.9405263,17.4355909 L23.6214474,17.4355909 L25.3582895,11.1597273 L27.0813158,11.1597273 C27.6247368,11.1597273 28.2194737,11.1729091 28.4707895,11.1959773 C28.7161842,11.2190455 28.9536842,11.3014318 29.1780263,11.4411591 C29.2839474,11.5070682 29.3780263,11.5887955 29.4596053,11.6837045 C29.5530263,11.7871818 29.7372368,12.0224773 29.6918421,12.6650909 C29.6707895,12.9511364 29.58,13.2793636 29.4793421,13.5581591 C29.4346053,13.6820682 29.2247368,14.1348636 28.9484211,14.4499091 C28.6747368,14.7649545 28.3352632,14.9409318 28.1707895,14.9949773 C27.8425,15.1043864 27.4471053,15.1571136 26.9878947,15.1571136 L25.5530263,15.1571136 L24.9405263,17.4355909 Z" id="Fill-3" fill="#231916"></path>
                        <polygon id="Fill-5" fill="#231916" points="51.4701974 23.4975136 50.7616447 23.4975136 50.7616447 24.4808773 49.76625 24.4808773 49.76625 23.1864227 51.9011184 23.1864227 51.9011184 22.5609455 49.76625 22.5609455 49.76625 21.5314455 51.6484868 21.5314455 51.6576974 20.8743318 47.1991447 20.8743318 47.1892763 21.5314455 49.0458553 21.5314455 49.0458553 22.5609455 46.9188816 22.5609455 46.9188816 23.1864227 49.0458553 23.1864227 49.0458553 24.4808773 46.1096711 24.4808773 46.1096711 25.1894 52.7366447 25.1894 52.7366447 24.4808773 51.4701974 24.4808773"></polygon>
                        <path d="M52.6959868,20.3417205 C52.6959868,20.026675 52.4479605,19.7716068 52.1374342,19.7597432 L52.1295395,19.7590841 L52.1163816,19.758425 L52.1104605,19.758425 L52.0709868,19.7577659 L52.0723026,19.7577659 L49.7584868,19.7577659 L49.7584868,19.0156295 L49.0532237,19.0156295 L49.0532237,19.7577659 L46.1525658,19.7571068 L46.1525658,21.1556977 L46.8558553,21.1556977 L46.8558553,20.3074477 L51.9170395,20.3074477 L51.9196711,20.3074477 C51.9565132,20.3087659 51.9861184,20.3390841 51.9861184,20.3766523 L51.9874342,20.3766523 L51.9874342,21.1807432 L52.6946711,21.1807432 L52.6946711,20.3661068 C52.6959868,20.3575386 52.6959868,20.3502886 52.6959868,20.3417205" id="Fill-7" fill="#231916"></path>
                        <path d="M58.9235526,20.4318182 L58.9235526,19.3317955 L58.2130263,19.3317955 L58.2130263,20.4318182 L56.9196053,20.4318182 C56.9821053,19.8030455 57.0314474,19.2092045 57.0472368,19.0160909 L56.3518421,19.0160909 C56.3426316,19.2217273 56.2939474,19.8228182 56.2281579,20.4318182 L53.8577632,20.4318182 L53.8577632,21.0685 L56.1584211,21.0685 C56.1307895,21.2780909 56.1110526,21.4712045 56.0853947,21.6260909 C55.9676316,22.4051364 55.6163158,22.9996364 55.6163158,22.9996364 C54.9603947,24.1425 53.5840789,24.8437727 53.5840789,24.8437727 L54.2827632,25.3150227 C56.0978947,24.0673636 56.5005263,22.678 56.6814474,22.0525227 C56.7373684,21.8580909 56.7965789,21.4896591 56.8446053,21.0685 L60.2669737,21.0685 L60.2669737,20.4318182 L58.9235526,20.4318182 Z" id="Fill-9" fill="#231916"></path>
                        <path d="M59.9257895,23.8508523 C59.9257895,23.8508523 59.9021053,24.0044205 59.7455263,24.276625 C59.6593421,24.4196477 59.5488158,24.4888523 59.4560526,24.537625 C59.3632895,24.5804659 59.2014474,24.5857386 59.0764474,24.5936477 C58.7613158,24.5903523 58.2218421,24.5910114 58.1152632,24.5804659 C57.8830263,24.5639886 57.8303947,24.4848977 57.8271053,24.3741705 L57.8271053,24.0861477 C59.1106579,23.0777386 59.6764474,21.8893977 59.6764474,21.8893977 L59.0803947,21.4807614 C58.5277632,22.4555568 58.2047368,22.9123068 57.8494737,23.2603068 L57.8448684,21.3680568 L57.1422368,21.3680568 L57.1422368,23.7743977 C56.5567105,24.1500795 55.6909211,24.5092841 55.6909211,24.5092841 L56.1869737,25.0279886 C56.5567105,24.8810114 56.835,24.7070114 57.1455263,24.5198295 C57.1455263,24.5573977 57.1448684,24.5969432 57.1435526,24.6351705 C57.1435526,24.9304432 57.3777632,25.1690341 57.6698684,25.1762841 L57.6698684,25.1769432 C57.9146053,25.1802386 58.5705263,25.1881477 58.8981579,25.1881477 C59.3093421,25.1881477 59.7172368,25.1525568 59.7172368,25.1525568 C60.2843421,25.0055795 60.5007895,24.2878295 60.5007895,24.2878295 L59.9257895,23.8508523 Z" id="Fill-11" fill="#231916"></path>
                        <path d="M63.435,22.4162091 C63.6876316,22.0893 63.8843421,21.7663455 64.0211842,21.4552545 L64.0382895,21.4163682 L63.3356579,21.4163682 L63.3277632,21.4321864 C63.1955263,21.7182318 63.0014474,22.03855 62.7468421,22.3832545 L62.7152632,22.4267545 L63.4264474,22.4267545 L63.435,22.4162091 Z" id="Fill-13" fill="#231916"></path>
                        <path d="M63.6123026,23.7189023 L63.6123026,23.231175 C63.6123026,23.0954023 63.6734868,23.0314705 63.8057237,23.0314705 L65.1076974,23.0314705 C65.2320395,23.0393795 65.2945395,23.1013341 65.3017763,23.223925 L65.3017763,23.7248341 C65.2945395,23.8480841 65.2333553,23.9100386 65.11625,23.919925 L63.8188816,23.919925 C63.6813816,23.9153114 63.6155921,23.8513795 63.6123026,23.7189023 M65.9879605,23.9383795 L65.9866447,23.0222432 C65.9629605,22.6926977 65.7840132,22.513425 65.4524342,22.4903568 L63.4748026,22.4903568 C63.1261184,22.5041977 62.9405921,22.6841295 62.9274342,23.0255386 L62.9274342,23.941675 C62.9504605,24.2567205 63.1280921,24.4300614 63.4544079,24.4531295 L65.4254605,24.4531295 C65.7925658,24.4465386 65.9826974,24.2731977 65.9879605,23.9383795" id="Fill-15" fill="#231916"></path>
                        <path d="M65.4600658,22.4393432 L66.2284868,22.4393432 L66.1942763,22.3965023 C66.0311184,22.1869114 65.8495395,21.8896614 65.6541447,21.5106841 C65.6317763,21.4750932 65.6153289,21.4487295 65.6074342,21.4322523 L65.5995395,21.4164341 L64.8975658,21.4164341 L64.9133553,21.4553205 C65.0909868,21.8672523 65.2719079,22.1948205 65.4521711,22.4281386 L65.4600658,22.4393432 Z" id="Fill-17" fill="#231916"></path>
                        <path d="M65.4703289,20.0875091 C65.3420395,20.3458727 65.2315132,20.5581 65.1420395,20.7156227 L63.8190132,20.7156227 C63.6782237,20.4941682 63.5578289,20.2845773 63.4571711,20.0875091 L65.4703289,20.0875091 Z M64.6321711,19.0250545 L64.6236184,19.0105545 L63.83875,19.0105545 L63.8558553,19.0481227 C63.9354605,19.2320091 63.9979605,19.3921682 64.0426974,19.5259636 L61.3900658,19.5259636 L61.3900658,20.0875091 L62.6769079,20.0875091 C62.6992763,20.1310091 62.7354605,20.1909864 62.7788816,20.2733727 C62.8755921,20.4631909 62.9532237,20.6101682 63.0098026,20.7156227 L62.2946711,20.7156227 C61.8315132,20.7202364 61.5933553,20.9232364 61.58875,21.3186909 L61.58875,25.2376455 L62.30125,25.2376455 L62.30125,21.5019182 C62.3144079,21.34835 62.3979605,21.2692591 62.5558553,21.2567364 L66.3979605,21.2567364 C66.5532237,21.2666227 66.6321711,21.34835 66.6394079,21.5058727 L66.6394079,24.4533273 C66.6361184,24.5871227 66.5644079,24.6503955 66.4130921,24.6550091 L65.6703289,24.6550091 L65.8440132,25.2099636 L66.6880921,25.2099636 C67.1288816,25.2099636 67.3525658,24.9983955 67.3525658,24.5792136 L67.3525658,21.4300773 C67.3525658,20.9548727 67.0926974,20.7156227 66.5775658,20.7156227 L65.9374342,20.7156227 C66.0394079,20.5297591 66.1486184,20.3208273 66.2650658,20.0875091 L67.5446711,20.0875091 L67.5446711,19.5259636 L64.8459868,19.5259636 C64.7663816,19.3150545 64.6940132,19.1450091 64.6321711,19.0250545 L64.6321711,19.0250545 Z" id="Fill-19" fill="#231916"></path>
                        <path d="M69.2063158,23.4756318 L69.2109211,23.4987 L69.9240789,23.4987 L69.9175,23.4664045 C69.6576316,22.1528364 69.4635526,20.9882227 69.3385526,20.0035409 L69.3352632,19.9791545 L68.6444737,19.9791545 L68.6477632,20.0101318 C68.8346053,21.3078818 69.0221053,22.4731545 69.2063158,23.4756318" id="Fill-21" fill="#231916"></path>
                        <path d="M73.8630263,23.4756318 C74.0485526,22.4705182 74.2360526,21.3032682 74.4222368,20.0101318 L74.4261842,19.9791545 L73.7353947,19.9791545 L73.7321053,20.0035409 C73.6071053,20.9737227 73.4169737,22.1389955 73.1669737,23.4664045 L73.1610526,23.4987 L73.8584211,23.4987 L73.8630263,23.4756318 Z" id="Fill-23" fill="#231916"></path>
                        <polygon id="Fill-25" fill="#231916" points="72.7663158 24.4552386 72.7663158 19.0104886 72.0347368 19.0104886 72.0347368 24.4552386 71.0426316 24.4552386 71.0426316 19.0104886 70.3103947 19.0104886 70.3103947 24.4552386 68.4722368 24.4552386 68.4722368 25.0319432 74.5959211 25.0319432 74.5959211 24.4552386"></polygon>
                    </g>
                </g>
            </g>
        </g>
    </g>
</svg>