<?xml version="1.0" encoding="UTF-8"?>
<svg width="14px" height="13px" viewBox="0 0 14 13" version="1.1" xmlns="http://www.w3.org/2000/svg" xmlns:xlink="http://www.w3.org/1999/xlink">
    <!-- Generator: Sketch 55 (78076) - https://sketchapp.com -->
    <title>联系我们</title>
    <desc>Created with Sketch.</desc>
    <g id="Page-1" stroke="none" stroke-width="1" fill="none" fill-rule="evenodd">
        <g id="Page"></g>
        <g id="工作台-对外" transform="translate(-1165.000000, -18.000000)" fill-rule="nonzero">
            <g id="导航栏" transform="translate(200.000000, 0.000000)">
                <g id="联系我们" transform="translate(965.000000, 14.000000)">
                    <g transform="translate(0.000000, 3.000000)">
                        <rect id="矩形" fill="#000000" opacity="0" x="0" y="0" width="14" height="14"></rect>
                        <path d="M9.78234257,13.132756 C9.00086041,13.132756 7.99187851,12.6109797 7.28309106,12.1731606 C6.3339326,11.5869301 5.3113519,10.775802 4.40368929,9.88950292 L4.40037354,9.88624313 L4.11222491,9.59735299 C3.2278705,8.68767576 2.41870111,7.66271667 1.83370175,6.7113477 C1.39693188,6.00099332 0.876246902,4.98978692 0.876246902,4.20648599 C0.876246902,3.36823033 1.47434139,2.47860149 1.73138912,2.13507841 C1.93202708,1.86688024 2.63296585,0.992011412 3.22855604,0.992011412 C3.47305427,0.992011412 3.7364257,1.15244064 4.08256502,1.51226268 C4.38873344,1.83035102 4.68253424,2.22584887 4.87501574,2.50154595 C5.13358843,2.871679 5.37267233,3.25924423 5.54844916,3.59287603 C5.83287631,4.13307777 5.86576802,4.36484463 5.86576802,4.49206038 C5.86576802,4.7488143 5.73190677,4.97159925 5.46804567,5.15409152 C5.29431146,5.27417211 5.08565693,5.3645928 4.88398366,5.45207549 C4.74789793,5.51110148 4.5306672,5.60522966 4.44778739,5.67144676 C4.47676175,5.79412958 4.60311008,6.09057459 4.94454859,6.59304391 C5.26277683,7.06133441 5.67429382,7.56870041 6.0459938,7.95128503 C6.42776697,8.32383844 6.93388782,8.73639073 7.40126893,9.05524855 C7.90238117,9.39740056 8.19814064,9.52411266 8.32072553,9.55312899 C8.38667681,9.47009529 8.4806511,9.25237491 8.53950919,9.11607931 C8.62672606,8.9138884 8.71702084,8.70473021 8.83687757,8.53059028 C9.01902008,8.26605762 9.24120344,8.1320285 9.49749567,8.1320285 C9.62443161,8.1320285 9.85561087,8.16494818 10.3945674,8.45001891 C10.7274857,8.6261455 11.1142115,8.865817 11.4835052,9.1249633 C11.7585727,9.31789249 12.1531611,9.61233686 12.4706199,9.91909287 C12.8294906,10.2661416 12.989584,10.5300586 12.989584,10.7751585 C12.989584,11.3720638 12.1167858,12.0746534 11.8492172,12.2756411 C11.5062677,12.5334583 10.6185976,13.132756 9.78234257,13.132756 L9.78234257,13.132756 L9.78234257,13.132756 L9.78234257,13.132756 Z M9.16103781,6.80533599 C9.03622843,6.80533599 8.92568938,6.71576872 8.90322061,6.58820321 C8.83906011,6.22366637 8.62847489,5.90683718 8.31009275,5.69627993 C7.98726163,5.48267275 7.59258922,5.40334654 7.19877022,5.47297733 C7.0561929,5.49821621 6.92027504,5.40273096 6.89519005,5.25980386 C6.8700491,5.11697469 6.96521258,4.98072107 7.10778991,4.95555214 C7.63409907,4.86245926 8.16366802,4.96980847 8.59882898,5.25777522 C9.03860681,5.54866599 9.33008519,5.98875162 9.41951257,6.49698504 C9.44463953,6.63991214 9.34946206,6.77615177 9.20689872,6.80134868 C9.19152314,6.80407684 9.17616156,6.80533599 9.16103781,6.80533599 L9.16103781,6.80533599 L9.16103781,6.80533599 Z M10.7390559,6.12692195 C10.6142465,6.12692195 10.5036235,6.0373267 10.4812387,5.90984513 C10.3567791,5.20228885 9.94884368,4.58810527 9.33265945,4.18050562 C8.7119423,3.76982806 7.9541181,3.61717755 7.19878422,3.75070302 C7.0562069,3.77588594 6.92038698,3.68041468 6.89520405,3.53758552 C6.8700631,3.39472837 6.96522658,3.25837682 7.10780391,3.23320788 C7.99564195,3.07637422 8.8883627,3.25693579 9.6213957,3.74201491 C10.3590736,4.22993411 10.8477902,4.96747206 10.9974607,5.81861298 C11.0226716,5.96154007 10.9274102,6.09782168 10.7848329,6.12299062 C10.7694713,6.12563483 10.7541797,6.12692195 10.7390559,6.12692195 L10.7390559,6.12692195 L10.7390559,6.12692195 Z M12.8458595,5.93109672 C12.7210361,5.93109672 12.6103292,5.84138954 12.5879444,5.71392196 C12.3755684,4.50656855 11.6801139,3.45873499 10.6296081,2.76393805 C9.57466738,2.06602123 8.28745611,1.80648321 7.00518349,2.03311555 C6.86267611,2.0582705 6.72675825,1.96288317 6.70167326,1.81995607 C6.67657428,1.67712691 6.77172377,1.54083132 6.91431509,1.51567637 C8.3290499,1.26558193 9.75107377,1.55314296 10.9184283,2.32533541 C12.0903437,3.10061979 12.8666074,4.27165382 13.1042643,5.6227178 C13.1294612,5.76554696 13.0342138,5.90181457 12.8916365,5.92696952 C12.8762609,5.92978161 12.8609693,5.93109672 12.8458595,5.93109672 L12.8458595,5.93109672 L12.8458595,5.93109672 Z" id="形状" fill="#4A90E2"></path>
                    </g>
                </g>
            </g>
        </g>
    </g>
</svg>