<?xml version="1.0" encoding="UTF-8"?>
<svg width="22px" height="22px" viewBox="0 0 22 22" version="1.1" xmlns="http://www.w3.org/2000/svg" xmlns:xlink="http://www.w3.org/1999/xlink">
    <!-- Generator: Sketch 55 (78076) - https://sketchapp.com -->
    <title>客服</title>
    <desc>Created with Sketch.</desc>
    <g id="Page-1" stroke="none" stroke-width="1" fill="none" fill-rule="evenodd">
        <g id="Page"></g>
        <g id="工作台-联系我们" transform="translate(-1119.000000, -68.000000)" fill-rule="nonzero">
            <g id="客服电话" transform="translate(1105.000000, 36.000000)">
                <g id="客服" transform="translate(14.000000, 32.000000)">
                    <rect id="矩形" fill="#000000" opacity="0" x="0" y="0" width="22" height="22"></rect>
                    <path d="M10.7529817,17.3564382 C10.8604934,17.3564382 10.9698826,17.3498207 11.0800105,17.3367396 C12.1361363,17.2099909 13.0329491,16.4717832 13.3639484,15.4545007 C13.388941,15.3784146 13.3528679,15.2968805 13.2800135,15.2634543 C13.2079903,15.229905 13.1208237,15.258899 13.080072,15.3271672 C13.0762246,15.3336616 12.6566121,16.0114191 11.0230382,16.2320442 C10.7784977,16.2648548 10.5405439,16.2820604 10.3149941,16.2820604 C9.17050125,16.2813217 8.66049031,15.8499515 8.65581187,15.845981 C8.59822404,15.7947645 8.51031872,15.7934409 8.45128425,15.843334 C8.39166498,15.893227 8.37793748,15.979932 8.41859676,16.0462919 C8.91681929,16.853999 9.81086197,17.3564382 10.7529817,17.3564382 L10.7529817,17.3564382 Z M19.5365888,7.23236738 C19.5221841,7.23236738 19.5090722,7.23501438 19.4953755,7.23501438 C18.5382047,3.09115252 14.8809,0 10.4959449,0 C5.99039691,0 2.24915743,3.26185383 1.41993569,7.57721725 C0.613675197,7.72231028 0,8.43097 0,9.28798535 L0,12.7180474 C0,13.6794041 0.770925998,14.4589791 1.72280275,14.4589791 C2.25974545,14.4589791 2.73368318,14.2054202 3.04895428,13.8160021 C3.81073885,15.8308377 5.36157836,17.4553933 7.32424322,18.3125317 C7.32892166,18.3023131 7.36607212,18.2300436 7.41079425,18.1724557 C7.44169654,18.1325351 7.47632312,18.0998476 7.50602501,18.0998476 C7.53680419,18.0998476 7.56505948,18.1110205 7.58922113,18.1280721 C7.13498206,17.7898706 5.49420581,16.0514628 5.13879869,13.6255406 C4.98287139,12.5577802 5.78263748,11.5095954 6.71407685,11.3362163 C8.20939073,11.0577879 9.69688668,10.7406085 11.1922006,10.4674433 C12.1427538,10.2940642 12.7923483,9.77263422 13.1895843,8.90444603 C13.2826605,8.70148815 13.4170732,8.29114019 13.4787547,7.699349 C13.4950984,7.61135134 13.5672448,7.54379106 13.6597054,7.54379106 C13.7213869,7.54379106 13.7738038,7.57527815 13.8085535,7.62061588 L13.8497976,7.5950076 C14.4391572,8.45066866 15.6079348,10.3452808 15.7757737,12.3430339 C15.9685129,14.6270641 15.8610012,16.1914157 14.1127441,17.7918096 C14.1106819,17.7938411 14.1080349,17.796365 14.105511,17.7984272 C14.0812262,17.8246203 14.0667908,17.8587544 14.0667908,17.8962742 C14.0667908,17.9454593 14.0930147,17.9875344 14.1309962,18.0131427 C14.1454316,18.0190523 14.159867,18.0269626 14.1743025,18.0328722 C14.1860601,18.0355192 14.1972637,18.0393666 14.2090522,18.0393666 C14.2209329,18.0393666 14.2313978,18.0355192 14.2418627,18.0328722 C14.2667631,18.0197602 14.2903092,18.0046169 14.3145939,17.9915049 C16.0826113,17.0174979 17.4389264,15.3909109 18.0656827,13.4344942 C18.3193955,13.811416 18.7166315,14.0826728 19.1780729,14.177288 C18.4379261,17.5435141 15.4356331,19.6503486 11.7160313,19.9701442 C11.4931286,19.4171963 10.9443974,19.0245156 10.2999738,19.0245156 C9.45834809,19.0245156 8.77591221,19.6911002 8.77591221,20.5126272 C8.77591221,21.3341849 9.45822496,22 10.2999738,22 C10.9785623,22 11.546869,21.5640438 11.7441635,20.9650502 C16.0497699,20.6150603 19.5012542,18.0558334 20.2217947,14.0794103 C20.8583081,13.8133551 21.305314,13.1888764 21.305314,12.4599024 L21.305314,8.9892119 C21.305314,8.01917542 20.5133659,7.23236738 19.5365888,7.23236738 L19.5365888,7.23236738 Z M17.9482294,8.22933564 C16.825282,5.18736823 13.9153265,3.01429694 10.4920975,3.01429694 C7.08318071,3.01429694 4.18369011,5.16896228 3.05027779,8.19123102 C2.99389035,8.12222411 2.92774588,8.06318964 2.86283261,8.0034165 C3.50448607,4.32050354 6.67415626,1.52030656 10.4959449,1.52030656 C14.2994506,1.52030656 17.4592407,4.29295619 18.1219471,7.95029164 C18.056449,8.03828929 17.9960911,8.13013435 17.9482294,8.22933564 L17.9482294,8.22933564 Z" id="形状" fill="#333333"></path>
                </g>
            </g>
        </g>
    </g>
</svg>