<?xml version="1.0" encoding="UTF-8"?>
<svg width="24px" height="24px" viewBox="0 0 24 24" version="1.1" xmlns="http://www.w3.org/2000/svg" xmlns:xlink="http://www.w3.org/1999/xlink">
    <title>88DEE47B-C86F-4682-834C-051A8FF59676</title>
    <g id="控件" stroke="none" stroke-width="1" fill="none" fill-rule="evenodd">
        <rect id="矩形" stroke="#48A0C3" stroke-width="3" x="-321.5" y="-1008.5" width="418" height="1718"></rect>
        <g id="24pt/copy">
            <path d="M12,20 C16.418278,20 20,16.418278 20,12 C20,7.581722 16.418278,4 12,4 C7.581722,4 4,7.581722 4,12 C4,16.418278 7.581722,20 12,20 Z" id="椭圆形" fill="#1C4C7F"></path>
            <g id="复制" transform="translate(7.000000, 7.500000)" fill-rule="nonzero">
                <path d="M6.76923077,1.5 C7.44896585,1.5 8,2.05103415 8,2.73076923 L8,8.26923077 C8,8.94896585 7.44896585,9.5 6.76923077,9.5 L1.23076923,9.5 C0.551034154,9.5 0,8.94896585 0,8.26923077 L0,2.73076923 C0,2.05103415 0.551034154,1.5 1.23076923,1.5 L6.76923077,1.5 Z M6.76923077,2.42307692 L1.23076923,2.42307692 C1.06083546,2.42307692 0.923076923,2.56083546 0.923076923,2.73076923 L0.923076923,8.26923077 C0.923076923,8.43916454 1.06083546,8.57692308 1.23076923,8.57692308 L6.76923077,8.57692308 C6.93916454,8.57692308 7.07692308,8.43916454 7.07692308,8.26923077 L7.07692308,2.73076923 C7.07692308,2.56083546 6.93916454,2.42307692 6.76923077,2.42307692 Z M4.5,3.51016617 L4.5,5 L6.07428646,5 L6.07428646,6 L4.5,6 L4.5,7.49404335 L3.5,7.49404335 L3.5,6 L2,6 L2,5 L3.5,5 L3.5,3.51016617 L4.5,3.51016617 Z" id="形状结合" fill="#FFFFFF"></path>
                <path d="M2.99575996,0 L8.5,0 C9.05228475,-7.03002761e-16 9.5,0.44771525 9.5,1 L9.5,7.49576664 L9.5,7.49576664" id="路径-2" stroke="#FFFFFF"></path>
            </g>
        </g>
    </g>
</svg>