<?xml version="1.0" encoding="UTF-8"?>
<svg width="24px" height="24px" viewBox="0 0 24 24" version="1.1" xmlns="http://www.w3.org/2000/svg" xmlns:xlink="http://www.w3.org/1999/xlink">
    
    <g id="控件" stroke="none" stroke-width="1" fill="none" fill-rule="evenodd">
        <g id="24pt/用户">
            <rect id="矩形" fill-opacity="0.01" fill="#FFFFFF" fill-rule="nonzero" x="4" y="4" width="16" height="16"></rect>
            <path d="M12,11 C13.6568571,11 15,9.65685714 15,8 C15,6.34314714 13.6568571,5 12,5 C10.3431429,5 9,6.34314714 9,8 C9,9.65685714 10.3431429,11 12,11 Z" id="路径" stroke="#050101"></path>
            <path d="M6,17.5714286 L6,18 L18,18 L18,17.5714286 C18,15.9712857 18,15.1712143 17.7093667,14.5600357 C17.4537,14.0224286 17.0457333,13.5853214 16.5439667,13.3113929 C15.9735333,13 15.2268,13 13.7333333,13 L10.2666667,13 C8.7732,13 8.02646667,13 7.45603333,13.3113929 C6.95426,13.5853214 6.54631,14.0224286 6.29065,14.5600357 C6,15.1712143 6,15.9712857 6,17.5714286 Z" id="路径" stroke="#050101"></path>
        </g>
    </g>
</svg>