<?xml version="1.0" encoding="UTF-8"?>
<svg width="24px" height="24px" viewBox="0 0 24 24" version="1.1" xmlns="http://www.w3.org/2000/svg" xmlns:xlink="http://www.w3.org/1999/xlink">
    
    <g id="控件" stroke="none" stroke-width="1" fill="none" fill-rule="evenodd">
        <g id="24pt/设置/dark" fill-rule="nonzero" stroke="#050101">
            <path d="M13.6032191,4.54723434 L14.0601918,6.7401426 C14.5082549,6.96563593 14.9838041,7.19137846 15.3229143,7.41697935 L15.3229143,7.41697935 L17.0686275,6.671787 L19.23286,9.63910826 L17.5985908,11.1843518 L17.5985908,12.8773116 L19.0687035,13.7967982 L17.621861,17.1741279 L15.5298037,16.4454499 C15.0749042,16.7395263 14.732041,17.026489 14.3803133,17.1134324 L14.3803133,17.1134324 L14.0002968,19.0519189 L10.3982902,19.4527723 L9.94134074,17.2614086 C9.49328815,17.0359214 9.01775537,16.8101849 8.67865422,16.5845901 L8.67865422,16.5845901 L6.93283158,17.3298509 L4.76722923,14.3623768 L6.40140917,12.8172176 L6.40140917,11.124402 L4.93278973,10.2049471 L6.37261415,6.84399951 L8.46166091,7.66151251 C8.92159713,7.36516751 9.26692814,7.07459489 9.62125522,6.98700899 L9.62125522,6.98700899 L10.0012718,4.94808112 L13.6032191,4.54723434 Z" id="路径"></path>
            <path d="M12,15 C10.3007322,15 9,13.7008368 9,12 C9,10.2991632 10.3007322,9 12,9 C13.6992678,9 15,10.3007322 15,12 C15,13.6992678 13.6992678,15 12,15 Z" id="路径"></path>
        </g>
    </g>
</svg>