<?xml version="1.0" encoding="UTF-8"?>
<svg width="24px" height="24px" viewBox="0 0 24 24" version="1.1" xmlns="http://www.w3.org/2000/svg" xmlns:xlink="http://www.w3.org/1999/xlink">
    
    <g id="控件" stroke="none" stroke-width="1" fill="none" fill-rule="evenodd">
        <g id="编组" fill="#848382" transform="translate(7.000000, 5.000000)">
            <path d="M3,1.5 C3,2.3284125 2.3284125,3 1.5,3 C0.6715875,3 0,2.3284125 0,1.5 C0,0.6715725 0.6715875,0 1.5,0 C2.3284125,0 3,0.6715725 3,1.5 Z M1.5,8.25 C2.3284125,8.25 3,7.5784125 3,6.75 C3,5.9215875 2.3284125,5.25 1.5,5.25 C0.6715875,5.25 0,5.9215875 0,6.75 C0,7.5784125 0.6715875,8.25 1.5,8.25 Z M1.5,13.5 C2.3284125,13.5 3,12.8284125 3,12 C3,11.1715875 2.3284125,10.5 1.5,10.5 C0.6715875,10.5 0,11.1715875 0,12 C0,12.8284125 0.6715875,13.5 1.5,13.5 Z" id="形状"></path>
            <path d="M9.75,1.5 C9.75,2.3284125 9.0784125,3 8.25,3 C7.4215875,3 6.75,2.3284125 6.75,1.5 C6.75,0.6715725 7.4215875,0 8.25,0 C9.0784125,0 9.75,0.6715725 9.75,1.5 Z M8.25,8.25 C9.0784125,8.25 9.75,7.5784125 9.75,6.75 C9.75,5.9215875 9.0784125,5.25 8.25,5.25 C7.4215875,5.25 6.75,5.9215875 6.75,6.75 C6.75,7.5784125 7.4215875,8.25 8.25,8.25 Z M8.25,13.5 C9.0784125,13.5 9.75,12.8284125 9.75,12 C9.75,11.1715875 9.0784125,10.5 8.25,10.5 C7.4215875,10.5 6.75,11.1715875 6.75,12 C6.75,12.8284125 7.4215875,13.5 8.25,13.5 Z" id="形状"></path>
        </g>
    </g>
</svg>