<?xml version="1.0" encoding="UTF-8"?>
<svg width="24px" height="24px" viewBox="0 0 24 24" version="1.1" xmlns="http://www.w3.org/2000/svg" xmlns:xlink="http://www.w3.org/1999/xlink">
    
    <g id="控件" stroke="none" stroke-width="1" fill="none" fill-rule="evenodd">
        <g id="24pt/用户" stroke="#050101">
            <path d="M12,11 C13.6568571,11 15,9.65685714 15,8 C15,6.34314714 13.6568571,5 12,5 C10.3431429,5 9,6.34314714 9,8 C9,9.65685714 10.3431429,11 12,11 Z" id="路径"></path>
            <path d="M4.8,18.4857143 L4.8,19 L19.2,19 L19.2,18.4857143 C19.2,16.5655429 19.2,15.6054571 18.85124,14.8720429 C18.54444,14.2269143 18.05488,13.7023857 17.45276,13.3736714 C16.76824,13 15.87216,13 14.08,13 L9.92,13 C8.12784,13 7.23176,13 6.54724,13.3736714 C5.945112,13.7023857 5.455572,14.2269143 5.14878,14.8720429 C4.8,15.6054571 4.8,16.5655429 4.8,18.4857143 Z" id="路径"></path>
        </g>
    </g>
</svg>