<?xml version="1.0" encoding="UTF-8"?>
<svg width="24px" height="24px" viewBox="0 0 24 24" version="1.1" xmlns="http://www.w3.org/2000/svg" xmlns:xlink="http://www.w3.org/1999/xlink">
    <title>C02A0568-35C7-4AC7-A363-87298678E318</title>
    <g id="控件" stroke="none" stroke-width="1" fill="none" fill-rule="evenodd">
        <g id="24pt/绑定铺位" fill="#1C4C7F" fill-rule="nonzero">
            <g id="xianshi" transform="translate(4.000000, 4.000000)">
                <path d="M14.9406806,8.06003907 L14.8304719,8.26154004 L14.7136836,8.47784517 C13.4915185,10.701758 10.8374627,12.4642747 8.23275419,12.4642747 C5.62475583,12.4642747 2.97070011,10.7001131 1.76004935,8.48360234 L1.51742572,8.05839416 L1.63832631,7.84866865 L1.75675954,7.64305541 C2.9674103,5.41832014 5.62228848,3.65580343 8.23193174,3.65580343 C10.8391076,3.65580343 13.4915185,5.41585278 14.7128611,7.64305541 L14.9406806,8.06003907 Z M10.019122,6.7934615 C10.4935012,7.46517218 10.5545138,8.34510056 10.1773788,9.07585365 C9.80024385,9.80660673 9.04768092,10.2666562 8.22535211,10.2691477 C7.00834068,10.265972 6.02420653,9.27705158 6.02693533,8.06003907 C6.0240936,7.47452584 6.25424703,6.9119242 6.66664913,6.49628213 C7.07905123,6.08064006 7.63983457,5.84609105 8.22535211,5.84435078 C8.69168294,5.84435078 9.12758302,5.99732703 9.48370515,6.24817518 C9.43518043,6.24159556 9.39076797,6.22350159 9.34224324,6.22350159 C8.96492067,6.24571305 8.67030521,6.55818133 8.67030521,6.93615709 C8.67030521,7.31413284 8.96492067,7.62660113 9.34224324,7.64881258 C9.53112451,7.64860572 9.71207684,7.57286113 9.84478375,7.43845484 C9.97749065,7.30404854 10.0509267,7.12214711 10.0487303,6.9332785 C10.0487303,6.88557623 10.0289915,6.84280868 10.019122,6.7934615 Z M2.51917343,8.05674925 C3.59329701,10.0314588 5.96525136,11.6081012 8.23193174,11.6081012 C10.4977897,11.6081012 12.8705665,10.0322813 13.9471574,8.07155341 L13.9471574,8.04852472 C12.869744,6.08450704 10.4994346,4.51197697 8.23193174,4.51197697 C5.962784,4.51197697 3.59082965,6.0869744 2.51917343,8.05674925 Z M0.523080086,4.80477023 C0.234190932,4.80477023 8.8817842e-16,4.5705793 8.8817842e-16,4.28169014 L8.8817842e-16,1.04698263 C8.8817842e-16,0.468798191 0.468798191,0.000822452966 1.04616017,0.000822452966 L4.40752544,0.000822452966 C4.6964146,0.000822452966 4.93060553,0.235013385 4.93060553,0.523902539 C4.93060553,0.812791694 4.6964146,1.04698263 4.40752544,1.04698263 L1.04616017,1.04698263 L1.04616017,4.28333505 C1.04616017,4.5705793 0.811969241,4.80477023 0.523080086,4.80477023 Z M11.8297744,1.04616017 C11.5408853,1.04616017 11.3066944,0.811969241 11.3066944,0.523080086 C11.3066944,0.234190932 11.5408853,0 11.8297744,0 L14.9674325,0 C15.5456169,0 16.0144151,0.468798191 16.0144151,1.04616017 L16.0144151,4.28909222 C16.0144151,4.57820849 15.7800401,4.81258353 15.4909238,4.81258353 C15.2018075,4.81258353 14.9674325,4.57820849 14.9674325,4.28909222 L14.9674325,1.04616017 L11.8297744,1.04616017 Z M15.4909238,11.3872725 C15.7800401,11.3872725 16.0144151,11.6216476 16.0144151,11.9107639 L16.0144151,14.9538398 C16.0144151,15.5312018 15.5456169,16 14.9674325,16 L11.7351923,16 C11.4460761,16 11.211701,15.765625 11.211701,15.4765087 C11.211701,15.1873924 11.4460761,14.9530174 11.7351923,14.9530174 L14.9674325,14.9530174 L14.9674325,11.9099414 C14.9674325,11.6216476 15.2018075,11.3872725 15.4909238,11.3872725 Z M4.80148042,15.4769199 C4.80148042,15.7658091 4.56728948,16 4.27840033,16 L1.04616017,16 C0.467975738,16 0,15.5312018 0,14.9530174 L0,11.7405161 C0,11.4516269 0.234190932,11.217436 0.523080086,11.217436 C0.811969241,11.217436 1.04616017,11.4516269 1.04616017,11.7405161 L1.04616017,14.9530174 L4.27840033,14.9530174 C4.56728948,14.9538398 4.80148042,15.1880308 4.80148042,15.4769199 Z" id="形状"></path>
            </g>
        </g>
    </g>
</svg>