<?xml version="1.0" encoding="UTF-8"?>
<svg width="24px" height="24px" viewBox="0 0 24 24" version="1.1" xmlns="http://www.w3.org/2000/svg" xmlns:xlink="http://www.w3.org/1999/xlink">
    <title>54CCF9E0-46AF-4AE2-B0FA-824D24658696</title>
    <g id="控件" stroke="none" stroke-width="1" fill="none" fill-rule="evenodd">
        <g id="24pt/更多" fill="#1C4C7F" fill-rule="nonzero">
            <g id="gengduo-2" transform="translate(6.000000, 6.000000)">
                <path d="M1,9.99751091 C1.55228475,9.99751091 2,10.4452262 2,10.9975109 C2,11.3547765 1.80940109,11.6849035 1.5,11.8635363 C1.19059893,12.0421691 0.809401074,12.0421691 0.5,11.8635363 C0.190598914,11.6849035 0,11.3547765 0,10.9975109 C0,10.4452262 0.44771525,9.99751091 1,9.99751091 Z M12.4960203,10.4975109 C12.7721627,10.4975109 12.9960203,10.7213685 12.9960203,10.9975109 C12.9960203,11.2736533 12.7721627,11.4975109 12.4960203,11.4975109 L4.49602032,11.4975109 C4.21987794,11.4975109 3.99602032,11.2736533 3.99602032,10.9975109 C3.99602032,10.7213685 4.21987794,10.4975109 4.49602032,10.4975109 L12.4960203,10.4975109 Z M1,4.99875546 C1.55228475,4.99875546 2,5.4464707 2,5.99875546 C2,6.35602104 1.80940109,6.68614806 1.5,6.86478086 C1.19059893,7.04341365 0.809401074,7.04341365 0.5,6.86478086 C0.190598914,6.68614806 0,6.35602104 0,5.99875546 C0,5.4464707 0.44771525,4.99875546 1,4.99875546 Z M12.4960203,5.49875546 C12.7721627,5.49875546 12.9960203,5.72261308 12.9960203,5.99875546 C12.9960203,6.27489783 12.7721627,6.49875546 12.4960203,6.49875546 L4.49602032,6.49875546 C4.21987794,6.49875546 3.99602032,6.27489783 3.99602032,5.99875546 C3.99602032,5.72261308 4.21987794,5.49875546 4.49602032,5.49875546 L12.4960203,5.49875546 Z M1,0 C1.55228475,0 2,0.447715245 2,1 C2,1.35726558 1.80940109,1.6873926 1.5,1.8660254 C1.19059893,2.0446582 0.809401074,2.0446582 0.5,1.8660254 C0.190598914,1.6873926 0,1.35726558 0,1 C0,0.447715245 0.44771525,0 1,0 Z M12.4960203,0.5 C12.7721627,0.5 12.9960203,0.723857625 12.9960203,1 C12.9960203,1.27614237 12.7721627,1.5 12.4960203,1.5 L4.49602032,1.5 C4.21987794,1.5 3.99602032,1.27614237 3.99602032,1 C3.99602032,0.723857625 4.21987794,0.5 4.49602032,0.5 L12.4960203,0.5 Z" id="形状结合"></path>
            </g>
        </g>
    </g>
</svg>