<?xml version="1.0" encoding="UTF-8"?>
<svg width="24px" height="24px" viewBox="0 0 24 24" version="1.1" xmlns="http://www.w3.org/2000/svg" xmlns:xlink="http://www.w3.org/1999/xlink">
    <title>67259C2F-E75F-4654-B82F-977591629585</title>
    <g id="控件" stroke="none" stroke-width="1" fill="none" fill-rule="evenodd">
        <g id="铺位管理" stroke="#1C4C7F" transform="translate(4.000000, 4.000000)">
            <path d="M14.0702438,0.503046636 C14.1533121,0.502999007 14.2299166,0.522754388 14.2923907,0.564902097 C14.3532548,0.60596362 14.3986234,0.667223413 14.4309544,0.749382408 L14.4309544,0.749382408 L16.011876,4.5723876 C16.1023656,4.86115694 16.1392186,5.065153 16.1405202,5.26623904 C16.139004,5.63090812 16.0377113,5.97899485 15.8571639,6.27750187 C15.6768343,6.5756489 15.4174311,6.82433686 15.1056892,6.98707376 C14.8007736,7.14096364 14.4640581,7.22131309 14.1231924,7.22168685 C13.4412525,7.22150219 12.8559134,6.96354851 12.4531788,6.50139943 L12.4531788,6.50139943 L11.174961,5.03444002 L9.90253965,6.50628105 C9.50691915,6.9639976 8.93265231,7.22682235 8.31952534,7.22963019 C7.71333385,7.22919914 7.1369874,6.96646615 6.73899265,6.50907887 L6.73899265,6.50907887 L5.46465996,5.04523479 L4.19104043,6.50958816 C3.83233625,6.92180012 3.3281961,7.17903468 2.78438128,7.22782276 C2.20395544,7.23115201 1.86595886,7.16259148 1.5739326,7.01767031 C1.24437526,6.85150585 0.976406356,6.60245341 0.790630038,6.30298726 C0.604965946,6.00370201 0.50151065,5.6542336 0.49999983,5.29027445 C0.500161929,5.09350846 0.530780499,4.89799479 0.590731513,4.71067027 L0.590731513,4.71067027 L2.30719904,0.731142695 Z" id="路径" fill-rule="nonzero"></path>
            <path d="M2.33403089,7.42498061 L2.33403089,13.0964093 C2.33403089,14.2009788 3.22946139,15.0964093 4.33403089,15.0964093 L12.306485,15.0964093 C13.4110545,15.0964093 14.306485,14.2009788 14.306485,13.0964093 L14.306485,7.06511542 L14.306485,7.06511542" id="路径-123"></path>
        </g>
    </g>
</svg>