<?xml version="1.0" encoding="UTF-8"?>
<svg width="24px" height="24px" viewBox="0 0 24 24" version="1.1" xmlns="http://www.w3.org/2000/svg" xmlns:xlink="http://www.w3.org/1999/xlink">
    
    <g id="控件" stroke="none" stroke-width="1" fill="none" fill-rule="evenodd">
        <g id="renyuan" transform="translate(3.000000, 4.000000)">
            <path d="M5.98622704,7 C4.05635192,7 2.48622704,5.42987512 2.48622704,3.5 C2.48622704,1.57012488 4.05635192,0 5.98622704,0 C7.91610216,0 9.48622704,1.57012488 9.48622704,3.5 C9.48622704,5.42987512 7.91610216,7 5.98622704,7 Z" id="路径" stroke="#1C4C7F" fill-rule="nonzero"></path>
            <path d="M-2.39808173e-14,7.8192765 L-2.39808173e-14,9.46081352 C-2.44631835e-14,12.774522 2.6862915,15.4608135 6,15.4608135 C9.3137085,15.4608135 12,12.774522 12,9.46081352 L12,7.46081352 L12,7.46081352" id="路径-123" stroke="#1C4C7F" stroke-linecap="round" transform="translate(6.000000, 11.460814) scale(1, -1) translate(-6.000000, -11.460814) "></path>
            <path d="M17.9196587,6.02466488 L13.0744228,6.02466488 C12.6643659,6.02466488 12.4769735,5.79913803 12.4769735,5.52069426 C12.4769735,5.24225049 12.6643659,5.01672363 13.0744228,5.01672363 L17.9196587,5.01672363 C18.3297156,5.01672363 18.4903202,5.24225049 18.4903202,5.52069426 C18.4903202,5.79913803 18.3297156,6.02466488 17.9196587,6.02466488 Z" id="形状" fill="#1C4C7F" fill-rule="nonzero"></path>
            <path d="M16.9075786,3.99970531 L13.0730968,3.99970531 C12.66395,3.99970531 12.4769735,3.77595531 12.4769735,3.49970531 C12.4769735,3.22345531 12.66395,2.99970531 13.0730968,2.99970531 L16.9075786,2.99970531 C17.3167254,2.99970531 17.4769735,3.22345531 17.4769735,3.49970531 C17.4769735,3.77595531 17.3167254,3.99970531 16.9075786,3.99970531 Z" id="形状备份" fill="#1C4C7F" fill-rule="nonzero"></path>
            <path d="M15.9075786,2 L13.0730968,2 C12.66395,2 12.4769735,1.77625 12.4769735,1.5 C12.4769735,1.22375 12.66395,1 13.0730968,1 L15.9075786,1 C16.3167254,1 16.4769735,1.22375 16.4769735,1.5 C16.4769735,1.77625 16.3167254,2 15.9075786,2 Z" id="形状备份-2" fill="#1C4C7F" fill-rule="nonzero"></path>
        </g>
    </g>
</svg>