<?xml version="1.0" encoding="UTF-8"?>
<svg width="1687px" height="1190px" viewBox="0 0 1687 1190" version="1.1" xmlns="http://www.w3.org/2000/svg" xmlns:xlink="http://www.w3.org/1999/xlink">
    <!-- Generator: Sketch 54.1 (76490) - https://sketchapp.com -->
    <title>物业类型</title>
    <desc>Created with Sketch.</desc>
    <g id="Page-1" stroke="none" stroke-width="1" fill="none" fill-rule="evenodd">
        <g id="资产地图-物业类型" transform="translate(-77.000000, -224.000000)">
            <g id="物业类型" transform="translate(78.000000, 225.000000)">
                <polygon id="路径-2" stroke="#134365" stroke-width="1" fill="#3B90CE" points="744 837.375731 846.122852 777 844.055039 845.296889 850 855.386203 779.177427 897"></polygon>
                <polygon id="路径-3" stroke="#134365" stroke-width="1" fill="#7AEBEF" points="963 1046.61998 876.869189 1063 779 897.471111 850.109143 856"></polygon>
                <polygon id="路径-4" stroke="#134365" stroke-width="1" fill="#3B90CE" points="537 944.38478 583.861269 916 609 959.357181 561.915936 987"></polygon>
                <polygon id="路径-5" stroke="#134365" stroke-width="1" fill="#7AEBEF" points="579 1014.6631 625.048855 987 650 1029.09358 602.567383 1057"></polygon>
                <polygon id="路径-6" stroke="#134365" stroke-width="1" fill="#3B90CE" points="618 1081.95495 662.747112 1056 680.206675 1085.0651 703.064185 1071.10645 734 1124.68251 683.01733 1176 654.780488 1127.2743 647.297818 1132.12465"></polygon>
                <polygon id="路径-7" stroke="#134365" stroke-width="1" fill="#3B90CE" points="459 810.196004 476.096985 840 525 811.039748 507.644992 781"></polygon>
                <polygon id="路径-8" stroke="#134365" stroke-width="1" fill="#DAE4EA" points="542 840.908004 524.421093 811 476 840.257738 493.135678 870"></polygon>
                <polygon id="路径-9" stroke="#134365" stroke-width="1" fill="#DAE4EA" points="425 752.714694 473.709911 724 491 754.095208 442.400334 782"></polygon>
                <polygon id="路径-10" stroke="#134365" stroke-width="1" fill="#7AEBEF" points="477 666.326609 555.000964 620 580 663.149713 501.763196 708"></polygon>
                <polygon id="路径-11" stroke="#134365" stroke-width="1" fill="#1F557C" points="519 734.957382 602.629584 685 638 746.597039 553.505029 795"></polygon>
                <polygon id="路径-12" stroke="#134365" stroke-width="1" fill="#3B90CE" points="570 823.419726 653.791175 774 690 833.819997 604.866377 883"></polygon>
                <polygon id="路径-13" stroke="#134365" stroke-width="1" fill="#DAE4EA" points="621 910.776668 706.571817 860 724 891.510213 639.26877 941"></polygon>
                <polygon id="路径-14" stroke="#134365" stroke-width="1" fill="#DAE4EA" points="656 969.527306 738.856094 920 781 992.638825 698.107195 1040"></polygon>
                <polygon id="路径-15" stroke="#134365" stroke-width="1" fill="#3B90CE" points="821.031814 1100 947 1119.61269 933.615649 1173.60267 840.572227 1188 775 1177.23873"></polygon>
                <polygon id="路径-16" stroke="#ED7070" stroke-width="2" fill="#3B90CE" points="400 711.118662 448.765132 682 473 723.91576 424.339487 752"></polygon>
                <path d="M602,593.365817 L716.941092,526 C738.679709,544.794019 764.374164,553.104384 794.024455,550.931094 C801.211611,567.270451 822.870126,614.31724 859,692.071463 L858.61181,712.890594 L719.399626,794 L602,593.365817 Z" id="路径-17" stroke="#134365" stroke-width="1" fill="#3B90CE"></path>
                <path d="" id="路径-18" stroke="#134365" stroke-width="1" fill="#45A0E3"></path>
                <path d="M854,525.962975 C874.873771,506.046985 884.905935,479.353686 884.096494,445.883079 C905.121237,437.629096 930.422405,428.001403 960,417 L957.09337,530 L854,525.962975 Z" id="路径-19" stroke="#134365" stroke-width="1" fill="#3B90CE"></path>
                <polygon id="路径-20" stroke="#134365" stroke-width="1" fill="#3B90CE" points="953 596.941629 956.61411 530 1021.33618 532.752534 1022 600"></polygon>
                <polygon id="路径-21" stroke="#134365" stroke-width="1" fill="#3B90CE" points="949 675.912886 952.505909 598 1021.08222 601.136116 1022 679"></polygon>
                <path d="M903.892264,646.750177 L838,539.155139 C842.385426,536.145615 847.448377,532.093902 853.188851,527 C863.323284,527.786979 897.593667,529.261443 956,531.423392 L949.668233,648 L903.892264,646.750177 Z" id="路径-22" stroke="#134365" stroke-width="1" fill="#DAE4EA"></path>
                <polygon id="路径-23" stroke="#134365" stroke-width="1" fill="#DAE4EA" points="1019.67841 464.980613 957.898625 463 956 530.047419 1021 533"></polygon>
                <polygon id="路径-24" stroke="#134365" stroke-width="1" fill="#3B90CE" points="911.438344 721 925 721.590406 923.751575 751 906 750.409594"></polygon>
                <polygon id="路径-25" stroke="#134365" stroke-width="1" fill="#3B90CE" points="984.37351 724 1022.4053 725.304211 1038 806 982 803.869176"></polygon>
                <polygon id="路径-26" stroke="#134365" stroke-width="1" fill="#3B90CE" points="903.820425 757 971.605235 759.775738 971.550526 767.727853 982 768.177973 980.996996 804 897 800.886672"></polygon>
                <path d="M1003,897 C986.749799,885.441408 979.000461,869.276918 979.751986,848.506529 C980.503512,827.736139 981.107196,813.186528 981.56304,804.857694 L896.794646,802 L896,806.103355 L948.040069,894.453722 L1003,897 Z" id="路径-27" stroke="#134365" stroke-width="1" fill="#DAE4EA"></path>
                <polygon id="路径-28" stroke="#134365" stroke-width="1" fill="#3B90CE" points="954 902 992 903.849952 991.09785 930.372217 983.057748 930.000968 982.856593 941 974.26179 940.546951"></polygon>
                <polygon id="路径-29" stroke="#134365" stroke-width="1" fill="#3B90CE" points="980 949.117461 1006.61638 950.077545 1008.25431 908 1045.25666 909.624758 1063.14361 942.673817 1075 1004.08229 1018.3797 1013"></polygon>
                <path d="M1049,870.054945 L1045.98934,875 L1028.9534,873.901099 C1016.05406,870.040954 1009.73901,862.373067 1010.00826,850.897436 C1010.2775,839.421805 1010.92002,824.12266 1011.93582,805 L1036.77378,805.842491 L1049,870.054945 Z" id="路径-30" stroke="#134365" stroke-width="1" fill="#3B90CE"></path>
                <polygon id="路径-31" stroke="#134365" stroke-width="1" fill="#1F557C" points="921.264831 268.823642 960.510064 270.420147 962.011653 235 1021 237.895987 1017.2553 330.493311 916 371"></polygon>
                <polygon id="路径-32" stroke="#134365" stroke-width="1" fill="#7AEBEF" points="1023.27031 198 962.700148 194.628773 964.210672 159.109827 958.858567 158.700064 959.436669 143.31535 926 141.154785 928.237814 82 1027 86.0976236"></polygon>
                <path d="M891.700018,140 L828.176481,254.183825 L824,368.293887 C841.041536,376.899472 852.620085,385.468177 858.735647,394 C867.589533,391.032226 886.889186,383.176555 916.634607,370.43299 L925,192.813707 L913.533321,192.813707 L915.975817,140.700741 L891.700018,140 Z" id="路径-33" stroke="#134365" stroke-width="1" fill="#3B90CE"></path>
                <polygon id="路径-34" stroke="#134365" stroke-width="1" fill="#3B90CE" points="1019.32405 393 1020 465 959 462.861751 960.315364 416.815668"></polygon>
                <path d="M669.336188,427 L692,428.093575 C689.255294,438.325419 688.075184,446.960894 688.459672,454 C681.851416,453.716982 675.031525,453.383882 668,453.000698 L669.336188,427 Z" id="路径-35" stroke="#134365" stroke-width="1" fill="#3B90CE"></path>
                <polygon id="路径-36" stroke="#134365" stroke-width="1" fill="#3B90CE" points="665.770925 462 665 487 690 476.739229 688.127753 462.680272"></polygon>
                <polygon id="路径-37" stroke="#134365" stroke-width="1" fill="#3B90CE" points="626.363057 486 647 486.991363 646.713376 494.201277 626 502"></polygon>
                <polygon id="路径-38" stroke="#134365" stroke-width="1" fill="#3B90CE" points="522 456 538.113208 483.716599 549.396226 484 550 457.095816"></polygon>
                <polygon id="路径-39" stroke="#134365" stroke-width="1" fill="#3B90CE" points="542 490.170213 550.603625 503.66979 615.011575 506 625.981655 501.221884 626 485.50152 599.785543 484.480243 600.84953 459.00304 572.745578 458 571.314698 491.009119"></polygon>
                <polygon id="路径-40" stroke="#134365" stroke-width="1" fill="#3B90CE" points="515.88826 379 584 381.175402 581.422503 449 517.204428 446.640242 513 440.003424"></polygon>
                <polygon id="路径-41" stroke="#134365" stroke-width="1" fill="#3B90CE" points="517.809133 311 588 313.337745 584.629041 380 515 377.991001"></polygon>
                <polygon id="路径-42" stroke="#134365" stroke-width="1" fill="#DAE4EA" points="524.526494 171 593 173.779184 590.418182 236 522 233.056259"></polygon>
                <polygon id="路径-43" stroke="#134365" stroke-width="1" fill="#3B90CE" points="623.418108 237 626 174.111754 592.636826 173 590 235.943833"></polygon>
                <polygon id="路径-43复制" stroke="#134365" stroke-width="1" fill="#3B90CE" points="657.418108 238 660 176.094383 626.636826 175 624 236.960336"></polygon>
                <path d="M649.795821,415.323325 L696.806845,417.393681 C715.167057,381.581447 742.85544,362.652476 779.871995,360.606767 C780.082655,346.69993 780.0333,322.4287 779.723929,287.793076 L723.273682,286 L722.459318,317.314138 L587.182318,312.766749 L582,448.190231 L647.685877,451 L649.795821,415.323325 Z" id="路径-44" stroke="#134365" stroke-width="1" fill="#3B90CE"></path>
                <polygon id="路径-45" stroke="#134365" stroke-width="1" fill="#DAE4EA" points="777.676471 179.629598 779 220.957228 725.948529 218.473054 725.286765 241 659 238.384089 661.181373 175"></polygon>
                <polygon id="路径-46" stroke="#134365" stroke-width="1" fill="#3B90CE" points="742.478607 252 778.742289 252.8762 779 278 742 276.819585"></polygon>
                <polygon id="路径-47" stroke="#134365" stroke-width="1" fill="#3B90CE" points="517.227687 277.043557 586.796637 279.524274 588.470757 235 724 239.869555 721.358612 316 516 309.476633"></polygon>
                <polygon id="路径-48" stroke="#134365" stroke-width="1" fill="#3B90CE" points="820 25.2053884 797.774353 77 790 75.9986004 792.225647 24"></polygon>
                <polygon id="路径-49" stroke="#134365" stroke-width="1" fill="#DAE4EA" points="757.33254 24 792 25.1121702 790.308751 76 755 74.5130768"></polygon>
                <polygon id="路径-50" stroke="#134365" stroke-width="1" fill="#3B90CE" points="760.040541 122.44086 775.840653 123 791.609797 88.8986175 792 76.3271889 757.45777 75 756.956081 82.59447 748.557432 82.1889401 748 91.7004608 761.155405 91.9953917"></polygon>
                <polygon id="路径-51" stroke="#134365" stroke-width="1" fill="#3B90CE" points="700.903052 21 719 21.9992883 716.630162 73 699 72.2967972"></polygon>
                <polygon id="路径-52" stroke="#134365" stroke-width="1" fill="#3B90CE" points="680.620253 71.5083313 699.272152 72 701 21.4309688 677.341772 21 677 26.6025946 682.272152 26.8757439"></polygon>
                <polygon id="路径-53" stroke="#134365" stroke-width="1" fill="#3B90CE" points="648 18.0228289 647.838067 24.01012 642.387143 24.01012 640.420245 70 623 69.214168 624.685056 17"></polygon>
                <polygon id="路径-54" stroke="#134365" stroke-width="1" fill="#3B90CE" points="607.890756 17 624 17.4613201 622.167421 69 606 68.3356991"></polygon>
                <polygon id="路径-55" stroke="#134365" stroke-width="1" fill="#DAE4EA" points="590.998065 16 589 67.4113208 605.854839 68 608 16.8400943"></polygon>
                <polygon id="路径-56" stroke="#134365" stroke-width="1" fill="#3B90CE" points="573.123529 16 571 66.6021277 587.895098 67 590 16.6329787"></polygon>
                <polygon id="路径-57" stroke="#134365" stroke-width="1" fill="#3B90CE" points="554.139219 15 552 66.2260808 570.896435 67 573 15.7002126"></polygon>
                <polygon id="路径-58" stroke="#134365" stroke-width="1" fill="#3B90CE" points="531.588757 14 529 66.1771341 551.818047 67 554 15.1407477"></polygon>
                <polygon id="路径-59" stroke="#134365" stroke-width="1" fill="#3B90CE" points="570 116.065657 571.820366 67 590 67.6628788 588.365876 117"></polygon>
                <polygon id="路径-60" stroke="#134365" stroke-width="1" fill="#3B90CE" points="550 114.925113 569.180961 116 571 68.0007564 551.843053 67"></polygon>
                <polygon id="路径-61" stroke="#134365" stroke-width="1" fill="#3B90CE" points="527 114.374521 528.795546 66 552 66.4503447 549.972973 115"></polygon>
                <polygon id="路径-63" stroke="#134365" stroke-width="1" fill="#DAE4EA" points="420.486855 263 369 293.314552 386.593963 324 426 300.713924"></polygon>
                <polygon id="路径-64" stroke="#134365" stroke-width="1" fill="#DAE4EA" points="414.680439 371 436 359.088635 426.721117 301 387 324.091707"></polygon>
                <polygon id="路径-65" stroke="#134365" stroke-width="1" fill="#45A0E3" points="415.35356 215 422 262.376667 413.42233 267 391 229.47603"></polygon>
                <polygon id="路径-66" stroke="#134365" stroke-width="1" fill="#7AEBEF" points="369 243.263694 390.041908 231 412 267.383306 390.98843 280"></polygon>
                <polygon id="路径-67" stroke="#134365" stroke-width="1" fill="#45A0E3" points="347 254.495365 369.132692 242 392 279.300704 369.773127 292"></polygon>
                <polygon id="路径-68" stroke="#134365" stroke-width="1" fill="#7AEBEF" points="332 263.535139 354.781141 302 370 292.960569 347.2 255"></polygon>
                <polygon id="路径-69" stroke="#134365" stroke-width="1" fill="#45A0E3" points="318 272.870053 340.487307 311 355 302.258 332.758255 264"></polygon>
                <polygon id="路径-70" stroke="#134365" stroke-width="1" fill="#7AEBEF" points="303 281.25955 325.653846 319 341 310.103687 318.140039 273"></polygon>
                <polygon id="路径-71" stroke="#134365" stroke-width="1" fill="#45A0E3" points="284 292.821176 287.067312 298.129412 290.910691 295.795294 310.022877 329 326 319.550588 303.58645 281"></polygon>
                <polygon id="路径-72" stroke="#134365" stroke-width="1" fill="#3B90CE" points="257.61769 308 260.335911 313.306428 256.723538 315.623318 275 348.321375 259.62059 358 238 319.584454"></polygon>
                <polygon id="路径-73" stroke="#134365" stroke-width="1" fill="#3B90CE" points="223 327.906051 245.431017 366 260 357.243631 237.699396 319"></polygon>
                <polygon id="路径-74" stroke="#134365" stroke-width="1" fill="#3B90CE" points="205 339.471396 226.695016 377 245 366.162471 223.227395 329"></polygon>
                <polygon id="路径-75" stroke="#134365" stroke-width="1" fill="#3B90CE" points="186 349.536221 208.354032 388 226 377.069375 204.164968 339"></polygon>
                <polygon id="路径-76" stroke="#134365" stroke-width="1" fill="#3B90CE" points="282 374.024375 220.469408 410 208 388.496472 269.19659 352"></polygon>
                <polygon id="路径-77" stroke="#134365" stroke-width="1" fill="#3B90CE" points="293 391.743642 282.136972 373 221 408.827399 231.640577 428"></polygon>
                <polygon id="路径-78" stroke="#134365" stroke-width="1" fill="#3B90CE" points="321 362.875365 358.405314 341 386 387.812915 347.97004 410"></polygon>
                <polygon id="路径-79" stroke="#134365" stroke-width="1" fill="#3B90CE" points="294 378.57885 314.430582 366 342 413.35229 321.003423 426"></polygon>
                <polygon id="路径-80" stroke="#134365" stroke-width="1" fill="#3B90CE" points="366 337.239609 393.940811 384 416 370.870416 388.4571 324"></polygon>
                <polygon id="路径-81" stroke="#134365" stroke-width="1" fill="#3B90CE" points="305.716601 435 321 425.949072 299.35609 388 284 397.711671"></polygon>
                <polygon id="路径-82" stroke="#134365" stroke-width="1" fill="#7AEBEF" points="290.22593 444 268 406.748581 282.798765 398 305 435.232766"></polygon>
                <polygon id="路径-83" stroke="#134365" stroke-width="1" fill="#7AEBEF" points="272.316456 454 250 417.786902 268.646474 407 291 443.303196"></polygon>
                <polygon id="路径-84" stroke="#134365" stroke-width="1" fill="#3B90CE" points="254.045413 465 232 428.464844 250.619437 418 273 454.174089"></polygon>
                <polygon id="路径-85" stroke="#134365" stroke-width="1" fill="#DAE4EA" points="178 239.325 189.408217 259 233 232.74375 221.774023 213"></polygon>
                <polygon id="路径-86" stroke="#134365" stroke-width="1" fill="#3B90CE" points="167 221.394511 211.007442 196 221 212.949383 177.522327 238"></polygon>
                <polygon id="路径-87" stroke="#134365" stroke-width="1" fill="#3B90CE" points="158 207.418038 202.502969 182 211 196.445257 166.700664 222"></polygon>
                <polygon id="路径-88" stroke="#134365" stroke-width="1" fill="#3B90CE" points="149 192.931306 194.143551 167 203 181.944621 158.056172 208"></polygon>
                <polygon id="路径-89" stroke="#134365" stroke-width="1" fill="#45A0E3" points="141 178.024027 186.384185 152 195 167.032086 149.861442 193"></polygon>
                <polygon id="路径-90" stroke="#134365" stroke-width="1" fill="#DAE4EA" points="132 162.654634 171.299759 138.95288 169.290893 135.382424 174.552025 132 186 151.601412 141.025812 178"></polygon>
                <polygon id="路径-91" stroke="#134365" stroke-width="1" fill="#3B90CE" points="112.122934 128 150.402641 105.048097 152.654388 108.034819 158 104.930363 146.649728 86 103 111.957215"></polygon>
                <polygon id="路径-92" stroke="#134365" stroke-width="1" fill="#3B90CE" points="94 96.9268516 138.474878 70 147 85.1883572 102.913468 112"></polygon>
                <polygon id="路径-93" stroke="#134365" stroke-width="1" fill="#DAE4EA" points="86 82.5373406 130.54965 57 139 71.571949 94.4874126 97"></polygon>
                <polygon id="路径-94" stroke="#134365" stroke-width="1" fill="#3B90CE" points="77 67.5670732 121.943396 42 131 56.7195122 85.8679245 82"></polygon>
                <polygon id="路径-95" stroke="#134365" stroke-width="1" fill="#DAE4EA" points="67 50.1098712 110.663488 25 121 41.8901288 77.1341962 67"></polygon>
                <polygon id="路径-96" stroke="#134365" stroke-width="1" fill="#3B90CE" points="106.205626 17 69.8459478 22.5259594 55 31.96614 66.3831212 51 110 24.1952596"></polygon>
                <polygon id="路径-97" stroke="#134365" stroke-width="1" fill="#3B90CE" points="48.4294263 27 53 34.276885 13.6184442 56 0 33.7750309"></polygon>
                <polygon id="路径-98" stroke="#134365" stroke-width="1" fill="#3B90CE" points="25.3243149 75 67 50.9082569 55.3631634 33 14 56.6697248"></polygon>
                <polygon id="路径-99" stroke="#134365" stroke-width="1" fill="#3B90CE" points="35.5214592 93 77 68.0022292 67.0042918 51 26 75.3798484"></polygon>
                <polygon id="路径-100" stroke="#134365" stroke-width="1" fill="#3B90CE" points="46.1529454 110 87 85.7032977 77.0280341 68 36 92.273482"></polygon>
                <polygon id="路径-101" stroke="#134365" stroke-width="1" fill="#3B90CE" points="116 229.528005 158.300616 205 168 221.292007 125.737052 246"></polygon>
                <polygon id="路径-102" stroke="#134365" stroke-width="1" fill="#3B90CE" points="135.62131 263 178 238.944717 167.742261 222 126 246.25026"></polygon>
                <polygon id="路径-103" stroke="#134365" stroke-width="1" fill="#3B90CE" points="146.277648 282 188 257.613931 176.679071 239 135 262.646362"></polygon>
                <polygon id="路径-104" stroke="#134365" stroke-width="1" fill="#7AEBEF" points="184 0 213 1.40544313 211.066667 53 203.845098 52.7041172"></polygon>
                <polygon id="路径-105" stroke="#134365" stroke-width="1" fill="#3B90CE" points="251.059511 54 273 54.8090818 270.321998 104 249 103.391621"></polygon>
                <polygon id="路径-106" stroke="#134365" stroke-width="1" fill="#3B90CE" points="211.999122 72.2462687 209 66.4875622 210.007902 54 251 55.4552239 249.156277 104 221.291484 102.91791 222.250219 72.2089552"></polygon>
                <polygon id="路径-107" stroke="#134365" stroke-width="1" fill="#3B90CE" points="410.859118 61 409 108.908385 428.103824 110 430 61.6991239"></polygon>
                <polygon id="路径-108" stroke="#134365" stroke-width="1" fill="#3B90CE" points="449 61.729761 428.590361 61 427 111.007832 447.049914 112"></polygon>
                <polygon id="路径-109" stroke="#134365" stroke-width="1" fill="#3B90CE" points="472 63.1645379 449.488561 62 448 111.229902 470.279614 112"></polygon>
                <polygon id="路径-110" stroke="#134365" stroke-width="1" fill="#3B90CE" points="303.780822 6 302 56.1078014 320.164384 57 322.495073 12.8120567 327.62509 13.0170213 328 6.89219858"></polygon>
                <polygon id="路径-111" stroke="#134365" stroke-width="1" fill="#3B90CE" points="287.511423 4 285 55.3755796 302.282311 56 304 4.6862442"></polygon>
                <polygon id="路径-112" stroke="#134365" stroke-width="1" fill="#7AEBEF" points="270.507016 3 288 3.84186818 285.324602 56 268 55.3403272"></polygon>
                <polygon id="路径-113" stroke="#134365" stroke-width="1" fill="#7AEBEF" points="253.237312 3 271 3.70868334 268.226005 55 251 54.1865371"></polygon>
                <polygon id="路径-114" stroke="#134365" stroke-width="1" fill="#3B90CE" points="234.192014 2 252 2.62308958 250.368734 55 232 54.1962144"></polygon>
                <polygon id="路径-115" stroke="#134365" stroke-width="1" fill="#3B90CE" points="213.386674 1 234 2.03702402 231.726379 54 211 53.2362039"></polygon>
                <polygon id="路径-116" stroke="#134365" stroke-width="1" fill="#7AEBEF" points="356.191424 8 381 8.88104483 378.294538 60 359.943338 59.9082245 361.800153 14.3692199 356 13.8858689"></polygon>
                <polygon id="路径-117" stroke="#134365" stroke-width="1" fill="#7AEBEF" points="398 9.37690114 395.825662 61 379 60.4068441 381.539723 9"></polygon>
                <polygon id="路径-118" stroke="#134365" stroke-width="1" fill="#7AEBEF" points="414 9.62301305 412.368473 61 396 60.0007117 398.287685 9"></polygon>
                <polygon id="路径-119" stroke="#134365" stroke-width="1" fill="#3B90CE" points="432 10.630303 429.673509 62 412 60.8877005 413.570544 10"></polygon>
                <polygon id="路径-120" stroke="#134365" stroke-width="1" fill="#7AEBEF" points="451 11.3506033 449.199491 63 430 61.8928318 432.032258 11"></polygon>
                <polygon id="路径-121" stroke="#134365" stroke-width="1" fill="#3B90CE" points="474 11.9600094 472.14885 64 449 62.3916725 451.103867 11"></polygon>
                <path d="M1227.65019,122.9831 L1246.72752,170.348399 L1262.34981,164.0169 L1243.27248,116.651601 L1227.65019,122.9831 Z" id="矩形复制-125" stroke="#134365" stroke-width="1" fill="#EDEFF2"></path>
                <path d="M1296.65648,94.985711 L1316.26517,142.354506 L1332.34352,136.014289 L1312.73483,88.6454939 L1296.65648,94.985711 Z" id="矩形复制-126" stroke="#134365" stroke-width="1" fill="#EDEFF2"></path>
                <path d="M1329.65019,80.9830999 L1348.72752,128.348399 L1364.34981,122.0169 L1345.27248,74.6516007 L1329.65019,80.9830999 Z" id="矩形复制-127" stroke="#134365" stroke-width="1" fill="#EDEFF2"></path>
                <path d="M1346.6553,74.2778307 L1366.04408,121.353393 L1390.3447,111.722169 L1370.95592,64.6466067 L1346.6553,74.2778307 Z" id="矩形复制-128" stroke="#134365" stroke-width="1" fill="#EDEFF2"></path>
                <path d="M1371.65019,64.9830999 L1390.72752,112.348399 L1406.34981,106.0169 L1387.27248,58.6516007 L1371.65019,64.9830999 Z" id="矩形复制-129" stroke="#134365" stroke-width="1" fill="#EDEFF2"></path>
                <path d="M1388.65019,57.9830999 L1407.72752,105.348399 L1423.34981,99.0169001 L1404.27248,51.6516007 L1388.65019,57.9830999 Z" id="矩形复制-130" stroke="#134365" stroke-width="1" fill="#EDEFF2"></path>
                <path d="M1404.65232,50.1059466 L1424.26692,98.3505155 L1440.34768,91.8940534 L1420.73308,43.6494845 L1404.65232,50.1059466 Z" id="矩形复制-131" stroke="#134365" stroke-width="1" fill="#EDEFF2"></path>
                <path d="M1349.64724,129.113214 L1367.62617,174.345371 L1383.35276,167.886786 L1365.37383,122.654629 L1349.64724,129.113214 Z" id="矩形复制-132" stroke="#134365" stroke-width="1" fill="#EDEFF2"></path>
                <path d="M1365.66188,123.280447 L1384.32902,167.359413 L1409.33812,157.719553 L1390.67098,113.640587 L1365.66188,123.280447 Z" id="矩形复制-133" stroke="#134365" stroke-width="1" fill="#EDEFF2"></path>
                <path d="M1391.65151,112.986021 L1409.62435,157.349718 L1425.34849,151.013979 L1407.37565,106.650282 L1391.65151,112.986021 Z" id="矩形复制-134" stroke="#134365" stroke-width="1" fill="#EDEFF2"></path>
                <path d="M1407.64724,106.113214 L1425.62617,151.345371 L1441.35276,144.886786 L1423.37383,99.6546285 L1407.64724,106.113214 Z" id="矩形复制-135" stroke="#134365" stroke-width="1" fill="#EDEFF2"></path>
                <path d="M1424.64724,99.1132136 L1442.62617,144.345371 L1458.35276,137.886786 L1440.37383,92.6546285 L1424.64724,99.1132136 Z" id="矩形复制-136" stroke="#134365" stroke-width="1" fill="#EDEFF2"></path>
                <path d="M1210.64619,129.103305 L1229.72923,177.344259 L1245.35381,170.896695 L1226.27077,122.655741 L1210.64619,129.103305 Z" id="矩形复制-137" stroke="#134365" stroke-width="1" fill="#EDEFF2"></path>
                <path d="M1280.64397,100.980366 L1299.18989,148.341881 L1314.35603,142.019634 L1295.81011,94.6581189 L1280.64397,100.980366 Z" id="矩形复制-138" stroke="#134365" stroke-width="1" fill="#EDEFF2"></path>
                <path d="M1312.65648,87.985711 L1332.26517,135.354506 L1348.34352,129.014289 L1328.73483,81.6454939 L1312.65648,87.985711 Z" id="矩形复制-139" stroke="#134365" stroke-width="1" fill="#EDEFF2"></path>
                <path d="M1333.64096,136.110377 L1351.10465,181.33854 L1366.35904,174.889623 L1348.89535,129.66146 L1333.64096,136.110377 Z" id="矩形复制-140" stroke="#134365" stroke-width="1" fill="#EDEFF2"></path>
                <path d="M1194.65373,135.715406 L1214.14113,183.351895 L1229.34627,177.284594 L1209.85887,129.648105 L1194.65373,135.715406 Z" id="矩形复制-141" stroke="#134365" stroke-width="1" fill="#EDEFF2"></path>
                <rect id="矩形复制-142" stroke="#134365" stroke-width="1" fill="#EDEFF2" transform="translate(1193.000000, 521.500000) rotate(-90.000000) translate(-1193.000000, -521.500000) " x="1185" y="495" width="16" height="53"></rect>
                <rect id="矩形复制-143" stroke="#134365" stroke-width="1" fill="#EDEFF2" transform="translate(1193.000000, 411.500000) rotate(-90.000000) translate(-1193.000000, -411.500000) " x="1185" y="385" width="16" height="53"></rect>
                <rect id="矩形复制-144" stroke="#134365" stroke-width="1" fill="#EDEFF2" transform="translate(1193.000000, 376.500000) rotate(-90.000000) translate(-1193.000000, -376.500000) " x="1185" y="350" width="16" height="53"></rect>
                <rect id="矩形复制-145" stroke="#134365" stroke-width="1" fill="#EDEFF2" transform="translate(1244.500000, 376.500000) rotate(-90.000000) translate(-1244.500000, -376.500000) " x="1236.5" y="352.5" width="16" height="48"></rect>
                <path d="M1462.13656,406.649076 L1410.65273,427.282242 L1420.86344,452.350924 L1472.34727,431.717758 L1462.13656,406.649076 Z" id="矩形复制-146" stroke="#134365" stroke-width="1" fill="#3B90CE"></path>
                <path d="M1471.96799,432.650266 L1419.65153,453.728653 L1430.03201,479.349734 L1482.34847,458.271347 L1471.96799,432.650266 Z" id="矩形复制-147" stroke="#134365" stroke-width="1" fill="#3B90CE"></path>
                <path d="M1408.43566,427.655256 L1363.64665,446.099053 L1383.56434,496.344744 L1428.35335,477.900947 L1408.43566,427.655256 Z" id="矩形复制-148" stroke="#134365" stroke-width="1" fill="#3B90CE"></path>
                <path d="M1182.55034,666.089883 L1207.32254,898.451282 L1270.44966,891.910117 L1245.67746,659.548718 L1182.55034,666.089883 Z" id="矩形复制-149" stroke="#134365" stroke-width="1" fill="#3B90CE"></path>
                <path d="M1483.5146,459.650277 L1430.65152,480.949877 L1436.4854,495.349723 L1489.34848,474.050123 L1483.5146,459.650277 Z" id="矩形复制-150" stroke="#134365" stroke-width="1" fill="#3B90CE"></path>
                <path d="M1518.07258,546.659333 L1466.64286,568.208937 L1472.92742,584.340667 L1524.35714,562.791063 L1518.07258,546.659333 Z" id="矩形复制-151" stroke="#134365" stroke-width="1" fill="#3B90CE"></path>
                <path d="M1525.69319,564.644975 L1472.65703,585.509271 L1481.30681,606.355025 L1534.34297,585.490729 L1525.69319,564.644975 Z" id="矩形复制-152" stroke="#134365" stroke-width="1" fill="#3B90CE"></path>
                <path d="M1489.15753,474.651399 L1437.65039,495.507953 L1444.84247,513.348601 L1496.34961,492.492047 L1489.15753,474.651399 Z" id="矩形复制-153" stroke="#134365" stroke-width="1" fill="#3B90CE"></path>
                <path d="M1511.03302,528.647692 L1458.65416,549.509533 L1465.96698,567.352308 L1518.34584,546.490467 L1511.03302,528.647692 Z" id="矩形复制-154" stroke="#134365" stroke-width="1" fill="#3B90CE"></path>
                <rect id="矩形复制-155" stroke="#134365" stroke-width="1" fill="#EDEFF2" transform="translate(1243.500000, 354.000000) rotate(-90.000000) translate(-1243.500000, -354.000000) " x="1230" y="329" width="27" height="50"></rect>
                <rect id="矩形复制-156" stroke="#134365" stroke-width="1" fill="#EDEFF2" transform="translate(1243.500000, 331.500000) rotate(-90.000000) translate(-1243.500000, -331.500000) " x="1235.5" y="306.5" width="16" height="50"></rect>
                <rect id="矩形复制-157" stroke="#134365" stroke-width="1" fill="#EDEFF2" transform="translate(1243.500000, 314.000000) rotate(-90.000000) translate(-1243.500000, -314.000000) " x="1235" y="289" width="17" height="50"></rect>
                <rect id="矩形复制-158" stroke="#134365" stroke-width="1" fill="#EDEFF2" transform="translate(1244.500000, 521.500000) rotate(-90.000000) translate(-1244.500000, -521.500000) " x="1236.5" y="497.5" width="16" height="48"></rect>
                <rect id="矩形复制-159" stroke="#134365" stroke-width="1" fill="#EDEFF2" transform="translate(1193.000000, 486.000000) rotate(-90.000000) translate(-1193.000000, -486.000000) " x="1184.5" y="459.5" width="17" height="53"></rect>
                <path d="M1178.64964,141.830734 L1198.14286,190.34784 L1213.35036,184.169266 L1193.85714,135.65216 L1178.64964,141.830734 Z" id="矩形复制-160" stroke="#134365" stroke-width="1" fill="#EDEFF2"></path>
                <rect id="矩形复制-161" stroke="#134365" stroke-width="1" fill="#EDEFF2" transform="translate(1193.000000, 539.500000) rotate(-90.000000) translate(-1193.000000, -539.500000) " x="1184" y="513" width="18" height="53"></rect>
                <rect id="矩形复制-162" stroke="#134365" stroke-width="1" fill="#EDEFF2" transform="translate(1193.000000, 429.500000) rotate(-90.000000) translate(-1193.000000, -429.500000) " x="1184" y="403" width="18" height="53"></rect>
                <rect id="矩形复制-163" stroke="#134365" stroke-width="1" fill="#EDEFF2" transform="translate(1193.000000, 394.000000) rotate(-90.000000) translate(-1193.000000, -394.000000) " x="1184.5" y="367.5" width="17" height="53"></rect>
                <rect id="矩形复制-164" stroke="#134365" stroke-width="1" fill="#EDEFF2" transform="translate(1244.500000, 394.000000) rotate(-90.000000) translate(-1244.500000, -394.000000) " x="1236" y="370" width="17" height="48"></rect>
                <rect id="矩形复制-165" stroke="#134365" stroke-width="1" fill="#EDEFF2" transform="translate(1244.500000, 539.500000) rotate(-90.000000) translate(-1244.500000, -539.500000) " x="1235.5" y="515.5" width="18" height="48"></rect>
                <rect id="矩形复制-166" stroke="#134365" stroke-width="1" fill="#EDEFF2" transform="translate(1244.500000, 564.000000) rotate(-90.000000) translate(-1244.500000, -564.000000) " x="1230" y="540" width="29" height="48"></rect>
                <rect id="矩形复制-167" stroke="#134365" stroke-width="1" fill="#EDEFF2" transform="translate(1193.000000, 564.000000) rotate(-90.000000) translate(-1193.000000, -564.000000) " x="1178.5" y="537.5" width="29" height="53"></rect>
                <rect id="矩形复制-168" stroke="#134365" stroke-width="1" fill="#EDEFF2" transform="translate(1193.000000, 504.000000) rotate(-90.000000) translate(-1193.000000, -504.000000) " x="1184.5" y="477.5" width="17" height="53"></rect>
                <path d="M1165.50203,147.788361 L1165.83936,203.250213 L1196.35719,190.459816 L1177.73973,142.659391 L1165.50203,147.788361 Z" id="矩形复制-169" stroke="#134365" stroke-width="1" fill="#EDEFF2"></path>
                <path d="M1174.64869,201.025753 L1192.38032,245.346866 L1215.35131,235.974247 L1197.61968,191.653134 L1174.64869,201.025753 Z" id="矩形复制-170" stroke="#134365" stroke-width="1" fill="#EDEFF2"></path>
                <path d="M1197.65518,190.720352 L1216.02836,235.353279 L1231.34482,229.279648 L1212.97164,184.646721 L1197.65518,190.720352 Z" id="矩形复制-171" stroke="#134365" stroke-width="1" fill="#EDEFF2"></path>
                <path d="M1214.65297,184.595552 L1232.49347,228.351155 L1247.34703,222.404448 L1229.50653,178.648845 L1214.65297,184.595552 Z" id="矩形复制-172" stroke="#134365" stroke-width="1" fill="#EDEFF2"></path>
                <path d="M1165.94633,203.773884 L1165.5063,256.250912 L1191.35325,245.612367 L1173.52348,200.655146 L1165.94633,203.773884 Z" id="矩形复制-173" stroke="#134365" stroke-width="1" fill="#EDEFF2"></path>
                <path d="M1207.5,313.5 L1176.75576,313.5 L1192.23389,349.921966 L1192.27371,350.117523 L1192.27371,364.5 L1207.5,364.5 L1207.5,313.5 Z" id="路径-122复制-2" stroke="#134365" stroke-width="1" fill="#EDEFF2" transform="translate(1192.000000, 339.000000) rotate(-90.000000) translate(-1192.000000, -339.000000) "></path>
                <path d="M1189.58321,278 L1173,278 L1173,329 L1210.75111,329 L1189.58321,278 Z" id="路径-123复制-2" stroke="#134365" stroke-width="1" fill="#EDEFF2" transform="translate(1192.000000, 303.500000) rotate(-90.000000) translate(-1192.000000, -303.500000) "></path>
                <path d="M1178.5,328.5 L1178.5,379.5 L1205.5,379.5 L1205.5,365.137003 L1189.63893,328.5 L1178.5,328.5 Z" id="路径-124复制-2" stroke="#134365" stroke-width="1" fill="#EDEFF2" transform="translate(1192.000000, 354.000000) rotate(-90.000000) translate(-1192.000000, -354.000000) "></path>
                <path d="M1264.26665,308.5 L1245.03643,259.5 L1223.5,259.5 L1223.5,308.5 L1264.26665,308.5 Z" id="路径-125复制-2" stroke="#134365" stroke-width="1" fill="#EDEFF2" transform="translate(1244.000000, 284.000000) rotate(-90.000000) translate(-1244.000000, -284.000000) "></path>
                <path d="M1427.64593,604.153552 L1442.00279,640.489141 L1477.32509,639.372982 L1491.35407,633.577123 L1472.41955,585.656012 L1427.64593,604.153552 Z" id="路径-126复制-2" stroke="#134365" stroke-width="1" fill="#3B90CE"></path>
                <path d="M1556.25444,638.49364 L1534.77359,585.649524 L1482.73642,606.546234 L1493.36621,632.696138 L1480.53323,637.849514 L1556.25444,638.49364 Z" id="路径-127复制-2" stroke="#134365" stroke-width="1" fill="#3B90CE"></path>
                <path d="M1242.4214,620.907678 L1271.06538,893.952902 L1207.54942,900.641332 L1215.56134,977.013967 L1247.31932,973.669751 L1251.28272,1011.45037 L1520.87081,983.061894 L1528.91136,1007.54968 L1666.36232,962.926049 L1556.04527,640.878591 L1409.4975,640.878591 L1429.12036,718.323859 L1286.45846,733.346605 L1274.31071,617.549633 L1242.4214,620.907678 Z" id="路径-128复制-2" stroke="#134365" stroke-width="1" fill="#3B90CE"></path>
                <path d="M1685.34105,1023.24741 L1666.75108,963.631401 L1528.65818,1008.3478 L1540.38165,1038.46288 L1685.34105,1023.24741 Z" id="路径-129复制-2" stroke="#134365" stroke-width="1" fill="#3B90CE"></path>
                <rect id="矩形复制-174" stroke="#134365" stroke-width="1" fill="#7AEBEF" transform="translate(1594.000000, 290.000000) rotate(-270.000000) translate(-1594.000000, -290.000000) " x="1584.5" y="261.5" width="19" height="57"></rect>
                <rect id="矩形复制-175" stroke="#134365" stroke-width="1" fill="#7AEBEF" transform="translate(1594.000000, 231.000000) rotate(-270.000000) translate(-1594.000000, -231.000000) " x="1584.5" y="202.5" width="19" height="57"></rect>
                <rect id="矩形复制-176" stroke="#134365" stroke-width="1" fill="#7AEBEF" transform="translate(1594.000000, 211.500000) rotate(-270.000000) translate(-1594.000000, -211.500000) " x="1585" y="183" width="18" height="57"></rect>
                <rect id="矩形复制-177" stroke="#134365" stroke-width="1" fill="#7AEBEF" transform="translate(1539.000000, 193.000000) rotate(-270.000000) translate(-1539.000000, -193.000000) " x="1530.5" y="167.5" width="17" height="51"></rect>
                <rect id="矩形复制-178" stroke="#134365" stroke-width="1" fill="#7AEBEF" transform="translate(1539.000000, 328.000000) rotate(-270.000000) translate(-1539.000000, -328.000000) " x="1530.5" y="302.5" width="17" height="51"></rect>
                <rect id="矩形复制-179" stroke="#134365" stroke-width="1" fill="#7AEBEF" transform="translate(1539.000000, 345.500000) rotate(-270.000000) translate(-1539.000000, -345.500000) " x="1531" y="320" width="16" height="51"></rect>
                <rect id="矩形复制-180" stroke="#134365" stroke-width="1" fill="#7AEBEF" transform="translate(1539.000000, 365.000000) rotate(-270.000000) translate(-1539.000000, -365.000000) " x="1528.5" y="339.5" width="21" height="51"></rect>
                <rect id="矩形复制-181" stroke="#134365" stroke-width="1" fill="#7AEBEF" transform="translate(1594.000000, 309.500000) rotate(-270.000000) translate(-1594.000000, -309.500000) " x="1585" y="281" width="18" height="57"></rect>
                <rect id="矩形复制-182" stroke="#134365" stroke-width="1" fill="#7AEBEF" transform="translate(1594.000000, 332.000000) rotate(-270.000000) translate(-1594.000000, -332.000000) " x="1581.5" y="303.5" width="25" height="57"></rect>
                <rect id="矩形复制-183" stroke="#134365" stroke-width="1" fill="#7AEBEF" transform="translate(1594.000000, 360.500000) rotate(-270.000000) translate(-1594.000000, -360.500000) " x="1579" y="332" width="30" height="57"></rect>
                <path d="M1569.1327,119.5 L1569.1327,177.068412 L1540.5,177.068412 L1540.5,191.365896 L1556.20669,228.5 L1577.22876,228.5 L1577.22876,176.068412 L1595.5,176.068412 L1595.5,119.5 L1569.1327,119.5 Z" id="路径-130复制-2" stroke="#134365" stroke-width="1" fill="#7AEBEF" transform="translate(1568.000000, 174.000000) rotate(-270.000000) translate(-1568.000000, -174.000000) "></path>
                <path d="M1559.24351,110 L1587.32354,178.946722 L1587.32354,166.197194 L1615,166.197194 L1615,110 L1559.24351,110 Z" id="路径-131复制-2" stroke="#134365" stroke-width="1" fill="#7AEBEF" transform="translate(1587.000000, 145.500000) rotate(-270.000000) translate(-1587.000000, -145.500000) "></path>
                <polygon id="路径-62" stroke="#134365" stroke-width="1" fill="#3B90CE" points="293 537.333333 453.363636 442 518 547.250035 339.702057 618"></polygon>
            </g>
        </g>
    </g>
</svg>