<?xml version="1.0" encoding="UTF-8"?>
<svg width="1686px" height="1190px" viewBox="0 0 1686 1190" version="1.1" xmlns="http://www.w3.org/2000/svg" xmlns:xlink="http://www.w3.org/1999/xlink">
    <!-- Generator: Sketch 54.1 (76490) - https://sketchapp.com -->
    <title>租约情况</title>
    <desc>Created with Sketch.</desc>
    <g id="Page-1" stroke="none" stroke-width="1" fill="none" fill-rule="evenodd">
        <g id="资产地图-租约情况" transform="translate(-84.000000, -216.000000)">
            <g id="租约情况" transform="translate(85.000000, 217.000000)">
                <polygon id="路径-2" stroke="#134365" stroke-width="1" fill="#E0572D" points="743 837.375731 845.122852 777 843.055039 845.296889 849 855.386203 778.177427 897"></polygon>
                <polygon id="路径-3" stroke="#134365" stroke-width="1" fill="#D7DEE3" points="963 1046.54085 876.401087 1063 778 896.671454 849.495606 855"></polygon>
                <polygon id="路径-4" stroke="#134365" stroke-width="1" fill="#E0572D" points="536 943.585209 582.861269 916 608 958.135852 560.915936 985"></polygon>
                <polygon id="路径-5" stroke="#134365" stroke-width="1" fill="#D7DEE3" points="578 1014.26791 624.048855 987 649 1028.49225 601.567383 1056"></polygon>
                <polygon id="路径-6" stroke="#134365" stroke-width="1" fill="#D7DEE3" points="617 1080.95495 661.361361 1055 678.670411 1084.0651 701.330873 1070.10645 732 1123.68251 681.456836 1175 653.463415 1126.2743 646.04525 1131.12465"></polygon>
                <polygon id="路径-7" stroke="#134365" stroke-width="1" fill="#D7DEE3" points="457 809.196004 474.096985 839 523 810.039748 505.644992 780"></polygon>
                <polygon id="路径-8" stroke="#134365" stroke-width="1" fill="#D7DEE3" points="541 840.414919 523.421093 810 475 839.753632 492.135678 870"></polygon>
                <polygon id="路径-9" stroke="#134365" stroke-width="1" fill="#D7DEE3" points="424 751.714694 472.709911 723 490 753.095208 441.400334 781"></polygon>
                <polygon id="路径-10" stroke="#134365" stroke-width="1" fill="#FFB755" points="476 664.80017 554.758255 619 580 661.659376 501.003615 706"></polygon>
                <polygon id="路径-11" stroke="#134365" stroke-width="1" fill="#E0572D" points="518 734.957382 601.629584 685 637 746.597039 552.505029 795"></polygon>
                <polygon id="路径-12" stroke="#134365" stroke-width="1" fill="#D7DEE3" points="570 822.32651 653.092915 772 689 832.917611 604.575823 883"></polygon>
                <polygon id="路径-13" stroke="#134365" stroke-width="1" fill="#D7DEE3" points="620 910.149796 705.571817 860 723 891.121198 638.26877 940"></polygon>
                <polygon id="路径-14" stroke="#134365" stroke-width="1" fill="#FFB755" points="654 968.352761 738.181791 918 781 991.849472 696.78091 1040"></polygon>
                <polygon id="路径-15" stroke="#134365" stroke-width="1" fill="#D7DEE3" points="819.764187 1099 945 1118.83556 931.693465 1173.43907 839.190993 1188 774 1177.11644"></polygon>
                <polygon id="路径-16" stroke="#ED7070" stroke-width="2" fill="#D7DEE3" points="399 710.118662 448.433148 681 473 722.91576 423.672905 751"></polygon>
                <path d="M600,592.365817 L715.835575,525 C737.743365,543.794019 763.637776,552.104384 793.518809,549.931094 C800.761896,566.270451 822.58896,613.31724 859,691.071463 L858.608789,711.890594 L718.313242,793 L600,592.365817 Z" id="路径-17" stroke="#134365" stroke-width="1" fill="#D7DEE3"></path>
                <path d="" id="路径-18" stroke="#134365" stroke-width="1" fill="#D0E7F8"></path>
                <path d="M852,525.927249 C873.070693,505.835011 883.197501,478.905489 882.380423,445.138681 C903.603513,436.811654 929.143371,427.09876 959,416 L956.065949,530 L852,525.927249 Z" id="路径-19" stroke="#134365" stroke-width="1" fill="#D7DEE3"></path>
                <polygon id="路径-20" stroke="#134365" stroke-width="1" fill="#D7DEE3" points="952 596.941629 955.61411 530 1020.33618 532.752534 1021 600"></polygon>
                <polygon id="路径-21" stroke="#134365" stroke-width="1" fill="#E0572D" points="949 675.912886 952.505909 598 1021.08222 601.136116 1022 679"></polygon>
                <path d="M903.333855,646.739848 L838,538.255595 C842.348262,535.221199 847.368306,531.136001 853.060132,526 C863.10868,526.793483 897.088636,528.280132 955,530.459949 L948.721892,648 L903.333855,646.739848 Z" id="路径-22" stroke="#134365" stroke-width="1" fill="#D7DEE3"></path>
                <polygon id="路径-23" stroke="#134365" stroke-width="1" fill="#D7DEE3" points="1018.67841 464.008908 956.898625 462 955 530.00524 1020 533"></polygon>
                <polygon id="路径-24" stroke="#134365" stroke-width="1" fill="#D7DEE3" points="910.010801 719 925 719.610086 923.620162 750 904 749.389914"></polygon>
                <polygon id="路径-25" stroke="#134365" stroke-width="1" fill="#D7DEE3" points="983.331126 723 1020.68377 724.320116 1036 806 981 803.84319"></polygon>
                <polygon id="路径-26" stroke="#134365" stroke-width="1" fill="#D7DEE3" points="902.900665 756 971.482944 758.775738 971.427591 766.727853 982 767.177973 980.985196 803 896 799.886672"></polygon>
                <path d="M1003,897 C986.749799,885.19807 979.000461,868.693274 979.751986,847.485614 C980.503512,826.277953 981.107196,811.422034 981.56304,802.917856 L896.794646,800 L896,804.189742 L948.040069,894.400116 L1003,897 Z" id="路径-27" stroke="#134365" stroke-width="1" fill="#D7DEE3"></path>
                <polygon id="路径-28" stroke="#134365" stroke-width="1" fill="#D7DEE3" points="953 902 992 903.802517 991.07411 929.644724 982.822425 929.282995 982.615977 940 973.794995 939.558567"></polygon>
                <polygon id="路径-29" stroke="#134365" stroke-width="1" fill="#D7DEE3" points="979 947.900651 1005.61638 948.879022 1007.25431 906 1044.25666 907.655706 1062.14361 941.334271 1074 1003.91243 1017.3797 1013"></polygon>
                <path d="M1049,870.054945 L1045.91214,875 L1028.43938,873.901099 C1015.20929,870.040954 1008.73232,862.373067 1009.00847,850.897436 C1009.28462,839.421805 1009.94361,824.12266 1010.98545,805 L1036.46028,805.842491 L1049,870.054945 Z" id="路径-30" stroke="#134365" stroke-width="1" fill="#D7DEE3"></path>
                <polygon id="路径-31" stroke="#134365" stroke-width="1" fill="#FFB755" points="920.264831 268.823642 959.510064 270.420147 961.011653 235 1020 237.895987 1016.2553 330.493311 915 371"></polygon>
                <polygon id="路径-32" stroke="#134365" stroke-width="1" fill="#D7DEE3" points="1022.30724 197 962.33678 193.657836 963.832349 158.445087 958.533235 158.038857 959.105613 142.786769 926 140.64483 928.215657 82 1026 86.0622993"></polygon>
                <path d="M890.700018,140 L827.176481,254.183825 L823,368.293887 C840.041536,376.899472 851.620085,385.468177 857.735647,394 C866.589533,391.032226 885.889186,383.176555 915.634607,370.43299 L924,192.813707 L912.533321,192.813707 L914.975817,140.700741 L890.700018,140 Z" id="路径-33" stroke="#134365" stroke-width="1" fill="#E0572D"></path>
                <polygon id="路径-34" stroke="#134365" stroke-width="1" fill="#D7DEE3" points="1018.32405 392 1019 464 958 461.861751 959.315364 415.815668"></polygon>
                <path d="M667.391863,427 L691,428.093575 C688.140931,438.325419 686.91165,446.960894 687.312158,454 C680.428558,453.716982 673.324505,453.383882 666,453.000698 L667.391863,427 Z" id="路径-35" stroke="#134365" stroke-width="1" fill="#D7DEE3"></path>
                <polygon id="路径-36" stroke="#134365" stroke-width="1" fill="#D7DEE3" points="664.801762 461 664 486 690 475.739229 688.052863 461.680272"></polygon>
                <polygon id="路径-37" stroke="#134365" stroke-width="1" fill="#D7DEE3" points="625.363057 485 646 485.991363 645.713376 493.201277 625 501"></polygon>
                <polygon id="路径-38" stroke="#134365" stroke-width="1" fill="#D7DEE3" points="520 454 536.113208 481.716599 547.396226 482 548 455.095816"></polygon>
                <polygon id="路径-39" stroke="#134365" stroke-width="1" fill="#D7DEE3" points="541 490.170213 549.706049 503.66979 614.88076 506 625.981437 501.221884 626 485.50152 599.473466 484.480243 600.55012 459.00304 572.111596 458 570.663682 491.009119"></polygon>
                <polygon id="路径-40" stroke="#134365" stroke-width="1" fill="#D7DEE3" points="514.88826 378 583 380.175402 580.422503 448 516.204428 445.640242 512 439.003424"></polygon>
                <polygon id="路径-41" stroke="#134365" stroke-width="1" fill="#D7DEE3" points="516.770652 310 586 312.371625 582.675218 380 514 377.961885"></polygon>
                <polygon id="路径-42" stroke="#134365" stroke-width="1" fill="#FFB755" points="522.562078 170 592 172.821941 589.381818 236 520 233.01097"></polygon>
                <polygon id="路径-43" stroke="#134365" stroke-width="1" fill="#D7DEE3" points="623.346389 237 626 174.111754 591.710071 173 589 235.943833"></polygon>
                <polygon id="路径-43复制" stroke="#134365" stroke-width="1" fill="#D7DEE3" points="657.418108 238 660 175.111754 626.636826 174 624 236.943833"></polygon>
                <path d="M648.795821,415.323325 L695.806845,417.393681 C714.167057,381.581447 741.85544,362.652476 778.871995,360.606767 C779.082655,346.69993 779.0333,322.4287 778.723929,287.793076 L722.273682,286 L721.459318,317.314138 L586.182318,312.766749 L581,448.190231 L646.685877,451 L648.795821,415.323325 Z" id="路径-44" stroke="#134365" stroke-width="1" fill="#D7DEE3"></path>
                <polygon id="路径-45" stroke="#134365" stroke-width="1" fill="#D7DEE3" points="776.676471 179.559453 778 220.260907 724.948529 217.814371 724.286765 240 658 237.423724 660.181373 175"></polygon>
                <polygon id="路径-46" stroke="#134365" stroke-width="1" fill="#D7DEE3" points="741.478607 251 777.742289 251.8762 778 277 741 275.819585"></polygon>
                <polygon id="路径-47" stroke="#134365" stroke-width="1" fill="#FFB755" points="518.227687 278.043557 587.796637 280.524274 589.470757 236 725 240.869555 722.358612 317 517 310.476633"></polygon>
                <polygon id="路径-48" stroke="#134365" stroke-width="1" fill="#D7DEE3" points="819 25.1826452 796.774353 76 789 75.0174948 791.225647 24"></polygon>
                <polygon id="路径-49" stroke="#134365" stroke-width="1" fill="#D7DEE3" points="756.395582 23 792 24.1335581 790.263042 76 754 74.4844822"></polygon>
                <polygon id="路径-50" stroke="#134365" stroke-width="1" fill="#D7DEE3" points="759.314189 121.452509 775.473395 122 791.600929 88.609063 792 76.2995392 756.67272 75 756.159628 82.4362519 747.570101 82.0391705 747 91.3525346 760.454392 91.641321"></polygon>
                <polygon id="路径-51" stroke="#134365" stroke-width="1" fill="#D7DEE3" points="699.903052 19 718 20.0185053 715.630162 72 698 71.283274"></polygon>
                <polygon id="路径-52" stroke="#134365" stroke-width="1" fill="#D7DEE3" points="680.469409 70.4986908 698.344146 71 700 19.4394192 677.327532 19 677 24.7124494 682.052479 24.9909545"></polygon>
                <polygon id="路径-53" stroke="#134365" stroke-width="1" fill="#D7DEE3" points="647 18.0035302 646.838067 23.8778536 641.387143 23.8778536 639.420245 69 622 68.2289951 623.685056 17"></polygon>
                <polygon id="路径-54" stroke="#134365" stroke-width="1" fill="#D7DEE3" points="606.995798 16 624 16.4701916 622.065611 69 605 68.3229241"></polygon>
                <polygon id="路径-55" stroke="#134365" stroke-width="1" fill="#D7DEE3" points="589.103226 15 587 67.4 604.741935 68 607 15.85625"></polygon>
                <polygon id="路径-56" stroke="#134365" stroke-width="1" fill="#FFB755" points="572.123529 15 570 66.5943262 586.895098 67 589 15.6453901"></polygon>
                <polygon id="路径-57" stroke="#134365" stroke-width="1" fill="#FFB755" points="553.241087 15 551 66.2260808 570.796265 67 573 15.7002126"></polygon>
                <polygon id="路径-58" stroke="#134365" stroke-width="1" fill="#D7DEE3" points="530.692308 14 528 65.1926599 551.730769 66 554 15.1192242"></polygon>
                <polygon id="路径-59" stroke="#134365" stroke-width="1" fill="#D7DEE3" points="569 115.084343 570.820366 67 589 67.6496212 587.365876 116"></polygon>
                <polygon id="路径-60" stroke="#134365" stroke-width="1" fill="#FFB755" points="549 114.903177 568.180961 116 570 67.02118 550.843053 66"></polygon>
                <polygon id="路径-61" stroke="#134365" stroke-width="1" fill="#D7DEE3" points="527 113.374521 528.723724 65 551 65.4503447 549.054054 114"></polygon>
                <polygon id="路径-63" stroke="#134365" stroke-width="1" fill="#D7DEE3" points="420.486855 263 369 292.817592 386.593963 323 426 300.095663"></polygon>
                <polygon id="路径-64" stroke="#134365" stroke-width="1" fill="#D7DEE3" points="413.680439 371 435 358.918473 425.721117 300 386 323.421588"></polygon>
                <polygon id="路径-65" stroke="#134365" stroke-width="1" fill="#E0572D" points="414.139159 215 421 261.465577 412.145631 266 389 229.197645"></polygon>
                <polygon id="路径-66" stroke="#134365" stroke-width="1" fill="#D7DEE3" points="369 241.764253 390.041908 229 412 266.868339 390.98843 280"></polygon>
                <polygon id="路径-67" stroke="#134365" stroke-width="1" fill="#D7DEE3" points="346 254.495365 367.640854 242 390 279.300704 368.267057 292"></polygon>
                <polygon id="路径-68" stroke="#134365" stroke-width="1" fill="#E0572D" points="332 263.353541 354.181638 301 369 292.152897 346.8 255"></polygon>
                <polygon id="路径-69" stroke="#134365" stroke-width="1" fill="#D7DEE3" points="317 271.870053 340.095072 310 355 301.258 332.157126 263"></polygon>
                <polygon id="路径-70" stroke="#134365" stroke-width="1" fill="#D7DEE3" points="302 281.25955 324.653846 319 340 310.103687 317.140039 273"></polygon>
                <polygon id="路径-71" stroke="#134365" stroke-width="1" fill="#D7DEE3" points="282 291.821176 285.213374 297.129412 289.239771 294.795294 309.262062 328 326 318.550588 302.519138 280"></polygon>
                <polygon id="路径-72" stroke="#134365" stroke-width="1" fill="#D7DEE3" points="257.147898 307 259.939584 312.306428 256.22958 314.623318 275 347.321375 259.20493 357 237 318.584454"></polygon>
                <polygon id="路径-73" stroke="#134365" stroke-width="1" fill="#D7DEE3" points="222 327.906051 243.824773 366 258 357.243631 236.302115 319"></polygon>
                <polygon id="路径-74" stroke="#134365" stroke-width="1" fill="#D7DEE3" points="203 338.471396 225.237392 376 244 365.162471 221.68308 328"></polygon>
                <polygon id="路径-75" stroke="#134365" stroke-width="1" fill="#D7DEE3" points="185 349.321196 207.354032 387 225 376.292449 203.164968 339"></polygon>
                <polygon id="路径-76" stroke="#134365" stroke-width="1" fill="#D7DEE3" points="281 372.404105 220.300903 409 208 387.125722 268.369609 350"></polygon>
                <polygon id="路径-77" stroke="#134365" stroke-width="1" fill="#D7DEE3" points="292 391.402848 281.287848 373 221 408.175992 231.492791 427"></polygon>
                <polygon id="路径-78" stroke="#134365" stroke-width="1" fill="#D7DEE3" points="320 362.875365 357.98078 341 386 387.812915 347.384963 410"></polygon>
                <polygon id="路径-79" stroke="#134365" stroke-width="1" fill="#D7DEE3" points="293 378.369202 313.856219 366 342 412.563086 320.565995 425"></polygon>
                <polygon id="路径-80" stroke="#134365" stroke-width="1" fill="#D7DEE3" points="364 336.460269 391.940811 384 414 370.651589 386.4571 323"></polygon>
                <polygon id="路径-81" stroke="#134365" stroke-width="1" fill="#D7DEE3" points="304.303536 434 320 424.949072 297.77112 387 282 396.711671"></polygon>
                <polygon id="路径-82" stroke="#134365" stroke-width="1" fill="#D7DEE3" points="290.22593 444 268 405.938767 282.798765 397 305 435.042174"></polygon>
                <polygon id="路径-83" stroke="#134365" stroke-width="1" fill="#D7DEE3" points="271.316456 454 249 417.786902 267.646474 407 290 443.303196"></polygon>
                <polygon id="路径-84" stroke="#134365" stroke-width="1" fill="#D7DEE3" points="252.50772 464 231 428.242188 249.165304 418 271 453.404427"></polygon>
                <polygon id="路径-85" stroke="#134365" stroke-width="1" fill="#D7DEE3" points="176 238.180435 187.408217 257 231 231.885326 219.774023 213"></polygon>
                <polygon id="路径-86" stroke="#134365" stroke-width="1" fill="#FFB755" points="165 221.394511 210.637348 196 221 212.949383 175.912043 238"></polygon>
                <polygon id="路径-87" stroke="#134365" stroke-width="1" fill="#FFB755" points="158 207.053489 202.502969 181 211 195.806389 166.700664 222"></polygon>
                <polygon id="路径-88" stroke="#134365" stroke-width="1" fill="#D7DEE3" points="148 191.931306 193.143551 166 202 180.944621 157.056172 207"></polygon>
                <polygon id="路径-89" stroke="#134365" stroke-width="1" fill="#FFB755" points="141 177.658759 185.543737 151 194 166.398723 149.697341 193"></polygon>
                <polygon id="路径-90" stroke="#134365" stroke-width="1" fill="#D7DEE3" points="131 161.321824 170.299759 138.650581 168.290893 135.235362 173.552025 132 185 150.749177 140.025812 176"></polygon>
                <polygon id="路径-91" stroke="#134365" stroke-width="1" fill="#D7DEE3" points="111.288805 128 150.264507 104.501623 152.557195 107.559457 158 104.381086 146.44336 85 102 111.575243"></polygon>
                <polygon id="路径-92" stroke="#134365" stroke-width="1" fill="#D7DEE3" points="93 96.2857361 137.474878 70 146 84.8267297 101.913468 111"></polygon>
                <polygon id="路径-93" stroke="#134365" stroke-width="1" fill="#E0572D" points="84 81.5373406 128.54965 56 137 70.571949 92.4874126 96"></polygon>
                <polygon id="路径-94" stroke="#134365" stroke-width="1" fill="#D7DEE3" points="77 67.5670732 121.111111 42 130 56.7195122 85.7037037 82"></polygon>
                <polygon id="路径-95" stroke="#134365" stroke-width="1" fill="#D7DEE3" points="66 50.1098712 110.472071 25 121 41.8901288 76.3218665 67"></polygon>
                <polygon id="路径-96" stroke="#134365" stroke-width="1" fill="#D7DEE3" points="106.136638 17 69.1158741 22.3634312 54 31.5259594 65.5900871 50 110 23.9836343"></polygon>
                <polygon id="路径-97" stroke="#134365" stroke-width="1" fill="#D7DEE3" points="47.5156635 26 52 33.276885 13.3614924 55 0 32.7750309"></polygon>
                <polygon id="路径-98" stroke="#134365" stroke-width="1" fill="#D7DEE3" points="24.5379813 75 67 49.761031 55.1436004 31 13 55.7968545"></polygon>
                <polygon id="路径-99" stroke="#134365" stroke-width="1" fill="#D7DEE3" points="34.7081545 92 77 67.5974142 66.8082976 51 25 74.7993758"></polygon>
                <polygon id="路径-100" stroke="#134365" stroke-width="1" fill="#D7DEE3" points="45.1529454 109 86 85.2817906 76.0280341 68 35 91.6955419"></polygon>
                <polygon id="路径-101" stroke="#134365" stroke-width="1" fill="#D7DEE3" points="115 229.126249 157.300616 204 167 220.689373 124.737052 246"></polygon>
                <polygon id="路径-102" stroke="#134365" stroke-width="1" fill="#D7DEE3" points="133.62131 263 176 238.944717 165.742261 222 124 246.25026"></polygon>
                <polygon id="路径-103" stroke="#134365" stroke-width="1" fill="#D7DEE3" points="145.490434 282 188 257.613931 176.465469 239 134 262.646362"></polygon>
                <polygon id="路径-104" stroke="#134365" stroke-width="1" fill="#D7DEE3" points="184 0 212 1.40544313 210.133333 53 203.160784 52.7041172"></polygon>
                <polygon id="路径-105" stroke="#134365" stroke-width="1" fill="#D7DEE3" points="249.973698 54 271 54.7929002 268.433581 103 248 102.403788"></polygon>
                <polygon id="路径-106" stroke="#134365" stroke-width="1" fill="#D7DEE3" points="210.999122 71.2462687 208 65.4875622 209.007902 53 250 54.4552239 248.156277 103 220.291484 101.91791 221.250219 71.2089552"></polygon>
                <polygon id="路径-107" stroke="#134365" stroke-width="1" fill="#D7DEE3" points="409.859118 61 408 107.930663 427.103824 109 429 61.6848561"></polygon>
                <polygon id="路径-108" stroke="#134365" stroke-width="1" fill="#D7DEE3" points="449 61.7011429 427.662651 61 426 109.046741 446.961274 110"></polygon>
                <polygon id="路径-109" stroke="#134365" stroke-width="1" fill="#D7DEE3" points="470 63.1412472 448.426538 62 447 110.245304 468.351296 111"></polygon>
                <polygon id="路径-110" stroke="#134365" stroke-width="1" fill="#D7DEE3" points="303.712329 5 302 56.0903073 319.465753 57 321.706801 11.9456265 326.63951 12.1546099 327 5.90969267"></polygon>
                <polygon id="路径-111" stroke="#134365" stroke-width="1" fill="#D7DEE3" points="286.511423 4 284 54.3875877 301.282311 55 303 4.6730472"></polygon>
                <polygon id="路径-112" stroke="#134365" stroke-width="1" fill="#D7DEE3" points="269.507016 3 287 3.82598388 284.324602 55 267 54.3527738"></polygon>
                <polygon id="路径-113" stroke="#134365" stroke-width="1" fill="#D7DEE3" points="252.125446 2 269 2.72231186 266.364705 55 250 54.1708936"></polygon>
                <polygon id="路径-114" stroke="#134365" stroke-width="1" fill="#D7DEE3" points="232.411215 2 252 2.62308958 250.205607 55 230 54.1962144"></polygon>
                <polygon id="路径-115" stroke="#134365" stroke-width="1" fill="#D7DEE3" points="212.282906 1 232 2.03702402 229.825232 54 210 53.2362039"></polygon>
                <polygon id="路径-116" stroke="#134365" stroke-width="1" fill="#D7DEE3" points="356.183767 6 380 6.88104483 377.402757 58 359.785605 57.9082245 361.568147 12.3692199 356 11.8858689"></polygon>
                <polygon id="路径-117" stroke="#134365" stroke-width="1" fill="#D7DEE3" points="397 9.36240494 394.711223 59 377 58.4296578 379.673392 9"></polygon>
                <polygon id="路径-118" stroke="#134365" stroke-width="1" fill="#D7DEE3" points="413 9.62301305 411.368473 61 395 60.0007117 397.287685 9"></polygon>
                <polygon id="路径-119" stroke="#134365" stroke-width="1" fill="#E0572D" points="430 9.64242424 427.906158 62 412 60.8663102 413.41349 9"></polygon>
                <polygon id="路径-120" stroke="#134365" stroke-width="1" fill="#D7DEE3" points="450 10.3506033 448.113752 62 428 60.8928318 430.129032 10"></polygon>
                <polygon id="路径-121" stroke="#134365" stroke-width="1" fill="#D7DEE3" points="473 11.941896 471.222896 63 449 61.4220183 451.019712 11"></polygon>
                <path d="M1226.65019,125.9831 L1245.72752,173.348399 L1261.34981,167.0169 L1242.27248,119.651601 L1226.65019,125.9831 Z" id="矩形复制-184" stroke="#134365" stroke-width="1" fill="#EDEFF2"></path>
                <path d="M1295.65648,97.985711 L1315.26517,145.354506 L1331.34352,139.014289 L1311.73483,91.6454939 L1295.65648,97.985711 Z" id="矩形复制-185" stroke="#134365" stroke-width="1" fill="#FFB755"></path>
                <path d="M1328.65019,83.9830999 L1347.72752,131.348399 L1363.34981,125.0169 L1344.27248,77.6516007 L1328.65019,83.9830999 Z" id="矩形复制-186" stroke="#134365" stroke-width="1" fill="#FFB755"></path>
                <path d="M1345.6553,77.2778307 L1365.04408,124.353393 L1389.3447,114.722169 L1369.95592,67.6466067 L1345.6553,77.2778307 Z" id="矩形复制-187" stroke="#134365" stroke-width="1" fill="#FFB755"></path>
                <path d="M1370.65019,67.9830999 L1389.72752,115.348399 L1405.34981,109.0169 L1386.27248,61.6516007 L1370.65019,67.9830999 Z" id="矩形复制-188" stroke="#134365" stroke-width="1" fill="#EDEFF2"></path>
                <path d="M1387.65019,60.9830999 L1406.72752,108.348399 L1422.34981,102.0169 L1403.27248,54.6516007 L1387.65019,60.9830999 Z" id="矩形复制-189" stroke="#134365" stroke-width="1" fill="#E0572D"></path>
                <path d="M1403.65232,53.1059466 L1423.26692,101.350516 L1439.34768,94.8940534 L1419.73308,46.6494845 L1403.65232,53.1059466 Z" id="矩形复制-190" stroke="#134365" stroke-width="1" fill="#EDEFF2"></path>
                <path d="M1348.64724,132.113214 L1366.62617,177.345371 L1382.35276,170.886786 L1364.37383,125.654629 L1348.64724,132.113214 Z" id="矩形复制-191" stroke="#134365" stroke-width="1" fill="#EDEFF2"></path>
                <path d="M1364.66188,126.280447 L1383.32902,170.359413 L1408.33812,160.719553 L1389.67098,116.640587 L1364.66188,126.280447 Z" id="矩形复制-192" stroke="#134365" stroke-width="1" fill="#FFB755"></path>
                <path d="M1390.65151,115.986021 L1408.62435,160.349718 L1424.34849,154.013979 L1406.37565,109.650282 L1390.65151,115.986021 Z" id="矩形复制-193" stroke="#134365" stroke-width="1" fill="#EDEFF2"></path>
                <path d="M1406.64724,109.113214 L1424.62617,154.345371 L1440.35276,147.886786 L1422.37383,102.654629 L1406.64724,109.113214 Z" id="矩形复制-194" stroke="#134365" stroke-width="1" fill="#EDEFF2"></path>
                <path d="M1423.64724,102.113214 L1441.62617,147.345371 L1457.35276,140.886786 L1439.37383,95.6546285 L1423.64724,102.113214 Z" id="矩形复制-195" stroke="#134365" stroke-width="1" fill="#EDEFF2"></path>
                <path d="M1209.64619,132.103305 L1228.72923,180.344259 L1244.35381,173.896695 L1225.27077,125.655741 L1209.64619,132.103305 Z" id="矩形复制-196" stroke="#134365" stroke-width="1" fill="#EDEFF2"></path>
                <path d="M1279.64397,103.980366 L1298.18989,151.341881 L1313.35603,145.019634 L1294.81011,97.6581189 L1279.64397,103.980366 Z" id="矩形复制-197" stroke="#134365" stroke-width="1" fill="#EDEFF2"></path>
                <path d="M1311.65648,90.985711 L1331.26517,138.354506 L1347.34352,132.014289 L1327.73483,84.6454939 L1311.65648,90.985711 Z" id="矩形复制-198" stroke="#134365" stroke-width="1" fill="#FFB755"></path>
                <path d="M1332.64096,139.110377 L1350.10465,184.33854 L1365.35904,177.889623 L1347.89535,132.66146 L1332.64096,139.110377 Z" id="矩形复制-199" stroke="#134365" stroke-width="1" fill="#EDEFF2"></path>
                <path d="M1193.65373,138.715406 L1213.14113,186.351895 L1228.34627,180.284594 L1208.85887,132.648105 L1193.65373,138.715406 Z" id="矩形复制-200" stroke="#134365" stroke-width="1" fill="#EDEFF2"></path>
                <rect id="矩形复制-201" stroke="#134365" stroke-width="1" fill="#EDEFF2" transform="translate(1192.000000, 524.500000) rotate(-90.000000) translate(-1192.000000, -524.500000) " x="1184" y="498" width="16" height="53"></rect>
                <rect id="矩形复制-202" stroke="#134365" stroke-width="1" fill="#EDEFF2" transform="translate(1192.000000, 414.500000) rotate(-90.000000) translate(-1192.000000, -414.500000) " x="1184" y="388" width="16" height="53"></rect>
                <rect id="矩形复制-203" stroke="#134365" stroke-width="1" fill="#FFB755" transform="translate(1192.000000, 379.500000) rotate(-90.000000) translate(-1192.000000, -379.500000) " x="1184" y="353" width="16" height="53"></rect>
                <rect id="矩形复制-204" stroke="#134365" stroke-width="1" fill="#FFB755" transform="translate(1243.500000, 379.500000) rotate(-90.000000) translate(-1243.500000, -379.500000) " x="1235.5" y="355.5" width="16" height="48"></rect>
                <path d="M1461.13656,409.649076 L1409.65273,430.282242 L1419.86344,455.350924 L1471.34727,434.717758 L1461.13656,409.649076 Z" id="矩形复制-205" stroke="#134365" stroke-width="1" fill="#EDEFF2"></path>
                <path d="M1470.96799,435.650266 L1418.65153,456.728653 L1429.03201,482.349734 L1481.34847,461.271347 L1470.96799,435.650266 Z" id="矩形复制-206" stroke="#134365" stroke-width="1" fill="#EDEFF2"></path>
                <path d="M1407.43566,430.655256 L1362.64665,449.099053 L1382.56434,499.344744 L1427.35335,480.900947 L1407.43566,430.655256 Z" id="矩形复制-207" stroke="#134365" stroke-width="1" fill="#EDEFF2"></path>
                <path d="M1181.55034,669.089883 L1206.32254,901.451282 L1269.44966,894.910117 L1244.67746,662.548718 L1181.55034,669.089883 Z" id="矩形复制-208" stroke="#134365" stroke-width="1" fill="#EDEFF2"></path>
                <path d="M1482.5146,462.650277 L1429.65152,483.949877 L1435.4854,498.349723 L1488.34848,477.050123 L1482.5146,462.650277 Z" id="矩形复制-209" stroke="#134365" stroke-width="1" fill="#EDEFF2"></path>
                <path d="M1517.07258,549.659333 L1465.64286,571.208937 L1471.92742,587.340667 L1523.35714,565.791063 L1517.07258,549.659333 Z" id="矩形复制-210" stroke="#134365" stroke-width="1" fill="#EDEFF2"></path>
                <path d="M1524.69319,567.644975 L1471.65703,588.509271 L1480.30681,609.355025 L1533.34297,588.490729 L1524.69319,567.644975 Z" id="矩形复制-211" stroke="#134365" stroke-width="1" fill="#EDEFF2"></path>
                <path d="M1488.15753,477.651399 L1436.65039,498.507953 L1443.84247,516.348601 L1495.34961,495.492047 L1488.15753,477.651399 Z" id="矩形复制-212" stroke="#134365" stroke-width="1" fill="#EDEFF2"></path>
                <path d="M1510.03302,531.647692 L1457.65416,552.509533 L1464.96698,570.352308 L1517.34584,549.490467 L1510.03302,531.647692 Z" id="矩形复制-213" stroke="#134365" stroke-width="1" fill="#EDEFF2"></path>
                <rect id="矩形复制-214" stroke="#134365" stroke-width="1" fill="#EDEFF2" transform="translate(1242.500000, 357.000000) rotate(-90.000000) translate(-1242.500000, -357.000000) " x="1229" y="332" width="27" height="50"></rect>
                <rect id="矩形复制-215" stroke="#134365" stroke-width="1" fill="#FFB755" transform="translate(1242.500000, 334.500000) rotate(-90.000000) translate(-1242.500000, -334.500000) " x="1234.5" y="309.5" width="16" height="50"></rect>
                <rect id="矩形复制-216" stroke="#134365" stroke-width="1" fill="#EDEFF2" transform="translate(1242.500000, 317.000000) rotate(-90.000000) translate(-1242.500000, -317.000000) " x="1234" y="292" width="17" height="50"></rect>
                <rect id="矩形复制-217" stroke="#134365" stroke-width="1" fill="#EDEFF2" transform="translate(1243.500000, 524.500000) rotate(-90.000000) translate(-1243.500000, -524.500000) " x="1235.5" y="500.5" width="16" height="48"></rect>
                <rect id="矩形复制-218" stroke="#134365" stroke-width="1" fill="#E0572D" transform="translate(1192.000000, 489.000000) rotate(-90.000000) translate(-1192.000000, -489.000000) " x="1183.5" y="462.5" width="17" height="53"></rect>
                <path d="M1177.64964,144.830734 L1197.14286,193.34784 L1212.35036,187.169266 L1192.85714,138.65216 L1177.64964,144.830734 Z" id="矩形复制-219" stroke="#134365" stroke-width="1" fill="#EDEFF2"></path>
                <rect id="矩形复制-220" stroke="#134365" stroke-width="1" fill="#EDEFF2" transform="translate(1192.000000, 542.500000) rotate(-90.000000) translate(-1192.000000, -542.500000) " x="1183" y="516" width="18" height="53"></rect>
                <rect id="矩形复制-221" stroke="#134365" stroke-width="1" fill="#EDEFF2" transform="translate(1192.000000, 432.500000) rotate(-90.000000) translate(-1192.000000, -432.500000) " x="1183" y="406" width="18" height="53"></rect>
                <rect id="矩形复制-222" stroke="#134365" stroke-width="1" fill="#EDEFF2" transform="translate(1192.000000, 397.000000) rotate(-90.000000) translate(-1192.000000, -397.000000) " x="1183.5" y="370.5" width="17" height="53"></rect>
                <rect id="矩形复制-223" stroke="#134365" stroke-width="1" fill="#FFB755" transform="translate(1243.500000, 397.000000) rotate(-90.000000) translate(-1243.500000, -397.000000) " x="1235" y="373" width="17" height="48"></rect>
                <rect id="矩形复制-224" stroke="#134365" stroke-width="1" fill="#EDEFF2" transform="translate(1243.500000, 542.500000) rotate(-90.000000) translate(-1243.500000, -542.500000) " x="1234.5" y="518.5" width="18" height="48"></rect>
                <rect id="矩形复制-225" stroke="#134365" stroke-width="1" fill="#EDEFF2" transform="translate(1243.500000, 567.000000) rotate(-90.000000) translate(-1243.500000, -567.000000) " x="1229" y="543" width="29" height="48"></rect>
                <rect id="矩形复制-226" stroke="#134365" stroke-width="1" fill="#EDEFF2" transform="translate(1192.000000, 567.000000) rotate(-90.000000) translate(-1192.000000, -567.000000) " x="1177.5" y="540.5" width="29" height="53"></rect>
                <rect id="矩形复制-227" stroke="#134365" stroke-width="1" fill="#E0572D" transform="translate(1192.000000, 507.000000) rotate(-90.000000) translate(-1192.000000, -507.000000) " x="1183.5" y="480.5" width="17" height="53"></rect>
                <path d="M1164.50203,150.788361 L1164.83936,206.250213 L1195.35719,193.459816 L1176.73973,145.659391 L1164.50203,150.788361 Z" id="矩形复制-228" stroke="#134365" stroke-width="1" fill="#FFB755"></path>
                <path d="M1173.64869,204.025753 L1191.38032,248.346866 L1214.35131,238.974247 L1196.61968,194.653134 L1173.64869,204.025753 Z" id="矩形复制-229" stroke="#134365" stroke-width="1" fill="#EDEFF2"></path>
                <path d="M1196.65518,193.720352 L1215.02836,238.353279 L1230.34482,232.279648 L1211.97164,187.646721 L1196.65518,193.720352 Z" id="矩形复制-230" stroke="#134365" stroke-width="1" fill="#FFB755"></path>
                <path d="M1213.65297,187.595552 L1231.49347,231.351155 L1246.34703,225.404448 L1228.50653,181.648845 L1213.65297,187.595552 Z" id="矩形复制-231" stroke="#134365" stroke-width="1" fill="#FFB755"></path>
                <path d="M1164.94633,206.773884 L1164.5063,259.250912 L1190.35325,248.612367 L1172.52348,203.655146 L1164.94633,206.773884 Z" id="矩形复制-232" stroke="#134365" stroke-width="1" fill="#EDEFF2"></path>
                <path d="M1206.5,316.5 L1175.75576,316.5 L1191.23389,352.921966 L1191.27371,353.117523 L1191.27371,367.5 L1206.5,367.5 L1206.5,316.5 Z" id="路径-122复制-3" stroke="#134365" stroke-width="1" fill="#FFB755" transform="translate(1191.000000, 342.000000) rotate(-90.000000) translate(-1191.000000, -342.000000) "></path>
                <path d="M1188.58321,281 L1172,281 L1172,332 L1209.75111,332 L1188.58321,281 Z" id="路径-123复制-3" stroke="#134365" stroke-width="1" fill="#EDEFF2" transform="translate(1191.000000, 306.500000) rotate(-90.000000) translate(-1191.000000, -306.500000) "></path>
                <path d="M1177.5,331.5 L1177.5,382.5 L1204.5,382.5 L1204.5,368.137003 L1188.63893,331.5 L1177.5,331.5 Z" id="路径-124复制-3" stroke="#134365" stroke-width="1" fill="#EDEFF2" transform="translate(1191.000000, 357.000000) rotate(-90.000000) translate(-1191.000000, -357.000000) "></path>
                <path d="M1263.26665,311.5 L1244.03643,262.5 L1222.5,262.5 L1222.5,311.5 L1263.26665,311.5 Z" id="路径-125复制-3" stroke="#134365" stroke-width="1" fill="#EDEFF2" transform="translate(1243.000000, 287.000000) rotate(-90.000000) translate(-1243.000000, -287.000000) "></path>
                <path d="M1426.64593,607.153552 L1441.00279,643.489141 L1476.32509,642.372982 L1490.35407,636.577123 L1471.41955,588.656012 L1426.64593,607.153552 Z" id="路径-126复制-3" stroke="#134365" stroke-width="1" fill="#EDEFF2"></path>
                <path d="M1555.25444,641.49364 L1533.77359,588.649524 L1481.73642,609.546234 L1492.36621,635.696138 L1479.53323,640.849514 L1555.25444,641.49364 Z" id="路径-127复制-3" stroke="#134365" stroke-width="1" fill="#EDEFF2"></path>
                <path d="M1241.4214,623.907678 L1270.06538,896.952902 L1206.54942,903.641332 L1214.56134,980.013967 L1246.31932,976.669751 L1250.28272,1014.45037 L1519.87081,986.061894 L1527.91136,1010.54968 L1665.36232,965.926049 L1555.04527,643.878591 L1408.4975,643.878591 L1428.12036,721.323859 L1285.45846,736.346605 L1273.31071,620.549633 L1241.4214,623.907678 Z" id="路径-128复制-3" stroke="#134365" stroke-width="1" fill="#EDEFF2"></path>
                <path d="M1684.34105,1026.24741 L1665.75108,966.631401 L1527.65818,1011.3478 L1539.38165,1041.46288 L1684.34105,1026.24741 Z" id="路径-129复制-3" stroke="#134365" stroke-width="1" fill="#EDEFF2"></path>
                <rect id="矩形复制-233" stroke="#134365" stroke-width="1" fill="#EDEFF2" transform="translate(1593.000000, 293.000000) rotate(-270.000000) translate(-1593.000000, -293.000000) " x="1583.5" y="264.5" width="19" height="57"></rect>
                <rect id="矩形复制-234" stroke="#134365" stroke-width="1" fill="#EDEFF2" transform="translate(1593.000000, 234.000000) rotate(-270.000000) translate(-1593.000000, -234.000000) " x="1583.5" y="205.5" width="19" height="57"></rect>
                <rect id="矩形复制-235" stroke="#134365" stroke-width="1" fill="#EDEFF2" transform="translate(1593.000000, 214.500000) rotate(-270.000000) translate(-1593.000000, -214.500000) " x="1584" y="186" width="18" height="57"></rect>
                <rect id="矩形复制-236" stroke="#134365" stroke-width="1" fill="#EDEFF2" transform="translate(1538.000000, 196.000000) rotate(-270.000000) translate(-1538.000000, -196.000000) " x="1529.5" y="170.5" width="17" height="51"></rect>
                <rect id="矩形复制-237" stroke="#134365" stroke-width="1" fill="#EDEFF2" transform="translate(1538.000000, 331.000000) rotate(-270.000000) translate(-1538.000000, -331.000000) " x="1529.5" y="305.5" width="17" height="51"></rect>
                <rect id="矩形复制-238" stroke="#134365" stroke-width="1" fill="#EDEFF2" transform="translate(1538.000000, 348.500000) rotate(-270.000000) translate(-1538.000000, -348.500000) " x="1530" y="323" width="16" height="51"></rect>
                <rect id="矩形复制-239" stroke="#134365" stroke-width="1" fill="#EDEFF2" transform="translate(1538.000000, 368.000000) rotate(-270.000000) translate(-1538.000000, -368.000000) " x="1527.5" y="342.5" width="21" height="51"></rect>
                <rect id="矩形复制-240" stroke="#134365" stroke-width="1" fill="#EDEFF2" transform="translate(1593.000000, 312.500000) rotate(-270.000000) translate(-1593.000000, -312.500000) " x="1584" y="284" width="18" height="57"></rect>
                <rect id="矩形复制-241" stroke="#134365" stroke-width="1" fill="#EDEFF2" transform="translate(1593.000000, 335.000000) rotate(-270.000000) translate(-1593.000000, -335.000000) " x="1580.5" y="306.5" width="25" height="57"></rect>
                <rect id="矩形复制-242" stroke="#134365" stroke-width="1" fill="#EDEFF2" transform="translate(1593.000000, 363.500000) rotate(-270.000000) translate(-1593.000000, -363.500000) " x="1578" y="335" width="30" height="57"></rect>
                <path d="M1568.1327,122.5 L1568.1327,180.068412 L1539.5,180.068412 L1539.5,194.365896 L1555.20669,231.5 L1576.22876,231.5 L1576.22876,179.068412 L1594.5,179.068412 L1594.5,122.5 L1568.1327,122.5 Z" id="路径-130复制-3" stroke="#134365" stroke-width="1" fill="#EDEFF2" transform="translate(1567.000000, 177.000000) rotate(-270.000000) translate(-1567.000000, -177.000000) "></path>
                <path d="M1558.24351,113 L1586.32354,181.946722 L1586.32354,169.197194 L1614,169.197194 L1614,113 L1558.24351,113 Z" id="路径-131复制-3" stroke="#134365" stroke-width="1" fill="#EDEFF2" transform="translate(1586.000000, 148.500000) rotate(-270.000000) translate(-1586.000000, -148.500000) "></path>
                <polygon id="路径-62" stroke="#134365" stroke-width="1" fill="#D7DEE3" points="293 543.333333 453.363636 448 518 553.250035 339.702057 624"></polygon>
            </g>
        </g>
    </g>
</svg>