<?xml version="1.0" standalone="no"?><!DOCTYPE svg PUBLIC "-//W3C//DTD SVG 1.1//EN" "http://www.w3.org/Graphics/SVG/1.1/DTD/svg11.dtd"><svg t="1585792455869" class="icon" viewBox="0 0 1024 1024" version="1.1" xmlns="http://www.w3.org/2000/svg" p-id="2257" xmlns:xlink="http://www.w3.org/1999/xlink" width="200" height="200"><defs><style type="text/css"></style></defs><path d="M64.081992 831.5335l191.719486 0 0-511.25401L64.081992 320.279491 64.081992 831.5335zM127.988488 384.185986l63.906495 0 0 383.441019L127.988488 767.627005 127.988488 384.185986zM511.4336 703.720509 511.4336 64.650439 319.707974 64.650439 319.707974 831.5335 383.614469 831.5335 383.614469 128.556934 447.520965 128.556934 447.520965 703.720509ZM639.246591 256.369925 703.153086 256.369925 703.153086 511.998977 767.059582 511.998977 767.059582 192.46343 575.340095 192.46343 575.340095 575.906495 639.246591 575.906495ZM939.432441 582.584592l-46.057989-52.422953c-12.231579-12.232602-28.395724-18.286482-44.559868-18.162662-16.163121 0.125867-33.013905 6.365988-45.370327 18.723434L447.520965 821.485657l0 137.861858 137.431046 0L938.996512 672.079882C963.71038 647.302569 963.835224 606.986351 939.432441 582.584592zM562.234613 895.439996l-50.801013 0L511.4336 844.138586l336.25944-268.544199c0 0 0.312108 0.312108 0.436952 0.312108l0.188288 0 45.620014 52.54882L562.234613 895.439996z" p-id="2258"></path></svg>