<?xml version="1.0" standalone="no"?><!DOCTYPE svg PUBLIC "-//W3C//DTD SVG 1.1//EN" "http://www.w3.org/Graphics/SVG/1.1/DTD/svg11.dtd"><svg t="1592446202517" class="icon" viewBox="0 0 1024 1024" version="1.1" xmlns="http://www.w3.org/2000/svg" p-id="1189" xmlns:xlink="http://www.w3.org/1999/xlink" width="200" height="200"><defs><style type="text/css"></style></defs><path d="M848 345.6c-9.6-16-25.6-25.6-41.6-25.6H640V188.8c0-32-25.6-60.8-57.6-60.8H89.6C57.6 128 32 153.6 32 188.8v521.6c0 32 25.6 60.8 57.6 60.8H96c6.4-80 67.2-140.8 144-140.8s134.4 60.8 144 140.8h224c3.2-28.8 12.8-54.4 32-73.6 25.6-32 67.2-54.4 112-54.4 73.6 0 134.4 57.6 144 128h44.8c28.8 0 51.2-25.6 51.2-60.8V544l-144-198.4z m60.8 198.4h-214.4c-3.2 0-9.6-3.2-9.6-9.6V393.6c0-6.4 3.2-9.6 9.6-9.6h121.6c3.2 0 6.4 0 6.4 3.2l92.8 140.8c3.2 6.4 0 16-6.4 16z" p-id="1190"></path><path d="M240 784m-112 0a112 112 0 1 0 224 0 112 112 0 1 0-224 0Z" p-id="1191"></path><path d="M752 784m-112 0a112 112 0 1 0 224 0 112 112 0 1 0-224 0Z" p-id="1192"></path></svg>