<?xml version="1.0" encoding="UTF-8"?>
<svg width="16px" height="16px" viewBox="0 0 16 16" version="1.1" xmlns="http://www.w3.org/2000/svg" xmlns:xlink="http://www.w3.org/1999/xlink">
    <!-- Generator: Sketch 55 (78076) - https://sketchapp.com -->
    <title>企业信息</title>
    <desc>Created with Sketch.</desc>
    <g id="页面1" stroke="none" stroke-width="1" fill="none" fill-rule="evenodd">
        <g id="申请" transform="translate(-15.000000, -217.000000)" fill="#888888">
            <g id="编组" transform="translate(0.000000, 214.000000)">
                <g id="企业信息" transform="translate(15.000000, 3.000000)">
                    <path d="M1.41002892,4.81927711e-06 L1.41002892,15.039812 L11.2798361,15.039812 L11.2798361,4.04198072 L11.2798361,4.81927711e-06 L1.41002892,4.81927711e-06 Z M7.04988434,5.16986024 L9.39983614,5.16986024 L9.39983614,2.81993253 L7.04988434,2.81993253 L7.04988434,5.16986024 Z M3.29000482,5.16986024 L5.63998072,5.16986024 L5.63998072,2.81993253 L3.29000482,2.81993253 L3.29000482,5.16986024 Z M7.04988434,9.39981205 L9.39983614,9.39981205 L9.39983614,7.04986024 L7.04988434,7.04986024 L7.04988434,9.39981205 Z M3.29000482,9.39981205 L5.63998072,9.39981205 L5.63998072,7.04986024 L3.29000482,7.04986024 L3.29000482,9.39981205 Z M11.749812,15.039812 L14.5698361,15.039812 L14.5698361,6.57990843 L11.749812,6.57990843 L11.749812,15.039812 Z" id="Fill-1"></path>
                    <polygon id="Fill-2" points="0 15.0398072 15.979759 15.0398072 15.979759 13.6297831 0 13.6297831"></polygon>
                </g>
            </g>
        </g>
    </g>
</svg>