<?xml version="1.0" encoding="UTF-8"?>
<svg width="1689px" height="1190px" viewBox="0 0 1689 1190" version="1.1" xmlns="http://www.w3.org/2000/svg" xmlns:xlink="http://www.w3.org/1999/xlink">
    <!-- Generator: Sketch 54.1 (76490) - https://sketchapp.com -->
    <title>dt</title>
    <desc>Created with Sketch.</desc>
    <g id="Page-1" stroke="none" stroke-width="1" fill="none" fill-rule="evenodd">
        <g id="资产地图-未选择复制-3" transform="translate(-59.000000, -221.000000)" fill="#EDEFF2">
            <g id="dt" transform="translate(60.000000, 222.000000)">
                <polygon id="路径-2" stroke="#134365" points="743 837.375731 846.086275 777 843.998955 845.296889 850 855.386203 778.509289 897"></polygon>
                <polygon id="路径-3" stroke="#134365" points="963 1046.61998 876.869189 1063 779 897.471111 850.109143 856"></polygon>
                <polygon id="路径-4" stroke="#134365" points="537 943.984995 583.861269 916 609 958.746517 561.915936 986"></polygon>
                <polygon id="路径-5" stroke="#134365" points="579 1014.05829 624.40028 986 649 1028.69492 602.235448 1057"></polygon>
                <polygon id="路径-6" stroke="#134365" points="618 1081.95495 661.97561 1056 679.134146 1085.0651 701.597561 1071.10645 732 1124.68251 681.896341 1176 654.146341 1127.2743 646.792683 1132.12465"></polygon>
                <polygon id="路径-7" stroke="#134365" points="458 809.701157 475.35603 839 525 810.530599 507.382038 781"></polygon>
                <polygon id="路径-8" stroke="#134365" points="542 840.908004 524.154746 811 475 840.257738 492.39531 870"></polygon>
                <polygon id="路径-9" stroke="#134365" points="424 752.714694 473.44794 724 491 754.095208 441.663976 782"></polygon>
                <polygon id="路径-10" stroke="#134365" points="477 665.80017 555.000964 620 580 662.659376 501.763196 707"></polygon>
                <polygon id="路径-11" stroke="#134365" points="518 734.957382 602.332353 685 638 746.597039 552.794987 795"></polygon>
                <polygon id="路径-12" stroke="#134365" points="570 822.873118 653.092915 773 689 833.368804 604.575823 883"></polygon>
                <polygon id="路径-13" stroke="#134365" points="621 910.776668 705.741023 860 723 891.510213 639.091404 941"></polygon>
                <polygon id="路径-14" stroke="#134365" points="656 968.940034 738.856094 919 781 992.244149 698.107195 1040"></polygon>
                <polygon id="路径-15" stroke="#134365" points="821.031814 1100 947 1119.61269 933.615649 1173.60267 840.572227 1188 775 1177.23873"></polygon>
                <polygon id="路径-16" stroke="#ED7070" points="400 710.118662 448.765132 681 473 722.91576 424.339487 751"></polygon>
                <path d="M601,593.365817 L716.388333,526 C738.211537,544.794019 764.00597,553.104384 793.771632,550.931094 C800.986753,567.270451 822.729543,614.31724 859,692.071463 L858.6103,712.890594 L718.856434,794 L601,593.365817 Z" id="路径-17" stroke="#134365"></path>
                <path d="" id="路径-18" stroke="#134365"></path>
                <path d="M853,525.927249 C874.070693,505.835011 884.197501,478.905489 883.380423,445.138681 C904.603513,436.811654 930.143371,427.09876 960,416 L957.065949,530 L853,525.927249 Z" id="路径-19" stroke="#134365"></path>
                <polygon id="路径-20" stroke="#134365" points="953 596.941629 956.561732 530 1020.3458 532.752534 1021 600"></polygon>
                <polygon id="路径-21" stroke="#134365" points="949 675.912886 952.505909 598 1021.08222 601.136116 1022 679"></polygon>
                <path d="M903.892264,646.750177 L838,539.155139 C842.385426,536.145615 847.448377,532.093902 853.188851,527 C863.323284,527.786979 897.593667,529.261443 956,531.423392 L949.668233,648 L903.892264,646.750177 Z" id="路径-22" stroke="#134365"></path>
                <polygon id="路径-23" stroke="#134365" points="1019.67841 465.008908 957.898625 463 956 531.00524 1021 534"></polygon>
                <polygon id="路径-24" stroke="#134365" points="910.010801 720 925 720.610086 923.620162 751 904 750.389914"></polygon>
                <polygon id="路径-25" stroke="#134365" points="983.37351 724 1021.4053 725.304211 1037 806 981 803.869176"></polygon>
                <polygon id="路径-26" stroke="#134365" points="903.820425 757 971.605235 759.775738 971.550526 767.727853 982 768.177973 980.996996 804 897 800.886672"></polygon>
                <path d="M1003,897 C986.749799,885.319739 979.000461,868.985096 979.751986,847.996071 C980.503512,827.007046 981.107196,812.304281 981.56304,803.887775 L896.794646,801 L896,805.146548 L948.040069,894.426919 L1003,897 Z" id="路径-27" stroke="#134365"></path>
                <polygon id="路径-28" stroke="#134365" points="954 902 992 903.849952 991.09785 930.372217 983.057748 930.000968 982.856593 941 974.26179 940.546951"></polygon>
                <polygon id="路径-29" stroke="#134365" points="980 948.509056 1006.33621 949.478284 1007.9569 907 1044.56975 908.640232 1062.26842 942.004044 1074 1003.99736 1017.97571 1013"></polygon>
                <path d="M1049,871.054945 L1045.98934,876 L1028.9534,874.901099 C1016.05406,871.040954 1009.73901,863.373067 1010.00826,851.897436 C1010.2775,840.421805 1010.92002,825.12266 1011.93582,806 L1036.77378,806.842491 L1049,871.054945 Z" id="路径-30" stroke="#134365"></path>
                <polygon id="路径-31" stroke="#134365" points="921.264831 269.574939 960.510064 271.159705 962.011653 236 1021 238.874693 1017.2553 330.791155 916 371"></polygon>
                <polygon id="路径-32" stroke="#134365" points="1023.27031 198 962.700148 194.628773 964.210672 159.109827 958.858567 158.700064 959.436669 143.31535 926 141.154785 928.237814 82 1027 86.0976236"></polygon>
                <path d="M890.700018,139 L827.176481,253.633367 L823,368.192682 C840.041536,376.832148 851.620085,385.434587 857.735647,394 C866.589533,391.020541 885.889186,383.133943 915.634607,370.340206 L924,192.021635 L912.533321,192.021635 L914.975817,139.703499 L890.700018,139 Z" id="路径-33" stroke="#134365"></path>
                <polygon id="路径-34" stroke="#134365" points="1019.31297 393 1020 465 958 462.861751 959.336927 416.815668"></polygon>
                <path d="M667.447537,427 L692,428.093575 C689.026568,438.325419 687.748116,446.960894 688.164644,454 C681.0057,453.716982 673.617486,453.383882 666,453.000698 L667.447537,427 Z" id="路径-35" stroke="#134365"></path>
                <polygon id="路径-36" stroke="#134365" points="665.770925 462 665 487 690 476.739229 688.127753 462.680272"></polygon>
                <polygon id="路径-37" stroke="#134365" points="625.363057 486 646 486.991363 645.713376 494.201277 625 502"></polygon>
                <polygon id="路径-38" stroke="#134365" points="521 455 536.537736 482.716599 547.41779 483 548 456.095816"></polygon>
                <polygon id="路径-39" stroke="#134365" points="542 490.510638 550.603625 504.572698 615.011575 507 625.981655 502.022796 626 485.647416 599.785543 484.583587 600.84953 458.044833 572.745578 457 571.314698 491.384498"></polygon>
                <polygon id="路径-40" stroke="#134365" points="514.928939 378 584 380.206479 581.3862 449 516.263646 446.606531 512 439.874901"></polygon>
                <polygon id="路径-41" stroke="#134365" points="517.770652 310 587 312.371625 583.675218 380 515 377.961885"></polygon>
                <polygon id="路径-42" stroke="#134365" points="523.526494 171 592 173.779184 589.418182 236 521 233.056259"></polygon>
                <polygon id="路径-43" stroke="#134365" points="623.418108 237 626 174.111754 592.636826 173 590 235.943833"></polygon>
                <polygon id="路径-43复制" stroke="#134365" points="657.418108 239 660 176.111754 626.636826 175 624 237.943833"></polygon>
                <path d="M649.795821,415.107103 L696.806845,417.190007 C715.167057,381.160729 742.85544,362.117036 779.871995,360.058929 C780.082655,346.067809 780.0333,321.64948 779.723929,286.803944 L723.273682,285 L722.459318,316.503921 L587.182318,311.928972 L582,448.173202 L647.685877,451 L649.795821,415.107103 Z" id="路径-44" stroke="#134365"></path>
                <polygon id="路径-45" stroke="#134365" points="777.676471 179.629598 779 220.957228 725.948529 218.473054 725.286765 241 659 238.384089 661.181373 175"></polygon>
                <polygon id="路径-46" stroke="#134365" points="742.478607 252 778.742289 252.8762 779 278 742 276.819585"></polygon>
                <polygon id="路径-47" stroke="#134365" points="519.221785 278.043557 588.456269 280.524274 590.122339 236 725 240.869555 722.371311 317 518 310.476633"></polygon>
                <polygon id="路径-48" stroke="#134365" points="820 25.2053884 797.774353 77 790 75.9986004 792.225647 24"></polygon>
                <polygon id="路径-49" stroke="#134365" points="757.33254 24 792 25.1121702 790.308751 76 755 74.5130768"></polygon>
                <polygon id="路径-50" stroke="#134365" points="759.314189 122.44086 775.473395 123 791.600929 88.8986175 792 76.3271889 756.67272 75 756.159628 82.59447 747.570101 82.1889401 747 91.7004608 760.454392 91.9953917"></polygon>
                <polygon id="路径-51" stroke="#134365" points="700.903052 20 719 20.9992883 716.630162 72 699 71.2967972"></polygon>
                <polygon id="路径-52" stroke="#134365" points="680.469409 70.5083313 698.344146 71 700 20.4309688 677.327532 20 677 25.6025946 682.052479 25.8757439"></polygon>
                <polygon id="路径-53" stroke="#134365" points="648 18.0228289 647.831589 24.01012 642.162629 24.01012 640.117054 70 622 69.214168 623.752459 17"></polygon>
                <polygon id="路径-54" stroke="#134365" points="607.890756 17 624 17.4613201 622.167421 69 606 68.3356991"></polygon>
                <polygon id="路径-55" stroke="#134365" points="590.103226 16 588 67.4113208 605.741935 68 608 16.8400943"></polygon>
                <polygon id="路径-56" stroke="#134365" points="573.123529 16 571 67.5943262 587.895098 68 590 16.6453901"></polygon>
                <polygon id="路径-57" stroke="#134365" points="554.139219 15 552 67.2111977 570.896435 68 573 15.7136782"></polygon>
                <polygon id="路径-58" stroke="#134365" points="530.692308 14 528 66.1771341 551.730769 67 554 15.1407477"></polygon>
                <polygon id="路径-59" stroke="#134365" points="569 116.084343 570.911385 68 590 68.6496212 588.284169 117"></polygon>
                <polygon id="路径-60" stroke="#134365" points="550 114.925113 569.180961 116 571 68.0007564 551.843053 67"></polygon>
                <polygon id="路径-61" stroke="#134365" points="527 114.374521 528.795546 66 552 66.4503447 549.972973 115"></polygon>
                <polygon id="路径-62" stroke="#134365" points="299 546.333333 459.363636 451 524 556.250035 345.702057 627"></polygon>
                <polygon id="路径-63" stroke="#134365" points="420.486855 263 369 292.817592 386.593963 323 426 300.095663"></polygon>
                <polygon id="路径-64" stroke="#134365" points="414.115532 371 435 359.088635 425.910482 301 387 324.091707"></polygon>
                <polygon id="路径-65" stroke="#134365" points="414.567961 215 421 262.376667 412.699029 267 391 229.47603"></polygon>
                <polygon id="路径-66" stroke="#134365" points="369 242.513973 390.041908 230 412 267.125823 390.98843 280"></polygon>
                <polygon id="路径-67" stroke="#134365" points="347 254.495365 368.640854 242 391 279.300704 369.267057 292"></polygon>
                <polygon id="路径-68" stroke="#134365" points="332 263.535139 354.781141 302 370 292.960569 347.2 255"></polygon>
                <polygon id="路径-69" stroke="#134365" points="317 272.681328 340.095072 310 355 301.444 332.157126 264"></polygon>
                <polygon id="路径-70" stroke="#134365" points="303 280.439106 325.653846 319 341 309.910289 318.140039 272"></polygon>
                <polygon id="路径-71" stroke="#134365" points="283 292.821176 286.140343 298.129412 290.075231 295.795294 309.64247 329 326 319.550588 303.052794 281"></polygon>
                <polygon id="路径-72" stroke="#134365" points="257.147898 308 259.939584 313.306428 256.22958 315.623318 275 348.321375 259.20493 358 237 319.584454"></polygon>
                <polygon id="路径-73" stroke="#134365" points="223 328.095541 245.431017 367 260 358.057325 237.699396 319"></polygon>
                <polygon id="路径-74" stroke="#134365" points="203 339.253242 225.237392 376 244 365.388253 221.68308 329"></polygon>
                <polygon id="路径-75" stroke="#134365" points="186 350.321196 208.354032 388 226 377.292449 204.164968 340"></polygon>
                <polygon id="路径-76" stroke="#134365" points="282 373.404105 220.469408 410 208 388.125722 269.19659 351"></polygon>
                <polygon id="路径-77" stroke="#134365" points="293 391.743642 282.136972 373 221 408.827399 231.640577 428"></polygon>
                <polygon id="路径-78" stroke="#134365" points="320 362.875365 357.98078 341 386 387.812915 347.384963 410"></polygon>
                <polygon id="路径-79" stroke="#134365" points="293 379.369202 313.856219 367 342 413.563086 320.565995 426"></polygon>
                <polygon id="路径-80" stroke="#134365" points="365 336.460269 392.381995 384 414 370.651589 387.007958 323"></polygon>
                <polygon id="路径-81" stroke="#134365" points="304.716601 435 320 425.949072 298.35609 388 283 397.711671"></polygon>
                <polygon id="路径-82" stroke="#134365" points="290.22593 443 268 406.558394 282.798765 398 305 434.423358"></polygon>
                <polygon id="路径-83" stroke="#134365" points="271.772152 454 250 417.786902 268.191682 407 290 443.303196"></polygon>
                <polygon id="路径-84" stroke="#134365" points="253.583106 465 231 427.6875 250.073569 417 273 453.94375"></polygon>
                <polygon id="路径-85" stroke="#134365" points="176 238.752717 187.823062 258 233 232.314538 221.365805 213"></polygon>
                <polygon id="路径-86" stroke="#134365" points="166 221.999142 210.822395 196 221 213.35294 176.717185 239"></polygon>
                <polygon id="路径-87" stroke="#134365" points="158 207.418038 202.502969 182 211 196.445257 166.700664 222"></polygon>
                <polygon id="路径-88" stroke="#134365" points="149 192.563777 194.143551 166 203 181.309124 158.056172 208"></polygon>
                <polygon id="路径-89" stroke="#134365" points="141 177.024027 185.543737 151 194 166.032086 149.697341 192"></polygon>
                <polygon id="路径-90" stroke="#134365" points="132 161.988229 171.299759 138.801731 169.290893 135.308893 174.552025 132 186 151.175294 141.025812 177"></polygon>
                <polygon id="路径-91" stroke="#134365" points="112.122934 128 150.402641 104.501623 152.654388 107.559457 158 104.381086 146.649728 85 103 111.575243"></polygon>
                <polygon id="路径-92" stroke="#134365" points="93 96.6446205 137.474878 71 146 85.4651021 101.913468 111"></polygon>
                <polygon id="路径-93" stroke="#134365" points="85 82.5373406 129.54965 57 138 71.571949 93.4874126 97"></polygon>
                <polygon id="路径-94" stroke="#134365" points="77 67.5670732 121.111111 42 130 56.7195122 85.7037037 82"></polygon>
                <polygon id="路径-95" stroke="#134365" points="66 50.7077253 110.472071 25 121 42.2922747 76.3218665 68"></polygon>
                <polygon id="路径-96" stroke="#134365" points="106.205626 17 69.8459478 22.5259594 55 31.96614 66.3831212 51 110 24.1952596"></polygon>
                <polygon id="路径-97" stroke="#134365" points="47.5156635 27 52 34.276885 13.3614924 56 0 33.7750309"></polygon>
                <polygon id="路径-98" stroke="#134365" points="25.3243149 75 67 50.3346439 55.3631634 32 14 56.2332896"></polygon>
                <polygon id="路径-99" stroke="#134365" points="34.7081545 93 77 68.0022292 66.8082976 51 25 75.3798484"></polygon>
                <polygon id="路径-100" stroke="#134365" points="46.1529454 110 87 85.7032977 77.0280341 68 36 92.273482"></polygon>
                <polygon id="路径-101" stroke="#134365" points="116 228.929761 157.487142 205 167 220.894641 125.549801 245"></polygon>
                <polygon id="路径-102" stroke="#134365" points="134.436285 263 176 238.944717 165.939525 222 125 246.25026"></polygon>
                <polygon id="路径-103" stroke="#134365" points="146.277648 282 188 257.613931 176.679071 239 135 262.646362"></polygon>
                <polygon id="路径-104" stroke="#134365" points="184 0 213 1.40544313 211.066667 53 203.845098 52.7041172"></polygon>
                <polygon id="路径-105" stroke="#134365" points="251.059511 54 273 54.8090818 270.321998 104 249 103.391621"></polygon>
                <polygon id="路径-106" stroke="#134365" points="211.927714 72.2462687 209 66.4875622 209.983904 54 250 55.4552239 248.200176 104 220.998829 102.91791 221.934738 72.2089552"></polygon>
                <polygon id="路径-107" stroke="#134365" points="409.859118 60 408 108.886108 427.103824 110 429 60.7133917"></polygon>
                <polygon id="路径-108" stroke="#134365" points="449 60.729761 428.590361 60 427 110.007832 447.049914 111"></polygon>
                <polygon id="路径-109" stroke="#134365" points="472 63.1412472 449.488561 62 448 110.245304 470.279614 111"></polygon>
                <polygon id="路径-110" stroke="#134365" points="303.712329 5 302 56.0903073 319.465753 57 321.706801 11.9456265 326.63951 12.1546099 327 5.90969267"></polygon>
                <polygon id="路径-111" stroke="#134365" points="286.643603 4 284 55.3755796 302.191906 56 304 4.6862442"></polygon>
                <polygon id="路径-112" stroke="#134365" points="269.507016 4 287 4.82598388 284.324602 56 267 55.3527738"></polygon>
                <polygon id="路径-113" stroke="#134365" points="252.237312 3 270 3.70868334 267.226005 55 250 54.1865371"></polygon>
                <polygon id="路径-114" stroke="#134365" points="232.411215 2 252 2.62308958 250.205607 55 230 54.1962144"></polygon>
                <polygon id="路径-115" stroke="#134365" points="212.386674 1 233 2.03702402 230.726379 54 210 53.2362039"></polygon>
                <polygon id="路径-116" stroke="#134365" points="356.191424 7 381 7.88104483 378.294538 59 359.943338 58.9082245 361.800153 13.3692199 356 12.8858689"></polygon>
                <polygon id="路径-117" stroke="#134365" points="397 9.36965304 394.825662 60 378 59.418251 380.539723 9"></polygon>
                <polygon id="路径-118" stroke="#134365" points="414 9.61103203 412.277833 60 395 59.0199288 397.414778 9"></polygon>
                <polygon id="路径-119" stroke="#134365" points="431 10.630303 428.789834 62 412 60.8877005 413.492017 10"></polygon>
                <polygon id="路径-120" stroke="#134365" points="451 11.3506033 449.028014 63 428 61.8928318 430.225806 11"></polygon>
                <polygon id="路径-121" stroke="#134365" points="474 11.9600094 472.14885 64 449 62.3916725 451.103867 11"></polygon>
                <path d="M1226.34981,139.431121 L1243.82566,132.348399 L1263.65019,181.568879 L1246.17434,188.651601 L1226.34981,139.431121 Z" id="矩形" stroke="#134365"></path>
                <path d="M1295.34352,111.42851 L1313.2827,104.354506 L1333.65648,153.57149 L1315.7173,160.645494 L1295.34352,111.42851 Z" id="矩形复制-17" stroke="#134365"></path>
                <path d="M1328.34981,97.4311209 L1345.82566,90.3483993 L1365.65019,139.568879 L1348.17434,146.651601 L1328.34981,97.4311209 Z" id="矩形复制-19" stroke="#134365"></path>
                <path d="M1345.3447,90.7215885 L1371.50479,80.3533933 L1391.6553,129.278411 L1365.49521,139.646607 L1345.3447,90.7215885 Z" id="矩形复制-23" stroke="#134365"></path>
                <path d="M1370.34981,81.4311209 L1387.82566,74.3483993 L1407.65019,123.568879 L1390.17434,130.651601 L1370.34981,81.4311209 Z" id="矩形复制-25" stroke="#134365"></path>
                <path d="M1387.34981,74.4311209 L1404.82566,67.3483993 L1424.65019,116.568879 L1407.17434,123.651601 L1387.34981,74.4311209 Z" id="矩形复制-27" stroke="#134365"></path>
                <path d="M1403.34768,66.5521691 L1421.28445,59.3505155 L1441.65232,109.447831 L1423.71555,116.649484 L1403.34768,66.5521691 Z" id="矩形复制-29" stroke="#134365"></path>
                <path d="M1348.35276,145.563788 L1365.92953,138.345371 L1384.64724,185.436212 L1367.07047,192.654629 L1348.35276,145.563788 Z" id="矩形复制-21" stroke="#134365"></path>
                <path d="M1364.33812,139.718978 L1391.21439,129.359413 L1410.66188,175.281022 L1383.78561,185.640587 L1364.33812,139.718978 Z" id="矩形复制-24" stroke="#134365"></path>
                <path d="M1390.34849,129.432923 L1407.92771,122.349718 L1426.65151,168.567077 L1409.07229,175.650282 L1390.34849,129.432923 Z" id="矩形复制-26" stroke="#134365"></path>
                <path d="M1406.35276,122.563788 L1423.92953,115.345371 L1442.64724,162.436212 L1425.07047,169.654629 L1406.35276,122.563788 Z" id="矩形复制-28" stroke="#134365"></path>
                <path d="M1423.35276,115.563788 L1440.92953,108.345371 L1459.64724,155.436212 L1442.07047,162.654629 L1423.35276,115.563788 Z" id="矩形复制-30" stroke="#134365"></path>
                <path d="M1209.35381,145.554811 L1226.82737,138.344259 L1246.64619,188.445189 L1229.17263,195.655741 L1209.35381,145.554811 Z" id="矩形复制-9" stroke="#134365"></path>
                <path d="M1279.35603,117.433854 L1296.36863,110.341881 L1315.64397,159.566146 L1298.63137,166.658119 L1279.35603,117.433854 Z" id="矩形复制-18" stroke="#134365"></path>
                <path d="M1311.34352,104.42851 L1329.2827,97.3545061 L1349.65648,146.57149 L1331.7173,153.645494 L1311.34352,104.42851 Z" id="矩形复制-20" stroke="#134365"></path>
                <path d="M1332.35904,152.566625 L1349.45649,145.33854 L1367.64096,192.433375 L1350.54351,199.66146 L1332.35904,152.566625 Z" id="矩形复制-22" stroke="#134365"></path>
                <path d="M1193.34627,152.16045 L1210.40905,145.351895 L1230.65373,194.83955 L1213.59095,201.648105 L1193.34627,152.16045 Z" id="矩形复制-10" stroke="#134365"></path>
                <rect id="矩形复制-31" stroke="#134365" transform="translate(1193.000000, 538.500000) rotate(-90.000000) translate(-1193.000000, -538.500000) " x="1184" y="511" width="18" height="55"></rect>
                <rect id="矩形复制-39" stroke="#134365" transform="translate(1193.000000, 428.500000) rotate(-90.000000) translate(-1193.000000, -428.500000) " x="1184" y="401" width="18" height="55"></rect>
                <rect id="矩形复制-41" stroke="#134365" transform="translate(1193.000000, 393.500000) rotate(-90.000000) translate(-1193.000000, -393.500000) " x="1184" y="366" width="18" height="55"></rect>
                <rect id="矩形复制-43" stroke="#134365" transform="translate(1244.500000, 393.500000) rotate(-90.000000) translate(-1244.500000, -393.500000) " x="1235.5" y="368.5" width="18" height="50"></rect>
                <path d="M1462.68758,422.350924 L1473.65273,449.271884 L1420.31242,470.649076 L1409.34727,443.728116 L1462.68758,422.350924 Z" id="矩形复制-71" stroke="#134365"></path>
                <path d="M1472.52003,448.349734 L1483.65153,475.824458 L1429.47997,497.650266 L1418.34847,470.175542 L1472.52003,448.349734 Z" id="矩形复制-72" stroke="#134365"></path>
                <path d="M1408.99187,443.344744 L1429.64665,495.449848 L1383.00813,514.655256 L1362.35335,462.550152 L1408.99187,443.344744 Z" id="矩形复制-79" stroke="#134365"></path>
                <path d="M1181.44966,682.198582 L1246.56613,675.451282 L1271.55034,909.801418 L1206.43387,916.548718 L1181.44966,682.198582 Z" id="矩形复制-78" stroke="#134365"></path>
                <path d="M1484.06665,475.349723 L1490.65152,491.603226 L1435.93335,513.650277 L1429.34848,497.396774 L1484.06665,475.349723 Z" id="矩形复制-73" stroke="#134365"></path>
                <path d="M1518.63206,562.340667 L1525.64286,580.336569 L1472.36794,602.659333 L1465.35714,584.663431 L1518.63206,562.340667 Z" id="矩形复制-76" stroke="#134365"></path>
                <path d="M1526.24061,580.355025 L1535.65703,603.048378 L1480.75939,624.644975 L1471.34297,601.951622 L1526.24061,580.355025 Z" id="矩形复制-77" stroke="#134365"></path>
                <path d="M1489.71053,490.348601 L1497.65039,510.044197 L1444.28947,531.651399 L1436.34961,511.955803 L1489.71053,490.348601 Z" id="矩形复制-74" stroke="#134365"></path>
                <path d="M1511.58284,544.352308 L1519.65416,564.045777 L1465.41716,585.647692 L1457.34584,565.954223 L1511.58284,544.352308 Z" id="矩形复制-75" stroke="#134365"></path>
                <rect id="矩形复制-45" stroke="#134365" transform="translate(1243.500000, 371.000000) rotate(-90.000000) translate(-1243.500000, -371.000000) " x="1229" y="345" width="29" height="52"></rect>
                <rect id="矩形复制-46" stroke="#134365" transform="translate(1243.500000, 348.500000) rotate(-90.000000) translate(-1243.500000, -348.500000) " x="1234.5" y="322.5" width="18" height="52"></rect>
                <rect id="矩形复制-47" stroke="#134365" transform="translate(1243.500000, 331.000000) rotate(-90.000000) translate(-1243.500000, -331.000000) " x="1234" y="305" width="19" height="52"></rect>
                <rect id="矩形复制-36" stroke="#134365" transform="translate(1244.500000, 538.500000) rotate(-90.000000) translate(-1244.500000, -538.500000) " x="1235.5" y="513.5" width="18" height="50"></rect>
                <rect id="矩形复制-33" stroke="#134365" transform="translate(1193.000000, 503.000000) rotate(-90.000000) translate(-1193.000000, -503.000000) " x="1183.5" y="475.5" width="19" height="55"></rect>
                <path d="M1177.35036,158.279228 L1194.41078,151.34784 L1214.64964,201.720772 L1197.58922,208.65216 L1177.35036,158.279228 Z" id="矩形复制-11" stroke="#134365"></path>
                <rect id="矩形复制-32" stroke="#134365" transform="translate(1193.000000, 556.500000) rotate(-90.000000) translate(-1193.000000, -556.500000) " x="1183" y="529" width="20" height="55"></rect>
                <rect id="矩形复制-40" stroke="#134365" transform="translate(1193.000000, 446.500000) rotate(-90.000000) translate(-1193.000000, -446.500000) " x="1183" y="419" width="20" height="55"></rect>
                <rect id="矩形复制-42" stroke="#134365" transform="translate(1193.000000, 411.000000) rotate(-90.000000) translate(-1193.000000, -411.000000) " x="1183.5" y="383.5" width="19" height="55"></rect>
                <rect id="矩形复制-44" stroke="#134365" transform="translate(1244.500000, 411.000000) rotate(-90.000000) translate(-1244.500000, -411.000000) " x="1235" y="386" width="19" height="50"></rect>
                <rect id="矩形复制-37" stroke="#134365" transform="translate(1244.500000, 556.500000) rotate(-90.000000) translate(-1244.500000, -556.500000) " x="1234.5" y="531.5" width="20" height="50"></rect>
                <rect id="矩形复制-38" stroke="#134365" transform="translate(1244.500000, 581.000000) rotate(-90.000000) translate(-1244.500000, -581.000000) " x="1229" y="556" width="31" height="50"></rect>
                <rect id="矩形复制-35" stroke="#134365" transform="translate(1193.000000, 581.000000) rotate(-90.000000) translate(-1193.000000, -581.000000) " x="1177.5" y="553.5" width="31" height="55"></rect>
                <rect id="矩形复制-34" stroke="#134365" transform="translate(1193.000000, 521.000000) rotate(-90.000000) translate(-1193.000000, -521.000000) " x="1183.5" y="493.5" width="19" height="55"></rect>
                <path d="M1164.49797,164.124895 L1178.29925,158.340609 L1197.64281,208.005274 L1164.84846,221.749787 L1164.49797,164.124895 Z" id="矩形复制-16" stroke="#134365"></path>
                <path d="M1173.35131,217.475069 L1198.17414,207.346866 L1216.64869,253.524931 L1191.82586,263.653134 L1173.35131,217.475069 Z" id="矩形复制-12" stroke="#134365"></path>
                <path d="M1196.34482,207.164208 L1213.5206,200.353279 L1232.65518,246.835792 L1215.4794,253.646721 L1196.34482,207.164208 Z" id="矩形复制-13" stroke="#134365"></path>
                <path d="M1213.34703,201.041228 L1230.05735,194.351155 L1248.65297,239.958772 L1231.94265,246.648845 L1213.34703,201.041228 Z" id="矩形复制-14" stroke="#134365"></path>
                <path d="M1164.95193,220.101783 L1174.0796,216.344854 L1192.64675,263.16136 L1164.4937,274.749088 L1164.95193,220.101783 Z" id="矩形复制-15" stroke="#134365"></path>
                <path d="M1191.27371,367.219358 L1175.24424,329.5 L1208.5,329.5 L1208.5,382.5 L1191.27371,382.5 L1191.27371,367.219358 Z" id="路径-122" stroke="#134365" transform="translate(1192.000000, 356.000000) rotate(-90.000000) translate(-1192.000000, -356.000000) "></path>
                <path d="M1190.25087,294 L1212.24889,347 L1172,347 L1172,294 L1190.25087,294 Z" id="路径-123" stroke="#134365" transform="translate(1192.000000, 320.500000) rotate(-90.000000) translate(-1192.000000, -320.500000) "></path>
                <path d="M1177.5,344.5 L1190.2957,344.5 L1206.45885,381.834771 L1206.5,382.033417 L1206.5,397.5 L1177.5,397.5 L1177.5,344.5 Z" id="路径-124" stroke="#134365" transform="translate(1192.000000, 371.000000) rotate(-90.000000) translate(-1192.000000, -371.000000) "></path>
                <path d="M1265.73335,326.5 L1222.5,326.5 L1222.5,275.5 L1245.71823,275.5 L1265.73335,326.5 Z" id="路径-125" stroke="#134365" transform="translate(1244.000000, 301.000000) rotate(-90.000000) translate(-1244.000000, -301.000000) "></path>
                <path d="M1426.35407,620.605285 L1472.97638,601.343988 L1492.64593,651.125391 L1477.62279,657.331973 L1477.44766,657.369608 L1441.33126,658.510859 L1426.35407,620.605285 Z" id="路径-126" stroke="#134365"></path>
                <path d="M1492.06166,649.142394 L1481.43186,622.99249 L1535.32499,601.350476 L1557.74556,656.50636 L1475.46677,655.806452 L1492.06166,649.142394 Z" id="路径-127" stroke="#134365"></path>
                <path d="M1287.34863,749.247338 L1427.86741,734.450269 L1408.21252,656.878591 L1556.75976,656.878591 L1667.63768,980.563381 L1528.27218,1025.80856 L1520.17259,1001.14095 L1250.39255,1029.54963 L1246.42915,991.769018 L1214.67117,995.113233 L1206.45058,916.751514 L1269.96655,910.063083 L1241.32256,637.017859 L1275.20088,633.450367 L1287.34863,749.247338 Z" id="路径-128" stroke="#134365"></path>
                <path d="M1686.65895,1041.11457 L1539.72673,1056.53712 L1527.34182,1024.72293 L1667.40479,979.368599 L1686.65895,1041.11457 Z" id="路径-129" stroke="#134365"></path>
                <rect id="矩形复制-76" stroke="#134365" transform="translate(1594.000000, 307.000000) rotate(-270.000000) translate(-1594.000000, -307.000000) " x="1583.5" y="277.5" width="21" height="59"></rect>
                <rect id="矩形复制-83" stroke="#134365" transform="translate(1594.000000, 248.000000) rotate(-270.000000) translate(-1594.000000, -248.000000) " x="1583.5" y="218.5" width="21" height="59"></rect>
                <rect id="矩形复制-84" stroke="#134365" transform="translate(1594.000000, 228.500000) rotate(-270.000000) translate(-1594.000000, -228.500000) " x="1584" y="199" width="20" height="59"></rect>
                <rect id="矩形复制-85" stroke="#134365" transform="translate(1539.000000, 210.000000) rotate(-270.000000) translate(-1539.000000, -210.000000) " x="1529.5" y="183.5" width="19" height="53"></rect>
                <rect id="矩形复制-86" stroke="#134365" transform="translate(1539.000000, 345.000000) rotate(-270.000000) translate(-1539.000000, -345.000000) " x="1529.5" y="318.5" width="19" height="53"></rect>
                <rect id="矩形复制-87" stroke="#134365" transform="translate(1539.000000, 362.500000) rotate(-270.000000) translate(-1539.000000, -362.500000) " x="1530" y="336" width="18" height="53"></rect>
                <rect id="矩形复制-88" stroke="#134365" transform="translate(1539.000000, 382.000000) rotate(-270.000000) translate(-1539.000000, -382.000000) " x="1527.5" y="355.5" width="23" height="53"></rect>
                <rect id="矩形复制-80" stroke="#134365" transform="translate(1594.000000, 326.500000) rotate(-270.000000) translate(-1594.000000, -326.500000) " x="1584" y="297" width="20" height="59"></rect>
                <rect id="矩形复制-81" stroke="#134365" transform="translate(1594.000000, 349.000000) rotate(-270.000000) translate(-1594.000000, -349.000000) " x="1580.5" y="319.5" width="27" height="59"></rect>
                <rect id="矩形复制-82" stroke="#134365" transform="translate(1594.000000, 377.500000) rotate(-270.000000) translate(-1594.000000, -377.500000) " x="1578" y="348" width="32" height="59"></rect>
                <path d="M1578.22876,194.068412 L1578.22876,246.5 L1555.54389,246.5 L1539.5395,208.66207 L1539.5,208.467291 L1539.5,193.068412 L1568.1327,193.068412 L1568.1327,135.5 L1596.5,135.5 L1596.5,194.068412 L1578.22876,194.068412 Z" id="路径-130" stroke="#134365" transform="translate(1568.000000, 191.000000) rotate(-270.000000) translate(-1568.000000, -191.000000) "></path>
                <path d="M1588.32354,184.197194 L1588.32354,201.053278 L1557.75649,126 L1616,126 L1616,184.197194 L1588.32354,184.197194 Z" id="路径-131" stroke="#134365" transform="translate(1587.000000, 162.500000) rotate(-270.000000) translate(-1587.000000, -162.500000) "></path>
            </g>
        </g>
    </g>
</svg>