<?xml version="1.0" encoding="utf-8"?>
<!-- Generator: Adobe Illustrator 16.0.0, SVG Export Plug-In . SVG Version: 6.00 Build 0)  -->
<!DOCTYPE svg PUBLIC "-//W3C//DTD SVG 1.1//EN" "http://www.w3.org/Graphics/SVG/1.1/DTD/svg11.dtd">
<svg version="1.1" id="图层_1" xmlns="http://www.w3.org/2000/svg" xmlns:xlink="http://www.w3.org/1999/xlink" x="0px" y="0px"
	 width="40px" height="40px" viewBox="0 0 40 40" style="enable-background:new 0 0 40 40;" xml:space="preserve">
<style type="text/css">
<![CDATA[
	.st0{fill:#49892E;}
	.st1{fill:#58A03D;}
	.st2{fill:#FFFFFF;}
	.st3{fill:#006600;}
	.st4{fill:#43DD88;}
]]>
</style>
<circle class="st4" cx="19.781" cy="19.906" r="17.719"/>
<g>
	<path class="st1" d="M21.154,10.881c-5.516,0-9.986,3.146-9.986,7.027c0,2.739,2.232,5.106,5.481,6.264l5.187,0.738
		c5.196-0.248,9.304-3.283,9.304-7.002C31.14,14.027,26.669,10.881,21.154,10.881z"/>
	<path class="st0" d="M19.236,11.053l-2.586,13.119c1.118,0.66,5.187,0.738,5.187,0.738c5.196-0.248,9.304-3.285,9.304-7.003
		c0-0.861-0.223-1.688-0.625-2.452C29.958,14.403,19.236,11.053,19.236,11.053z"/>
	<g>
		<path class="st2" d="M28.394,18.055c0-3.881-4.471-7.027-9.985-7.027c-5.516,0-9.986,3.146-9.986,7.027
			c0,2.739,2.232,5.105,5.482,6.266c0.151,0.791-0.08,2.217-2.315,4.248c0,0,4.758-1.295,7.501-3.512
			C24.286,24.809,28.394,21.773,28.394,18.055z"/>
	</g>
	<g>
		<circle class="st3" cx="13.424" cy="18.33" r="1.635"/>
		<circle class="st3" cx="18.159" cy="18.33" r="1.635"/>
		<circle class="st3" cx="22.707" cy="18.33" r="1.635"/>
	</g>
</g>
</svg>
