<?xml version="1.0" encoding="utf-8"?>
<!-- Generator: Adobe Illustrator 16.0.0, SVG Export Plug-In . SVG Version: 6.00 Build 0)  -->
<!DOCTYPE svg PUBLIC "-//W3C//DTD SVG 1.1//EN" "http://www.w3.org/Graphics/SVG/1.1/DTD/svg11.dtd">
<svg version="1.1" id="图层_1" xmlns="http://www.w3.org/2000/svg" xmlns:xlink="http://www.w3.org/1999/xlink" x="0px" y="0px"
	 width="40px" height="40px" viewBox="0 0 40 40" style="enable-background:new 0 0 40 40;" xml:space="preserve">
<style type="text/css">
<![CDATA[
	.st0{fill:#604B06;}
	.st1{fill:#FFFFFF;}
	.st2{opacity:0.7;fill:#2B2607;}
	.st3{fill:#CDDB45;}
	.st4{fill:#773E00;}
	.st5{fill:#DB8435;}
]]>
</style>
<circle class="st3" cx="19.781" cy="19.906" r="17.719"/>
<g>
	<g>
		<g>
			<path class="st1" d="M27.976,10.232h-1.682v0.072c0,0.719-0.584,1.302-1.303,1.302h-0.145c-0.719,0-1.303-0.583-1.303-1.302
				v-0.072h-7.088v0.072c0,0.719-0.584,1.302-1.303,1.302h-0.145c-0.719,0-1.303-0.583-1.303-1.302v-0.072h-1.682
				c-0.719,0-1.302,0.583-1.302,1.302v4.394h18.554v-4.394C29.276,10.815,28.694,10.232,27.976,10.232z"/>
		</g>
		<g>
			<rect x="10.723" y="15.929" class="st5" width="18.554" height="5.956"/>
			<path class="st4" d="M12.024,28.787h14.757l2.495-2.496v-4.406H10.723v5.6C10.723,28.203,11.306,28.787,12.024,28.787z"/>
		</g>
	</g>
	<g>
		<path class="st1" d="M15.274,23.631c0.266,0.158,0.873,0.426,1.533,0.426c1.193,0,1.577-0.758,1.566-1.342
			c-0.011-0.971-0.884-1.385-1.79-1.385h-0.521v-0.705h0.521c0.683,0,1.545-0.351,1.545-1.171c0-0.554-0.352-1.043-1.214-1.043
			c-0.554,0-1.087,0.245-1.385,0.458l-0.256-0.682c0.373-0.266,1.076-0.533,1.821-0.533c1.363,0,1.981,0.81,1.981,1.651
			c0,0.725-0.437,1.332-1.278,1.642v0.021c0.853,0.16,1.534,0.799,1.544,1.768c0,1.107-0.873,2.078-2.523,2.078
			c-0.778,0-1.461-0.246-1.801-0.469L15.274,23.631z"/>
		<path class="st1" d="M25.128,21.159c0,2.353-0.885,3.653-2.408,3.653c-1.353,0-2.279-1.268-2.301-3.558
			c0-2.333,1.012-3.601,2.418-3.601C24.286,17.654,25.128,18.954,25.128,21.159z M21.367,21.266c0,1.801,0.554,2.822,1.405,2.822
			c0.949,0,1.406-1.117,1.406-2.886c0-1.706-0.426-2.824-1.406-2.824C21.964,18.378,21.367,19.38,21.367,21.266z"/>
	</g>
	<polygon class="st0" points="26.781,26.834 23.771,28.787 26.781,28.787 	"/>
	<path class="st2" d="M26.781,26.291c-0.317,0.357,0,2.496,0,2.496l2.495-2.496C29.276,26.291,27.1,25.934,26.781,26.291z"/>
</g>
</svg>
