<?xml version="1.0" encoding="utf-8"?>
<!-- Generator: Adobe Illustrator 16.0.0, SVG Export Plug-In . SVG Version: 6.00 Build 0)  -->
<!DOCTYPE svg PUBLIC "-//W3C//DTD SVG 1.1//EN" "http://www.w3.org/Graphics/SVG/1.1/DTD/svg11.dtd">
<svg version="1.1" id="图层_1" xmlns="http://www.w3.org/2000/svg" xmlns:xlink="http://www.w3.org/1999/xlink" x="0px" y="0px"
	 width="40px" height="40px" viewBox="0 0 40 40" style="enable-background:new 0 0 40 40;" xml:space="preserve">
<style type="text/css">
<![CDATA[
	.st0{fill:#48ACFF;}
	.st1{fill:#52AACC;}
	.st2{fill:#FFFFFF;}
	.st3{fill:#6A90D3;}
	.st4{fill:#A6BFED;}
]]>
</style>
<circle class="st1" cx="19.781" cy="19.906" r="17.719"/>
<g>
	<g>
		<path class="st4" d="M27.14,12.802V11.24c0-0.84-0.682-1.521-1.521-1.521H11.161c-0.841,0-1.522,0.682-1.522,1.521v5.195
			l3.804-3.633H27.14z"/>
		<path class="st3" d="M11.161,23.912h2.592h6.015h5.851c0.84,0,1.521-0.682,1.521-1.521v-9.589H13.443l-3.804,3.276v6.313
			C9.639,23.23,10.32,23.912,11.161,23.912z"/>
	</g>
	<path class="st2" d="M28.84,12.351H14.382c-0.84,0-1.521,0.682-1.521,1.522v11.151c0,0.84,0.681,1.521,1.521,1.521h2.593
		l4.135,5.553l1.879-5.553h5.852c0.841,0,1.521-0.682,1.521-1.521V13.873C30.361,13.032,29.681,12.351,28.84,12.351z"/>
	<rect x="16.634" y="16.331" class="st0" width="9.955" height="1.119"/>
	<rect x="16.634" y="18.74" class="st0" width="9.955" height="1.119"/>
	<rect x="16.634" y="21.023" class="st0" width="9.955" height="1.119"/>
</g>
</svg>
