<?xml version="1.0" encoding="UTF-8"?>
<svg width="15px" height="16px" viewBox="0 0 15 16" version="1.1" xmlns="http://www.w3.org/2000/svg" xmlns:xlink="http://www.w3.org/1999/xlink">
    <!-- Generator: Sketch 55 (78076) - https://sketchapp.com -->
    <title>联系人</title>
    <desc>Created with Sketch.</desc>
    <defs>
        <polygon id="path-1" points="2.29578347e-06 7.5249853e-06 16.0000023 7.5249853e-06 16.0000023 16.0000075 2.29578347e-06 16.0000075"></polygon>
    </defs>
    <g id="页面1" stroke="none" stroke-width="1" fill="none" fill-rule="evenodd">
        <g id="申请" transform="translate(-15.000000, -827.000000)">
            <g id="编组备份-3" transform="translate(0.000000, 824.000000)">
                <g id="联系人" transform="translate(15.000000, 3.000000)">
                    <mask id="mask-2" fill="white">
                        <use xlink:href="#path-1"></use>
                    </mask>
                    <g id="Clip-2"></g>
                    <path d="M11.1446698,10.3821686 C11.1446698,10.1965434 11.0586931,10.0207619 10.9083023,9.90945322 C10.384786,9.50121053 9.79876969,9.18083904 9.17566346,8.95615127 C10.5977355,8.0615408 11.4591623,6.49888265 11.4532834,4.81895872 C11.4669358,3.55315639 10.9766617,2.33231506 10.0879302,1.42791942 C9.20109318,0.52354332 7.99191201,0.00977316191 6.72419562,7.5249853e-06 C4.08130177,0.0351638179 1.96383825,2.20336959 1.99510782,4.84825563 C1.9794828,6.51444907 2.83114399,8.07130644 4.24343087,8.95615127 C1.9013577,9.89968758 0.270261961,12.0601004 0.00459757414,14.5720761 C-0.0149336997,14.7244396 0.0281132278,14.8787952 0.127664131,14.9959829 C0.22731269,15.1131705 0.36991052,15.1854948 0.524246646,15.1913542 C0.840633751,15.2206511 1.53803695,15.1913542 6.6656018,15.1913542 C7.27503614,13.2711956 8.70685429,11.7241039 10.5723253,10.9661928 C10.8770327,10.8490051 11.1446698,10.7044347 11.1446698,10.3821686 M13.930181,10.5403329 C13.8325246,10.5150008 13.7309034,10.5012703 13.6274462,10.4993563 C12.9886369,10.5208016 12.486605,11.0540835 12.5042222,11.694807 C12.4963706,12.2085771 12.8187148,12.6714488 13.3051021,12.8394568 C12.9651993,13.4372114 12.4905113,13.9451027 11.9201395,14.3259625 C11.7541236,13.8981886 11.3458614,13.6129929 10.8867984,13.607114 C10.5782042,13.6168796 10.2871297,13.7477977 10.0761724,13.9724074 C9.86523461,14.1970952 9.75191416,14.4959432 9.7616798,14.8025647 C9.75970714,14.8787952 9.76757824,14.9530141 9.78511733,15.0272524 C9.86523461,15.5703195 10.3223055,15.9804763 10.873146,16.0000075 C11.0899822,15.9980935 11.3048262,15.9492653 11.5041038,15.8574097 C13.1527386,15.2186784 14.3618417,13.7829736 14.7076038,12.0483621 C14.733014,11.9311744 14.748639,11.8119946 14.7545375,11.6909202 C14.7603382,11.1712712 14.4263144,10.7025206 13.930181,10.5403329" id="Fill-1" fill="#888888" mask="url(#mask-2)"></path>
                </g>
            </g>
        </g>
    </g>
</svg>