<?xml version="1.0" encoding="UTF-8"?>
<svg width="12px" height="12px" viewBox="0 0 12 12" version="1.1" xmlns="http://www.w3.org/2000/svg" xmlns:xlink="http://www.w3.org/1999/xlink">
    <!-- Generator: Sketch 55 (78076) - https://sketchapp.com -->
    <title>会计引擎</title>
    <desc>Created with Sketch.</desc>
    <g id="页面1" stroke="none" stroke-width="1" fill="none" fill-rule="evenodd">
        <g id="工作台-上线动态列表备份" transform="translate(-3.000000, -348.000000)" fill-rule="nonzero">
            <g id="会计引擎" transform="translate(2.000000, 347.000000)">
                <rect id="矩形" fill="#000000" opacity="0" x="0" y="0" width="14" height="14"></rect>
                <path d="M5.54166666,7.58333334 C6.02491582,7.58333334 6.41666666,7.97508418 6.41666666,8.45833334 L6.41666666,11.9583333 C6.41666666,12.4415825 6.02491582,12.8333333 5.54166666,12.8333333 L2.04166666,12.8333333 C1.55841751,12.8333333 1.16666666,12.4415825 1.16666666,11.9583333 L1.16666666,8.45833334 C1.16666666,7.97508418 1.55841751,7.58333334 2.04166666,7.58333334 L5.54166666,7.58333334 Z M11.9583333,7.58333334 C12.4415825,7.58333334 12.8333333,7.97508418 12.8333333,8.45833334 L12.8333333,11.9583333 C12.8333333,12.4415825 12.4415825,12.8333333 11.9583333,12.8333333 L8.45833334,12.8333333 C7.97508418,12.8333333 7.58333334,12.4415825 7.58333334,11.9583333 L7.58333334,8.45833334 C7.58333334,7.97508418 7.97508418,7.58333334 8.45833334,7.58333334 L11.9583333,7.58333334 Z M5.54166666,1.16666666 C6.02491582,1.16666666 6.41666666,1.55841751 6.41666666,2.04166666 L6.41666666,5.54166666 C6.41666666,6.02491582 6.02491582,6.41666666 5.54166666,6.41666666 L2.04166666,6.41666666 C1.55841751,6.41666666 1.16666666,6.02491582 1.16666666,5.54166666 L1.16666666,2.04166666 C1.16666666,1.55841751 1.55841751,1.16666666 2.04166666,1.16666666 L5.54166666,1.16666666 Z M10.8269583,1.52308334 L12.4769167,3.17304166 C12.8185009,3.51472903 12.8185009,4.06860429 12.4769167,4.41029166 L10.8269583,6.06025 C10.485271,6.4018342 9.93139571,6.4018342 9.58970834,6.06025 L7.93975,4.41029166 C7.5981658,4.06860429 7.5981658,3.51472903 7.93975,3.17304166 L9.58970834,1.52308334 C9.93139571,1.18149914 10.485271,1.18149914 10.8269583,1.52308334 L10.8269583,1.52308334 Z" id="形状" fill="#FFFFFF"></path>
            </g>
        </g>
    </g>
</svg>