<?xml version="1.0" encoding="UTF-8"?>
<svg width="14px" height="12px" viewBox="0 0 14 12" version="1.1" xmlns="http://www.w3.org/2000/svg" xmlns:xlink="http://www.w3.org/1999/xlink">
    <!-- Generator: Sketch 55 (78076) - https://sketchapp.com -->
    <title>客户管理</title>
    <desc>Created with Sketch.</desc>
    <g id="页面1" stroke="none" stroke-width="1" fill="none" fill-rule="evenodd">
        <g id="工作台-上线动态列表备份" transform="translate(-2.000000, -180.000000)" fill-rule="nonzero">
            <g id="客户管理" transform="translate(2.000000, 179.000000)">
                <rect id="矩形" fill="#000000" opacity="0" x="0" y="0" width="14" height="14"></rect>
                <path d="M8.12,8.61777778 C8.12,8.61777778 7.65333334,8.49333334 7.52888888,8.43111112 C7.28,8.27555556 7.12444444,7.96444446 7.12444444,7.65333334 C7.12444444,7.31111112 7.40444444,7.03111112 7.59111112,6.81333334 C8.05777778,6.25333334 8.30666668,5.50666668 8.30666666,4.66666666 C8.30666666,2.92444444 7.06222222,1.52444444 5.53777778,1.52444444 C4.01333334,1.52444444 2.76888888,2.95555556 2.76888888,4.69777778 C2.76888888,5.53777778 3.04888888,6.28444444 3.48444444,6.84444444 C3.76444444,7 3.9511111,7.34222222 3.95111112,7.68444444 C3.95111112,7.99555556 3.79555556,8.27555556 3.54666666,8.46222222 L3.54666666,8.49333334 C3.51555554,8.49333334 3.48444444,8.52444446 3.48444444,8.52444444 C3.32888888,8.61777778 3.17333332,8.68 2.98666666,8.68 C1.80444444,9.08444444 0.808888883,9.70666666 0.217777779,10.4844444 L0.248888883,10.4844444 C0.0933333242,10.7022222 0.0311111035,10.9511111 0.0311111172,11.2 C0.0311111172,11.9466667 0.653333338,12.5688889 1.43111112,12.5688889 L9.64444444,12.5688889 C10.4533333,12.5688889 11.0755556,11.9777778 11.0755556,11.2 C11.0755556,10.8888889 10.9511111,10.6088889 10.7955556,10.36 C10.2044444,9.58222222 9.27111112,8.99111112 8.12,8.61777778 Z M13.6888889,9.98666666 C13.16,9.33333332 12.3511111,8.77333332 11.3244444,8.46222222 C11.3244444,8.46222222 10.92,8.36888888 10.7955556,8.30666666 C10.5777778,8.1511111 10.4533333,7.90222222 10.4533333,7.62222222 C10.4533333,7.3111111 10.7022222,7.06222222 10.8577778,6.90666666 C11.2622222,6.40888888 11.5111111,5.75555554 11.5111111,5.00888888 C11.5111111,3.48444444 10.4222222,2.20888888 9.05333334,2.20888888 C8.83555556,2.20888888 8.61777778,2.24 8.43111112,2.30222222 C8.89777778,2.98666666 9.14666668,3.79555556 9.14666666,4.69777778 C9.14666666,5.66222222 8.80444444,6.59555556 8.21333334,7.37333334 L8.15111112,7.43555556 L8.15111112,7.46666666 C8.0888889,7.52888888 7.99555556,7.62222222 7.96444444,7.71555556 C7.96444444,7.74666668 7.96444444,7.74666668 7.99555556,7.74666666 C8.05777778,7.77777778 8.15111112,7.80888888 8.24444444,7.80888888 L8.27555556,7.80888888 L8.4,7.87111112 C9.67555556,8.27555556 10.7644444,8.99111112 11.48,9.89333334 C11.7911111,10.2977778 11.9777778,10.7644445 11.9777778,11.2622222 C11.9777778,11.5422222 11.9155556,11.76 11.8222222,12.0088889 L12.7244444,12.0088889 C13.44,12.0088889 14,11.48 14,10.7955556 C13.9688889,10.4533333 13.8755556,10.2044444 13.6888889,9.98666666 Z" id="形状" fill="#FFFFFF"></path>
            </g>
        </g>
    </g>
</svg>