<?xml version="1.0" encoding="UTF-8"?>
<svg width="13px" height="14px" viewBox="0 0 13 14" version="1.1" xmlns="http://www.w3.org/2000/svg" xmlns:xlink="http://www.w3.org/1999/xlink">
    <!-- Generator: Sketch 55 (78076) - https://sketchapp.com -->
    <title>融资管理</title>
    <desc>Created with Sketch.</desc>
    <g id="页面1" stroke="none" stroke-width="1" fill="none" fill-rule="evenodd">
        <g id="工作台-上线动态列表备份" transform="translate(-2.000000, -227.000000)" fill-rule="nonzero">
            <g id="融资管理" transform="translate(2.000000, 227.000000)">
                <rect id="矩形" fill="#000000" opacity="0" x="0" y="0" width="14" height="14"></rect>
                <path d="M4.3675834,0.00993779763 C4.73385986,0.0570367445 5.08859165,0.234642489 5.44115234,0.375397923 C5.73772996,0.493845316 6.01345824,0.68347314 6.31580818,0.772070682 C6.72843568,0.892459532 7.1084279,0.747111799 7.45220087,0.476017545 C7.94769157,0.0857478703 8.49091177,-0.0966181876 9.10960314,0.0509696904 C9.72774314,0.198389554 10.0226666,0.74711178 9.7968906,1.3937468 C9.68523461,1.71358275 9.53541224,2.01898848 9.38972529,2.32364747 C8.99767146,3.14269856 8.44511213,3.65542922 7.51723014,3.50814004 C7.21791281,3.46044374 6.90651664,3.50071024 6.6005999,3.50071024 L6.6005999,3.50056091 C6.16024795,3.50056091 5.71881046,3.4822851 5.2792856,3.50547054 C4.80411008,3.53029875 4.42987297,3.3296569 4.18295469,2.92006602 C3.8907537,2.43585981 3.60761617,1.93427386 3.40075965,1.40369675 C3.1008737,0.634134067 3.60458353,-0.0881616547 4.3675834,0.00993779763 L4.3675834,0.00993779763 Z M10.9837352,13.9985652 C9.53923749,13.9357106 8.09063881,13.9835563 6.64365984,13.9835563 C5.22138992,13.9835563 3.79774152,13.9417963 2.37710851,13.9963437 C1.20120548,14.0416692 0.378414525,12.8044027 0.514762347,11.8315473 C0.803120842,9.77718981 1.28544717,7.7830174 2.35598348,6.01978474 C2.88605654,5.14695161 3.56509039,4.44649725 4.56868481,4.25462928 C4.80765966,4.2090051 5.05623209,4.21286934 5.30041065,4.21152525 C6.23241082,4.20706365 7.16522083,4.23635347 8.09584253,4.20275137 C9.13674175,4.16500502 9.94474863,4.62318827 10.6001935,5.45293603 C11.5469949,6.65124279 12.0339908,8.09062594 12.4082107,9.58069224 C12.574747,10.2435496 12.6844904,10.9230213 12.822768,11.5943352 C13.0611743,12.7544849 12.1461982,14.0491177 10.9837352,13.9985652 L10.9837352,13.9985652 Z M8.56388448,8.73419942 C8.28870759,8.73210863 8.0138064,8.7337514 7.69279541,8.7337514 C7.77674418,8.55868447 7.82916045,8.44215987 7.88786602,8.32905148 C8.1635943,7.79864239 8.44288936,7.27000674 8.71779055,6.73853358 C8.8514159,6.4796481 8.94441086,6.20468961 8.64316367,6.01341901 C8.34357064,5.82319382 8.16607552,6.02678518 8.02998617,6.29683402 C7.95946025,6.43624539 7.88648754,6.57401397 7.81406622,6.71237994 C7.45931721,7.38815543 7.10456819,8.06408027 6.73198523,8.77358854 C6.66587041,8.67713186 6.6249988,8.6292862 6.59591311,8.57399209 C6.18466409,7.79151126 5.77531047,7.00770503 5.36431991,6.22492554 C5.23069456,5.97035232 5.03891505,5.85248364 4.78624169,6.01241094 C4.55110933,6.16117489 4.54754253,6.39258133 4.66717642,6.63259364 C4.7947365,6.88895897 4.92946462,7.14101203 5.06059149,7.39545458 C5.28309363,7.82735352 5.5050616,8.25953248 5.74924017,8.73363939 C5.3966967,8.73363939 5.11519609,8.73543149 4.83369548,8.73304201 C4.55029947,8.73096988 4.30886062,8.80586521 4.27291704,9.16167409 C4.24438273,9.44479043 4.4652307,9.61541439 4.84055337,9.61823325 C5.31547042,9.62207882 5.79038748,9.61911063 6.27764182,9.61911063 L6.27764182,10.1565202 C5.75745929,10.1565202 5.25621348,10.1324573 4.75906861,10.1703343 C4.59828743,10.1823938 4.38510719,10.3174742 4.30693075,10.4652114 C4.16425921,10.7339162 4.3870198,10.993399 4.7395805,10.998906 C5.25071683,11.0066345 5.76183593,11.0006795 6.3004038,11.0006795 C6.3004038,11.4168228 6.29792256,11.7729117 6.30123087,12.1290005 C6.30341919,12.398004 6.43456329,12.5568672 6.6817745,12.5634197 C6.93362079,12.5704014 7.05790702,12.4043884 7.07711942,12.1420867 C7.08370161,12.0499423 7.08039328,11.9566031 7.08068622,11.86388 C7.08287454,11.0009969 7.08287454,11.0012955 7.89825622,11.0009968 C8.1679537,11.0008475 8.44724876,11.0446982 8.70378186,10.9816756 C8.8527599,10.944956 9.04316095,10.7553282 9.07636482,10.6001612 C9.12847095,10.3544925 8.95700663,10.1776335 8.71008835,10.1630726 C8.45355525,10.1478956 8.19538524,10.1568375 7.93804228,10.1562401 C7.66229678,10.1556428 7.38686142,10.1562401 7.11058177,10.1562401 L7.11058177,9.61883061 C7.61647991,9.61883061 8.09360253,9.61853192 8.57098359,9.61897996 C8.84452355,9.61942798 9.07965591,9.53084912 9.08734088,9.19408144 C9.09561169,8.83256021 8.85114021,8.73657023 8.56388448,8.73419942 L8.56388448,8.73419942 Z" id="形状" fill="#FFFFFF"></path>
            </g>
        </g>
    </g>
</svg>