<?xml version="1.0" encoding="UTF-8"?>
<svg width="13px" height="14px" viewBox="0 0 13 14" version="1.1" xmlns="http://www.w3.org/2000/svg" xmlns:xlink="http://www.w3.org/1999/xlink">
    <!-- Generator: Sketch 55 (78076) - https://sketchapp.com -->
    <title>贷后管理</title>
    <desc>Created with Sketch.</desc>
    <g id="页面1" stroke="none" stroke-width="1" fill="none" fill-rule="evenodd">
        <g id="工作台-上线动态列表备份" transform="translate(-3.000000, -323.000000)">
            <g id="贷后管理" transform="translate(2.000000, 323.000000)">
                <rect id="矩形" fill="#000000" fill-rule="nonzero" opacity="0" x="0" y="0" width="14" height="14"></rect>
                <path d="M13.5930824,1.70651327 L13.5930824,8.54793119 C13.5930824,9.37635832 12.9215095,10.0479312 12.0930824,10.0479312 L2.49917648,10.0479312 C1.55169694,10.0479312 1,9.49423534 1,8.70966632 L1,1.78447045 C1,0.841988162 1.62965412,0.290291223 2.5741353,0.290291223 L12.0939059,0.290291223 C12.9654272,0.290291223 13.5930824,0.839989266 13.5930824,1.70651327 Z M7.75828756,6.95463039 L9.25746404,6.95463039 C9.38526435,6.96150843 9.50641295,6.89723825 9.57238167,6.7875644 C9.63835038,6.67789055 9.63835038,6.5407496 9.57238167,6.43107575 C9.50641295,6.3214019 9.38526435,6.25713172 9.25746404,6.26400976 L7.75628866,6.26400976 L7.75628866,5.41847423 L9.25546514,5.41847423 C9.44617476,5.41847423 9.60077545,5.26387353 9.60077545,5.07316391 C9.60077545,4.88245429 9.44617476,4.7278536 9.25546514,4.7278536 L8.02713988,4.7278536 L9.49533338,2.62900653 C9.59352401,2.49528111 9.60830608,2.31774644 9.53358295,2.16962371 C9.45885983,2.02150098 9.30729101,1.92788494 9.14138851,1.92738596 C8.97548601,1.92688698 8.82335681,2.0195896 8.74774404,2.16726017 L7.34051705,4.24611822 L7.25856207,4.24611822 L5.84933618,2.16925908 C5.72182845,1.96171402 5.4502145,1.89683094 5.24266944,2.02433868 C5.03512438,2.15184641 4.9702413,2.42346036 5.09774904,2.63100542 L6.56194473,4.72885305 L5.34161507,4.72885305 C5.15090545,4.72885305 4.99630476,4.88345374 4.99630476,5.07416336 C4.99630476,5.26487298 5.15090545,5.41947367 5.34161507,5.41947367 L6.84079156,5.41947367 L6.84079156,6.26400976 L5.34161507,6.26400976 C5.21381477,6.25713172 5.09266617,6.3214019 5.02669745,6.43107575 C4.96072873,6.5407496 4.96072873,6.67789055 5.02669745,6.7875644 C5.09266617,6.89723825 5.21381477,6.96150843 5.34161507,6.95463039 L6.84079156,6.95463039 L6.84079156,7.86413079 C6.8407643,8.02804384 6.92819521,8.1795174 7.07014353,8.26148179 C7.21209185,8.34344619 7.38698726,8.34344619 7.52893558,8.26148179 C7.6708839,8.1795174 7.75831482,8.02804384 7.75828756,7.86413079 L7.75828756,6.95463039 Z" id="形状" fill="#FFFFFF" fill-rule="nonzero"></path>
                <path d="M1.28525984,11 L12.9529094,11 C13.0633664,11 13.1529094,11.0895431 13.1529094,11.2 C13.1529094,11.265624 13.1207159,11.3270727 13.0667631,11.3644303 L10.7046329,13" id="直线-2" stroke="#FFFFFF" stroke-width="0.7" stroke-linecap="round"></path>
            </g>
        </g>
    </g>
</svg>