<?xml version="1.0" encoding="UTF-8"?>
<svg width="12px" height="14px" viewBox="0 0 12 14" version="1.1" xmlns="http://www.w3.org/2000/svg" xmlns:xlink="http://www.w3.org/1999/xlink">
    <!-- Generator: Sketch 55 (78076) - https://sketchapp.com -->
    <title>意向客户</title>
    <desc>Created with Sketch.</desc>
    <g id="页面1" stroke="none" stroke-width="1" fill="none" fill-rule="evenodd">
        <g id="工作台-上线动态列表备份" transform="translate(-3.000000, -299.000000)" fill-rule="nonzero">
            <g id="意向客户" transform="translate(2.000000, 299.000000)">
                <rect id="矩形" fill="#000000" opacity="0" x="0" y="0" width="14" height="14"></rect>
                <path d="M12.6834599,9.22505141 C12.6834599,9.22505141 11.1488497,9.00709784 10.9378728,8.97665449 C10.9230055,8.9743414 10.9132495,8.97294234 10.9127645,8.97294234 C10.799833,8.94762883 10.7066562,8.87650107 10.6511232,8.78123498 C10.6492578,8.77683264 10.6027906,8.68574507 10.5349273,8.55143612 C10.3204621,8.12573274 9.88220454,7.25572794 9.88220454,7.25572794 C9.82807057,7.1367526 9.70676348,7.05357434 9.5659443,7.05357434 C9.42374471,7.05357434 9.30219513,7.1367526 9.24899385,7.25572794 C9.24899385,7.25572794 9.18788329,7.37585982 9.10213075,7.54618967 C8.88302064,7.979336 8.49542743,8.74592292 8.49400973,8.74896353 C8.44172252,8.86165246 8.33809944,8.94624843 8.21121479,8.97249464 C8.20632745,8.97342733 6.43682583,9.22368965 6.43682583,9.22368965 C6.28460902,9.25971056 6.17169625,9.3926391 6.17169625,9.55250404 C6.17169625,9.64381547 6.20863121,9.72654605 6.26929408,9.78743276 C6.26929408,9.78743276 7.52293744,10.982745 7.52735845,10.9869421 C7.59729237,11.0580513 7.64073758,11.1540075 7.64073758,11.2601862 C7.64073758,11.2834291 7.63724928,11.3064295 7.63353713,11.3294486 C7.63260444,11.3326944 7.4973628,12.1039635 7.41092007,12.5930719 C7.37141085,12.8194197 7.34212405,12.9853099 7.34212405,12.9853099 C7.34212405,12.9853099 7.3349236,13.0317957 7.3349236,13.0545723 C7.3349236,13.2418586 7.48991985,13.3933666 7.6813847,13.3933666 C7.72785187,13.3933666 7.77153958,13.3840769 7.8119815,13.3677919 C7.8119815,13.3677919 8.98058118,12.7655096 9.31984184,12.5930718 C9.37444215,12.5652027 9.40930652,12.5475374 9.41301865,12.5461383 C9.45948582,12.5277828 9.51015012,12.517094 9.56337005,12.517094 C9.61565726,12.517094 9.66445617,12.5275589 9.70999065,12.5447393 C9.71416915,12.5461197 9.74996621,12.5642514 9.80572307,12.5930532 C10.1477818,12.7668713 11.303846,13.3657027 11.3128932,13.3689485 C11.3535776,13.3854573 11.3984032,13.3952133 11.4448891,13.3952133 C11.6363726,13.3952133 11.7920403,13.2437054 11.7920403,13.056419 C11.7920403,13.0503751 11.7581273,12.851915 11.7130406,12.5930532 C11.6233334,12.0783515 11.4904235,11.3180323 11.4890245,11.3054968 C11.4876441,11.2913198 11.484846,11.2773666 11.484846,11.2629843 C11.484846,11.1586337 11.5271346,11.0640578 11.5952218,10.9934337 C11.5977774,10.9911206 11.7364887,10.8586398 11.919839,10.6841501 C12.2920986,10.3295558 12.8514021,9.79718877 12.8514021,9.79718877 L12.8558044,9.79299161 C12.916915,9.73163855 12.955734,9.64846028 12.955734,9.55573114 C12.95579,9.39353452 12.8396127,9.25829288 12.6834599,9.22505141 L12.6834599,9.22505141 Z M5.85752526,10.1815176 C5.6881281,10.0128106 5.59517514,9.78903703 5.59517514,9.55224291 C5.59517514,9.13446749 5.88563688,8.77450089 6.30158419,8.67621285 C6.31878319,8.67203435 6.33644854,8.66878855 6.35409525,8.6662143 C6.80628734,8.60230563 7.4069654,8.5170381 7.77991521,8.4643032 L8.40129925,7.23992799 C8.47263222,7.20252668 8.53723108,7.15466046 8.60578461,7.11306201 C9.15370912,6.77820371 9.6128778,6.31509904 9.93355905,5.75646712 C10.2533076,5.19970061 10.4417505,4.55835676 10.4417505,3.87123598 C10.4417505,1.77523307 8.7396272,0.0700878281 6.6480453,0.0700878281 C4.55599705,0.0700878281 2.85411625,1.77523307 2.85411625,3.87123598 C2.85411625,4.55835678 3.04280165,5.19970061 3.36253154,5.75646712 C3.72363604,6.38572315 4.25438019,6.90484585 4.89805579,7.2417934 C4.86181103,7.2492177 4.82439107,7.25108309 4.7888365,7.26039145 C4.54577462,7.32174452 4.31758002,7.41816715 4.09891759,7.53691863 C3.88212058,7.65471877 3.68599222,7.79973511 3.49823952,7.9556454 C3.21057589,8.1519976 2.9349814,8.36879462 2.68354388,8.62092233 C1.7224515,9.58318991 1.15639528,10.6239723 1.05833111,11.9675467 C1.05599936,12.0009933 0.901954466,12.442049 1.53423246,12.443448 L6.76909122,12.443448 C6.9099104,11.6436196 7.02563994,11.4586464 7.0504871,11.3192076 C6.78257807,11.0638527 5.86703881,10.190826 5.86703881,10.190826 C5.86379301,10.1875802 5.86052855,10.1843157 5.85728276,10.1815363 L5.85752526,10.1815363 L5.85752526,10.1815176 Z" id="形状" fill="#FFFFFF"></path>
            </g>
        </g>
    </g>
</svg>