<?xml version="1.0" standalone="no"?><!DOCTYPE svg PUBLIC "-//W3C//DTD SVG 1.1//EN" "http://www.w3.org/Graphics/SVG/1.1/DTD/svg11.dtd"><svg class="icon" width="200px" height="200.00px" viewBox="0 0 1024 1024" version="1.1" xmlns="http://www.w3.org/2000/svg"><path d="M938.66575 138.666594V895.997375h-85.33375V712.360913C775.636228 746.130814 651.775591 767.99775 512 767.99775c-139.775591 0-263.636228-21.866936-341.332-55.636837V895.997375H85.33425V127.999625h1.663995C103.809196 56.426835 287.445658 0 512 0c224.554342 0 408.190804 56.426835 425.001755 127.999625h1.663995v10.666969z m-85.33375 0c-0.021-29.461914-148.052566-53.333844-330.665031-53.333844C340.053504 85.33275 192.000937 109.20468 192.000937 138.666594 192.000937 168.127507 340.053504 191.999438 522.666969 191.999438c182.612465 0 330.644031-23.87193 330.665031-53.332844z m0 82.943757C775.509228 255.379252 651.79659 277.332188 512 277.332188c-139.79659 0-263.509228-21.951936-341.332-55.721837v183.721462h27.967918C229.290828 429.673741 362.688437 447.998688 522.666969 447.998688c159.977531 0 293.375141-18.324946 324.03105-42.666875h6.633981V221.610351z m0 256.08425c-77.695772 33.769901-201.55641 55.636837-341.332 55.636837-139.775591 0-263.636228-21.865936-341.332-55.636837V639.998125h27.967918c30.65591 24.340929 164.052519 42.666875 324.031051 42.666875 159.977531 0 293.375141-18.325946 324.03105-42.666875h6.633981V477.694601z m-330.665031 460.968649c159.977531 0 293.375141-18.324946 324.03105-42.665875h90.303736C920.190804 967.570165 736.554342 1023.997 512 1023.997c-224.554342 0-408.190804-56.426835-425.001755-127.999625h111.637673c30.65591 24.340929 164.052519 42.666875 324.031051 42.666875z"  /></svg>