<?xml version="1.0" encoding="UTF-8"?>
<svg width="13px" height="14px" viewBox="0 0 13 14" version="1.1" xmlns="http://www.w3.org/2000/svg" xmlns:xlink="http://www.w3.org/1999/xlink">
    <!-- Generator: Sketch 55 (78076) - https://sketchapp.com -->
    <title>我的待办</title>
    <desc>Created with Sketch.</desc>
    <g id="页面1" stroke="none" stroke-width="1" fill="none" fill-rule="evenodd">
        <g id="工作台-上线动态列表备份" transform="translate(-3.000000, -155.000000)" fill-rule="nonzero">
            <g id="我的待办" transform="translate(2.000000, 155.000000)">
                <rect id="矩形" fill="#000000" opacity="0" x="0" y="0" width="14" height="14"></rect>
                <path d="M12.3850315,8.82014767 C11.9300138,8.49511307 11.3451669,8.30006153 10.7600123,8.30006153 C9.13499308,8.30006153 7.83500846,9.60004614 7.83500846,11.2250654 C7.83500846,11.8100662 8.03005999,12.3950669 8.35509461,12.8500846 L2.05006923,12.8500846 C1.65996616,12.8500846 1.4,12.5899646 1.4,12.2000154 L1.4,1.15006921 C1.4,0.75996614 1.65996616,0.499999985 2.05006923,0.5 L11.8000308,0.5 C12.18998,0.5 12.4499462,0.759966155 12.4499462,1.15006921 L12.4499462,8.81999385 L12.3850315,8.81999385 L12.3850315,8.82014767 Z M10.1100969,3.75003846 C10.3051484,3.75003846 10.4351315,3.62005538 10.4351315,3.42500385 C10.4351315,3.22995232 10.3051485,3.09996924 10.1100969,3.09996923 L3.61002,3.09996923 C3.41512229,3.09996923 3.28498539,3.22995231 3.28498539,3.42500385 C3.28498539,3.61990156 3.41496847,3.75003846 3.61002,3.75003846 L10.1100969,3.75003846 Z M10.1100969,7.00007691 C10.3051484,7.00007691 10.4351315,6.87009383 10.4351315,6.67504231 C10.4351315,6.47999078 10.3051485,6.3500077 10.1100969,6.35000768 L3.61002,6.35000768 C3.41512229,6.35000768 3.28498539,6.47999076 3.28498539,6.67504231 C3.28498539,6.86994001 3.41496847,7.00007691 3.61002,7.00007691 L10.1100969,7.00007691 Z M3.54510537,9.60019998 C3.41512229,9.60019998 3.28513921,9.73018306 3.28513921,9.92523458 C3.28513921,10.1201323 3.41512229,10.2502692 3.54510537,10.2502692 L6.99019537,10.2502692 C7.12017845,10.2502692 7.25016152,10.1202861 7.25016152,9.92523458 C7.25016152,9.73018306 7.12017845,9.60019998 6.99019537,9.60019998 L3.54510537,9.60019998 Z M11.0850469,10.9001846 L11.0850469,9.92523458 C11.0850469,9.73018306 10.9550638,9.60019998 10.7600123,9.60019998 C10.5649608,9.60019998 10.4349777,9.73018306 10.4349777,9.92523458 L10.4349777,11.2252192 C10.4349777,11.2902876 10.5000461,11.4202707 10.5000462,11.4851854 C10.5000462,11.5502538 10.6300292,11.5502538 10.7600123,11.5502538 L12.0599969,11.5502538 C12.2550485,11.5502538 12.3850315,11.4202707 12.3850315,11.2252192 C12.3850315,11.0301677 12.2550485,10.9001846 12.0599969,10.9001846 L11.0850469,10.9001846 Z M10.7600123,13.5 C9.52509615,13.5 8.48507769,12.4599815 8.48507769,11.2250654 C8.48507769,9.99014921 9.52509615,8.95013075 10.7600123,8.95013075 C11.9949285,8.95013075 13.0349469,9.99014921 13.0349469,11.2250654 C13.0349469,12.4599815 11.9950823,13.5 10.7600123,13.5 Z" id="形状" fill="#FFFFFF"></path>
            </g>
        </g>
    </g>
</svg>