<svg xmlns="http://www.w3.org/2000/svg" pointer-events="none" class="leaflet-zoom-animated" width="1466" height="898" viewBox="-122 -77 1466 898" style="transform: translate3d(-122px, -77px, 0px);"><g><path class="leaflet-interactive" stroke="black" stroke-opacity="1" stroke-width="1" stroke-linecap="round" stroke-linejoin="round" fill="#fff" fill-opacity="0.2" fill-rule="evenodd" d="M491 448L501 446L523 446L527 453L558 453L563 454L565 456L567 454L573 456L577 455L595 463L610 476L614 484L615 483L620 488L623 487L628 490L632 496L630 498L632 501L634 501L635 499L635 501L643 507L642 513L644 517L641 548L638 548L635 563L636 574L654 602L742 606L749 611L763 636L782 626L770 599L771 595L793 574L799 563L803 532L801 502L797 474L787 433L777 407L765 391L723 344L719 336L697 315L665 280L617 206L602 189L512 128L467 116L455 111L442 129L442 136L450 147L458 152L473 158L480 163L484 168L485 192L490 204L490 209L488 216L480 225L470 233L460 237L445 237L436 241L435 246L445 257L447 265L441 277L436 283L422 287L415 293L414 298L417 313L408 324L412 333L417 338L418 341L414 352L420 353L419 352L421 351L423 352L423 354L424 352L425 353L423 347L428 345L429 341L433 341L434 346L439 344L441 350L443 348L442 346L448 344L450 349L456 349L462 346L468 350L470 348L473 354L476 352L475 351L480 349L483 352L481 353L486 360L485 364L487 363L489 367L486 369L484 367L483 369L477 370L478 371L475 373L476 377L479 379L483 376L494 379L481 385L483 386L478 388L478 390L481 390L477 391L477 393L475 393L474 395L475 398L469 402L470 408L479 404L480 407L481 406L485 410L483 411L482 426L480 428L478 427L479 431L482 430L483 426L485 426L484 427L488 429L490 426L489 425L492 424L494 431L488 437L492 442L491 445L489 446L491 448zM762 264L761 270L766 297L769 305L774 312L782 313L801 310L812 284L812 262L810 259L781 251L768 252L765 256zM718 242L718 255L723 264L737 281L745 282L747 280L749 272L751 256L748 248L729 241L724 241z" data-spm-anchor-id="a2crr.23774770.0.i4.765f42c8EaYHpR"/></g></svg>