<?xml version="1.0" standalone="no"?><!DOCTYPE svg PUBLIC "-//W3C//DTD SVG 1.1//EN" "http://www.w3.org/Graphics/SVG/1.1/DTD/svg11.dtd"><svg class="icon" width="200px" height="200.00px" viewBox="0 0 1024 1024" version="1.1" xmlns="http://www.w3.org/2000/svg"><path d="M826.03008 573.44c-27.31008-27.31008-51.2-30.72-61.44-20.48l-30.72 30.72 81.92 81.92 30.72-30.72c13.64992-13.64992 10.24-34.12992-20.48-61.44z m-286.72 204.8C532.48 785.07008 512 866.99008 512 866.99008c0 3.40992-3.41504 17.05984 0 20.48 3.40992 3.40992 10.24 3.40992 20.48 0 0 0 81.92-20.48 88.75008-27.31008l174.08-174.08-81.92-81.92-174.08 174.08z m-3.42016 85.32992l20.48-71.68 51.2 51.2-71.68 20.48z m112.64 23.90016H921.6V921.6h-273.07008v-34.12992z m102.4-102.4H921.6V819.2h-170.67008v-34.12992z m-426.66496-34.14016H153.6c-27.30496 0-51.2-23.88992-51.2-51.2V324.26496c0-27.30496 23.89504-51.2 51.2-51.2h170.66496c27.30496 0 51.2 23.89504 51.2 51.2v375.46496c0 27.31008-23.88992 51.2-51.2 51.2zM870.4 443.73504h-170.67008c-27.29984 0-51.2-23.89504-51.2-51.2V153.6c0-27.30496 23.90016-51.2 51.2-51.2H870.4c27.31008 0 51.2 23.89504 51.2 51.2v238.93504c0 27.30496-23.88992 51.2-51.2 51.2z m-494.93504 34.12992h170.66496v68.26496H375.46496V477.86496z"  /><path d="M512 238.93504h170.67008V307.2H512V238.93504z"  /><path d="M512 238.93504h68.27008v409.6H512v-409.6z"  /></svg>