<?xml version="1.0" encoding="UTF-8"?>
<svg width="12px" height="12px" viewBox="0 0 12 12" version="1.1" xmlns="http://www.w3.org/2000/svg" xmlns:xlink="http://www.w3.org/1999/xlink">
    <!-- Generator: Sketch 54.1 (76490) - https://sketchapp.com -->
    <title>日志</title>
    <desc>Created with Sketch.</desc>
    <g id="Page-1" stroke="none" stroke-width="1" fill="none" fill-rule="evenodd">
        <g id="存量资产导入" transform="translate(-23.000000, -259.000000)" fill-rule="nonzero">
            <g id="日志" transform="translate(22.000000, 258.000000)">
                <g id="编组">
                    <rect id="矩形" fill="#000000" opacity="0" x="0" y="0" width="14" height="14"></rect>
                    <path d="M11.9911483,13 L2.0100293,13 C1.45309726,13 1,12.5408072 1,11.9763827 L1,2.67533632 C1,2.11091181 1.45309726,1.65171898 2.0100293,1.65171898 L3.92625313,1.65171898 L3.92625313,2.36920777 L2.0100293,2.36920777 C1.84365766,2.36920777 1.70796447,2.50672646 1.70796447,2.67533632 L1.70796447,11.9763827 C1.70796447,12.1449925 1.84365766,12.2825112 2.0100293,12.2825112 L11.9899684,12.2825112 C12.15634,12.2825112 12.2920332,12.1449925 12.2920332,11.9763827 L12.2920332,2.67533632 C12.2920332,2.50672646 12.15634,2.36920777 11.9899684,2.36920777 L9.94867085,2.36920777 L9.94867085,1.65171898 L11.9899684,1.65171898 C12.5469004,1.65171898 12.9999977,2.11091181 12.9999977,2.67533632 L12.9999977,11.9763827 C13.0011776,12.5408072 12.5480804,13 11.9911483,13 Z M4.71091374,3.03408072 L4.66607599,3.03408072 C4.47138577,3.03408072 4.31209376,2.87264574 4.31209376,2.67533632 L4.31209376,1.35874439 C4.31209376,1.16143498 4.47138577,1 4.66607599,1 L4.71091374,1 C4.90560397,1 5.06489598,1.16143498 5.06489598,1.35874439 L5.06489598,2.67533632 C5.06489598,2.87264574 4.90560397,3.03408072 4.71091374,3.03408072 Z M9.22536716,3.03408072 L9.18052941,3.03408072 C8.98583918,3.03408072 8.82654717,2.87264574 8.82654717,2.67533632 L8.82654717,1.35874439 C8.82654717,1.16143498 8.98583918,1 9.18052941,1 L9.22536716,1 C9.42005738,1 9.57934939,1.16143498 9.57934939,1.35874439 L9.57934939,2.67533632 C9.57934939,2.87264574 9.42005738,3.03408072 9.22536716,3.03408072 Z M8.41238796,1.99491779 L8.41238796,2.04035874 C8.41238796,2.23766816 8.25309596,2.39910314 8.05840573,2.39910314 L5.75516133,2.39910314 C5.5604711,2.39910314 5.4011791,2.23766816 5.4011791,2.04035874 L5.4011791,1.99491779 C5.4011791,1.79760837 5.5604711,1.63617339 5.75516133,1.63617339 L8.05840573,1.63617339 C8.25309596,1.63617339 8.41238796,1.79760837 8.41238796,1.99491779 Z M12.6825936,5.62899851 L1.38112087,5.62899851 C1.34218283,5.62899851 1.31032442,5.59671151 1.31032442,5.55724963 L1.31032442,4.93781764 C1.31032442,4.89835575 1.34218283,4.86606876 1.38112087,4.86606876 L12.6825936,4.86606876 C12.7215317,4.86606876 12.7533901,4.89835575 12.7533901,4.93781764 L12.7533901,5.55724963 C12.7533901,5.59671151 12.7215317,5.62899851 12.6825936,5.62899851 Z M10.7864288,7.96801196 L3.2135689,7.96801196 C3.01887867,7.96801196 2.85958666,7.80657698 2.85958666,7.60926756 L2.85958666,7.56382661 C2.85958666,7.36651719 3.01887867,7.20508221 3.2135689,7.20508221 L10.7864288,7.20508221 C10.981119,7.20508221 11.140411,7.36651719 11.140411,7.56382661 L11.140411,7.60926756 C11.140411,7.80657698 10.981119,7.96801196 10.7864288,7.96801196 L10.7864288,7.96801196 Z M10.7864288,10.0666667 L3.2135689,10.0666667 C3.01887867,10.0666667 2.85958666,9.90523169 2.85958666,9.70792227 L2.85958666,9.66248132 C2.85958666,9.4651719 3.01887867,9.30373692 3.2135689,9.30373692 L10.7864288,9.30373692 C10.981119,9.30373692 11.140411,9.4651719 11.140411,9.66248132 L11.140411,9.70792227 C11.140411,9.90523169 10.981119,10.0666667 10.7864288,10.0666667 L10.7864288,10.0666667 Z" id="形状" fill="#FFFFFF"></path>
                </g>
            </g>
        </g>
    </g>
</svg>